SplineFontDB: 3.0
FontName: CheyenneSans-BoldItalic
FullName: Cheyenne Sans Bold Italic
FamilyName: Cheyenne Sans
Weight: Bold
Copyright: 
Version: 1.000; ttfautohint (v1.8.2)
ItalicAngle: -8
UnderlinePosition: -150
UnderlineWidth: 50
Ascent: 800
Descent: 200
InvalidEm: 0
sfntRevision: 0x00010000
LayerCount: 2
Layer: 0 1 "Back" 1
Layer: 1 1 "Fore" 0
XUID: [1021 646 1163163066 7740436]
StyleMap: 0x0021
FSType: 0
OS2Version: 3
OS2_WeightWidthSlopeOnly: 0
OS2_UseTypoMetrics: 0
CreationTime: 1513572760
ModificationTime: 1544463841
PfmFamily: 81
TTFWeight: 700
TTFWidth: 5
LineGap: 0
VLineGap: 0
Panose: 0 0 8 0 0 0 0 0 0 0
OS2TypoAscent: 743
OS2TypoAOffset: 0
OS2TypoDescent: -161
OS2TypoDOffset: 0
OS2TypoLinegap: 0
OS2WinAscent: 822
OS2WinAOffset: 0
OS2WinDescent: 178
OS2WinDOffset: 0
HheadAscent: 822
HheadAOffset: 0
HheadDescent: -178
HheadDOffset: 0
OS2SubXSize: 650
OS2SubYSize: 600
OS2SubXOff: 0
OS2SubYOff: 75
OS2SupXSize: 650
OS2SupYSize: 600
OS2SupXOff: 0
OS2SupYOff: 350
OS2StrikeYSize: 50
OS2StrikeYPos: 310
OS2CapHeight: 723
OS2XHeight: 517
OS2Vendor: 'IMPA'
OS2CodePages: 20000193.00000000
OS2UnicodeRanges: 00000007.00000000.00000000.00000000
Lookup: 1 0 0 "'aalt' Access All Alternates in Latin lookup 0" { "'aalt' Access All Alternates in Latin lookup 0 subtable"  } ['aalt' ('DFLT' <'dflt' > 'latn' <'AZE ' 'CAT ' 'CRT ' 'KAZ ' 'MOL ' 'ROM ' 'TAT ' 'TRK ' 'dflt' > ) ]
Lookup: 3 0 0 "'aalt' Access All Alternates in Latin lookup 1" { "'aalt' Access All Alternates in Latin lookup 1 subtable"  } ['aalt' ('DFLT' <'dflt' > 'latn' <'AZE ' 'CAT ' 'CRT ' 'KAZ ' 'MOL ' 'ROM ' 'TAT ' 'TRK ' 'dflt' > ) ]
Lookup: 6 0 0 "'ccmp' Glyph Composition/Decomposition in Latin lookup 2" { "'ccmp' Glyph Composition/Decomposition in Latin lookup 2 contextual 0"  "'ccmp' Glyph Composition/Decomposition in Latin lookup 2 contextual 1"  } ['ccmp' ('DFLT' <'dflt' > 'latn' <'AZE ' 'CAT ' 'CRT ' 'KAZ ' 'MOL ' 'ROM ' 'TAT ' 'TRK ' 'dflt' > ) ]

StartChar: .notdef
Encoding: 65536 -1 0
Width: 651
Flags: W
LayerCount: 2
Fore
SplineSet
637.5 820.5 m 128,-1,1
 642 815 642 815 640 805 c 2,2,-1
 508 -133 l 2,3,4
 506 -148 506 -148 497 -154.5 c 128,-1,5
 488 -161 488 -161 471 -161 c 2,6,-1
 35 -161 l 2,7,8
 20 -161 20 -161 15 -155.5 c 128,-1,9
 10 -150 10 -150 12 -137 c 2,10,-1
 144 803 l 2,11,12
 146 814 146 814 151.5 820 c 128,-1,13
 157 826 157 826 166 826 c 2,14,-1
 625 826 l 2,15,0
 633 826 633 826 637.5 820.5 c 128,-1,1
580.5 772.5 m 128,-1,17
 577 777 577 777 570 777 c 2,18,-1
 227 777 l 1,19,-1
 468 -57 l 1,20,-1
 583 760 l 2,21,16
 584 768 584 768 580.5 772.5 c 128,-1,17
72 -107 m 128,-1,23
 76 -112 76 -112 88 -112 c 2,24,-1
 424 -112 l 1,25,-1
 183 716 l 1,26,-1
 69 -92 l 2,27,22
 68 -102 68 -102 72 -107 c 128,-1,23
EndSplineSet
EndChar

StartChar: exclam
Encoding: 33 33 4
Width: 279
GlyphClass: 2
Flags: W
LayerCount: 2
Fore
SplineSet
169 227 m 1,0,-1
 74 227 l 1,1,-1
 102 723 l 1,2,-1
 278 723 l 1,3,-1
 169 227 l 1,0,-1
170 0 m 1,4,-1
 6 0 l 1,5,-1
 28 160 l 1,6,-1
 192 160 l 1,7,-1
 170 0 l 1,4,-1
EndSplineSet
EndChar

StartChar: quotedbl
Encoding: 34 34 5
Width: 480
GlyphClass: 2
Flags: W
LayerCount: 2
Fore
SplineSet
417 439 m 1,0,-1
 342 439 l 1,1,-1
 343 723 l 1,2,-1
 496 723 l 1,3,-1
 417 439 l 1,0,-1
195 439 m 1,4,-1
 120 439 l 1,5,-1
 121 723 l 1,6,-1
 274 723 l 1,7,-1
 195 439 l 1,4,-1
EndSplineSet
EndChar

StartChar: numbersign
Encoding: 35 35 6
Width: 609
GlyphClass: 2
Flags: W
LayerCount: 2
Fore
SplineSet
474 429 m 1,0,-1
 437 302 l 1,1,-1
 543 302 l 1,2,-1
 532 224 l 1,3,-1
 414 224 l 1,4,-1
 350 -2 l 1,5,-1
 272 8 l 1,6,-1
 334 224 l 1,7,-1
 201 224 l 1,8,-1
 137 -2 l 1,9,-1
 60 8 l 1,10,-1
 122 224 l 1,11,-1
 8 224 l 1,12,-1
 19 302 l 1,13,-1
 144 302 l 1,14,-1
 181 429 l 1,15,-1
 69 429 l 1,16,-1
 80 507 l 1,17,-1
 204 507 l 1,18,-1
 267 725 l 1,19,-1
 344 717 l 1,20,-1
 283 507 l 1,21,-1
 416 507 l 1,22,-1
 480 725 l 1,23,-1
 557 717 l 1,24,-1
 496 507 l 1,25,-1
 604 507 l 1,26,-1
 593 429 l 1,27,-1
 474 429 l 1,0,-1
394 429 m 1,28,-1
 261 429 l 1,29,-1
 224 302 l 1,30,-1
 357 302 l 1,31,-1
 394 429 l 1,28,-1
EndSplineSet
EndChar

StartChar: dollar
Encoding: 36 36 7
Width: 656
GlyphClass: 2
Flags: W
LayerCount: 2
Fore
SplineSet
514 64 m 128,-1,1
 447 6 447 6 346 -4 c 0,2,3
 335 -5 335 -5 331.5 -8 c 128,-1,4
 328 -11 328 -11 327 -20 c 2,5,-1
 319 -77 l 1,6,-1
 221 -77 l 1,7,-1
 231 -5 l 1,8,9
 151 0 151 0 93.5 26.5 c 128,-1,10
 36 53 36 53 -11 103 c 1,11,-1
 89 195 l 1,12,13
 120 157 120 157 158 133.5 c 128,-1,14
 196 110 196 110 247 103 c 1,15,-1
 276 297 l 1,16,17
 157 323 157 323 111 378 c 128,-1,18
 65 433 65 433 76 514 c 0,19,20
 87 592 87 592 150.5 647 c 128,-1,21
 214 702 214 702 316 721 c 0,22,23
 323 722 323 722 330 726 c 128,-1,24
 337 730 337 730 338 737 c 2,25,-1
 345 787 l 1,26,-1
 441 787 l 1,27,-1
 432 725 l 1,28,29
 546 697 546 697 616 638 c 1,30,-1
 526 543 l 1,31,32
 511 564 511 564 484.5 581.5 c 128,-1,33
 458 599 458 599 427 609 c 2,34,-1
 423 610 l 2,35,36
 419 610 419 610 416.5 607.5 c 128,-1,37
 414 605 414 605 414 602 c 2,38,-1
 389 427 l 1,39,-1
 454 410 l 1,40,41
 528 386 528 386 565.5 333.5 c 128,-1,42
 603 281 603 281 593 209 c 0,43,0
 581 122 581 122 514 64 c 128,-1,1
321 615 m 1,44,45
 300 615 300 615 274.5 605 c 128,-1,46
 249 595 249 595 229 576 c 128,-1,47
 209 557 209 557 206 531 c 0,48,49
 201 492 201 492 226 471.5 c 128,-1,50
 251 451 251 451 296 441 c 1,51,-1
 321 615 l 1,44,45
426 131 m 128,-1,53
 458 154 458 154 462 187 c 0,54,55
 467 221 467 221 445 244 c 128,-1,56
 423 267 423 267 368 281 c 1,57,-1
 343 103 l 1,58,52
 394 108 394 108 426 131 c 128,-1,53
EndSplineSet
EndChar

StartChar: percent
Encoding: 37 37 8
Width: 939
GlyphClass: 2
Flags: W
LayerCount: 2
Fore
SplineSet
373.5 706.5 m 128,-1,1
 411 679 411 679 428.5 631.5 c 128,-1,2
 446 584 446 584 438 527 c 0,3,4
 430 471 430 471 400 424.5 c 128,-1,5
 370 378 370 378 325 351 c 128,-1,6
 280 324 280 324 228 324 c 128,-1,7
 176 324 176 324 137.5 351 c 128,-1,8
 99 378 99 378 81.5 424.5 c 128,-1,9
 64 471 64 471 72 527 c 0,10,11
 80 584 80 584 111 631.5 c 128,-1,12
 142 679 142 679 188 706.5 c 128,-1,13
 234 734 234 734 285 734 c 128,-1,0
 336 734 336 734 373.5 706.5 c 128,-1,1
234 -4 m 1,14,-1
 148 -3 l 1,15,-1
 738 731 l 1,16,-1
 824 731 l 1,17,-1
 234 -4 l 1,14,-1
328 527 m 0,18,19
 337 590 337 590 323 624 c 128,-1,20
 309 658 309 658 273 658 c 128,-1,21
 237 658 237 658 214.5 623.5 c 128,-1,22
 192 589 192 589 183 527 c 0,23,24
 174 466 174 466 187 433 c 128,-1,25
 200 400 200 400 237 400 c 0,26,27
 310 400 310 400 328 527 c 0,18,19
803 373 m 128,-1,29
 841 345 841 345 858.5 297.5 c 128,-1,30
 876 250 876 250 868 194 c 128,-1,31
 860 138 860 138 830 91 c 128,-1,32
 800 44 800 44 754.5 17 c 128,-1,33
 709 -10 709 -10 657 -10 c 128,-1,34
 605 -10 605 -10 566.5 17 c 128,-1,35
 528 44 528 44 510.5 91 c 128,-1,36
 493 138 493 138 501 194 c 128,-1,37
 509 250 509 250 540 297.5 c 128,-1,38
 571 345 571 345 617 373 c 128,-1,39
 663 401 663 401 714 401 c 128,-1,28
 765 401 765 401 803 373 c 128,-1,29
726 100 m 128,-1,41
 749 133 749 133 757 193 c 0,42,43
 766 255 766 255 752.5 289.5 c 128,-1,44
 739 324 739 324 703 324 c 0,45,46
 668 324 668 324 645 289.5 c 128,-1,47
 622 255 622 255 613 193 c 0,48,49
 605 133 605 133 617.5 100 c 128,-1,50
 630 67 630 67 666 67 c 0,51,40
 703 67 703 67 726 100 c 128,-1,41
EndSplineSet
EndChar

StartChar: ampersand
Encoding: 38 38 9
Width: 786
GlyphClass: 2
Flags: W
LayerCount: 2
Fore
SplineSet
524.5 714 m 128,-1,1
 573 694 573 694 597.5 658.5 c 128,-1,2
 622 623 622 623 615 577 c 0,3,4
 608 528 608 528 561 479 c 128,-1,5
 514 430 514 430 429 384 c 1,6,-1
 520 256 l 1,7,8
 573 348 573 348 590 413 c 1,9,-1
 744 413 l 1,10,11
 725 369 725 369 696 326.5 c 128,-1,12
 667 284 667 284 620 224 c 2,13,-1
 579 169 l 1,14,-1
 700 0 l 1,15,-1
 527 0 l 1,16,-1
 476 70 l 1,17,18
 416 31 416 31 353 13 c 128,-1,19
 290 -5 290 -5 232 -5 c 0,20,21
 115 -5 115 -5 63 45.5 c 128,-1,22
 11 96 11 96 23 181 c 0,23,24
 33 253 33 253 84 303.5 c 128,-1,25
 135 354 135 354 238 404 c 1,26,27
 198 457 198 457 183 489 c 128,-1,28
 168 521 168 521 174 564 c 0,29,30
 181 612 181 612 214 651 c 128,-1,31
 247 690 247 690 299 712 c 128,-1,32
 351 734 351 734 414 734 c 0,33,0
 476 734 476 734 524.5 714 c 128,-1,1
352 623.5 m 128,-1,35
 329 604 329 604 325 575 c 0,36,37
 319 533 319 533 360 481 c 2,38,-1
 377 459 l 1,39,40
 431 491 431 491 454.5 516.5 c 128,-1,41
 478 542 478 542 482 570 c 0,42,43
 487 606 487 606 466.5 624.5 c 128,-1,44
 446 643 446 643 411 643 c 0,45,34
 375 643 375 643 352 623.5 c 128,-1,35
228 267.5 m 128,-1,47
 199 238 199 238 195 203 c 0,48,49
 189 161 189 161 216.5 135.5 c 128,-1,50
 244 110 244 110 285 110 c 0,51,52
 315 110 315 110 351.5 122.5 c 128,-1,53
 388 135 388 135 415 158 c 1,54,-1
 300 319 l 1,55,46
 257 297 257 297 228 267.5 c 128,-1,47
EndSplineSet
EndChar

StartChar: quotesingle
Encoding: 39 39 10
Width: 256
GlyphClass: 2
Flags: W
LayerCount: 2
Fore
SplineSet
181 439 m 1,0,-1
 106 439 l 1,1,-1
 107 723 l 1,2,-1
 260 723 l 1,3,-1
 181 439 l 1,0,-1
EndSplineSet
EndChar

StartChar: parenleft
Encoding: 40 40 11
Width: 331
GlyphClass: 2
Flags: W
LayerCount: 2
Fore
SplineSet
244.5 507 m 128,-1,1
 198 392 198 392 182 277 c 0,2,3
 166 166 166 166 179 61 c 128,-1,4
 192 -44 192 -44 232 -161 c 1,5,-1
 126 -161 l 1,6,7
 73 -43 73 -43 52 57.5 c 128,-1,8
 31 158 31 158 48 278 c 128,-1,9
 65 398 65 398 119 512 c 128,-1,10
 173 626 173 626 253 723 c 1,11,-1
 360 723 l 1,12,0
 291 622 291 622 244.5 507 c 128,-1,1
EndSplineSet
EndChar

StartChar: parenright
Encoding: 41 41 12
Width: 331
GlyphClass: 2
Flags: WO
LayerCount: 2
Fore
SplineSet
104.900390625 55 m 128,-1,1
 151.400390625 170 151.400390625 170 167.400390625 285 c 0,2,3
 183.400390625 396 183.400390625 396 170.400390625 501 c 128,-1,4
 157.400390625 606 157.400390625 606 117.400390625 723 c 1,5,-1
 223.400390625 723 l 1,6,7
 276.400390625 605 276.400390625 605 297.400390625 504.5 c 128,-1,8
 318.400390625 404 318.400390625 404 301.400390625 284 c 128,-1,9
 284.400390625 164 284.400390625 164 230.400390625 50 c 128,-1,10
 176.400390625 -64 176.400390625 -64 96.400390625 -161 c 1,11,-1
 -10.599609375 -161 l 1,12,0
 58.400390625 -60 58.400390625 -60 104.900390625 55 c 128,-1,1
EndSplineSet
EndChar

StartChar: asterisk
Encoding: 42 42 13
Width: 476
GlyphClass: 2
Flags: W
LayerCount: 2
Fore
SplineSet
255 459 m 1,0,-1
 151 319 l 1,1,-1
 79 375 l 1,2,-1
 200 499 l 1,3,-1
 58 541 l 1,4,-1
 102 628 l 1,5,-1
 234 567 l 1,6,-1
 244 723 l 1,7,-1
 342 723 l 1,8,-1
 306 566 l 1,9,-1
 457 629 l 1,10,-1
 473 541 l 1,11,-1
 323 500 l 1,12,-1
 407 378 l 1,13,-1
 319 322 l 1,14,-1
 255 459 l 1,0,-1
EndSplineSet
EndChar

StartChar: plus
Encoding: 43 43 14
Width: 586
GlyphClass: 2
Flags: W
LayerCount: 2
Fore
SplineSet
525 309 m 1,0,-1
 343 309 l 1,1,-1
 318 126 l 1,2,-1
 208 126 l 1,3,-1
 233 309 l 1,4,-1
 49 309 l 1,5,-1
 65 418 l 1,6,-1
 249 418 l 1,7,-1
 275 602 l 1,8,-1
 384 602 l 1,9,-1
 358 419 l 1,10,-1
 541 419 l 1,11,-1
 525 309 l 1,0,-1
EndSplineSet
EndChar

StartChar: comma
Encoding: 44 44 15
Width: 275
GlyphClass: 2
Flags: W
LayerCount: 2
Fore
SplineSet
55 -4 m 1,0,-1
 5 1 l 1,1,-1
 25 145 l 1,2,-1
 175 145 l 1,3,-1
 158 18 l 1,4,-1
 33 -141 l 1,5,-1
 -22 -141 l 1,6,-1
 55 -4 l 1,0,-1
EndSplineSet
Substitution2: "'tnum' Tabular Numbers in Latin lookup 23 subtable" comma.tf
Substitution2: "'aalt' Access All Alternates in Latin lookup 0 subtable" comma.tf
EndChar

StartChar: hyphen
Encoding: 45 45 16
Width: 393
GlyphClass: 2
Flags: W
LayerCount: 2
Fore
SplineSet
313 203 m 1,0,-1
 37 202 l 1,1,-1
 53 312 l 1,2,-1
 328 312 l 1,3,-1
 313 203 l 1,0,-1
EndSplineSet
EndChar

StartChar: period
Encoding: 46 46 17
Width: 270
GlyphClass: 2
Flags: W
LayerCount: 2
Fore
SplineSet
166 0 m 1,0,-1
 1 0 l 1,1,-1
 24 163 l 1,2,-1
 189 163 l 1,3,-1
 166 0 l 1,0,-1
EndSplineSet
Substitution2: "'tnum' Tabular Numbers in Latin lookup 23 subtable" period.tf
Substitution2: "'aalt' Access All Alternates in Latin lookup 0 subtable" period.tf
EndChar

StartChar: slash
Encoding: 47 47 18
Width: 378
GlyphClass: 2
Flags: W
LayerCount: 2
Fore
SplineSet
316 723 m 1,0,-1
 421 723 l 1,1,-1
 64 -17 l 1,2,-1
 -41 -17 l 1,3,-1
 316 723 l 1,0,-1
EndSplineSet
Substitution2: "'frac' Diagonal Fractions in Latin lookup 16 subtable" fraction
Substitution2: "'aalt' Access All Alternates in Latin lookup 0 subtable" fraction
EndChar

StartChar: zero
Encoding: 48 48 19
Width: 663
GlyphClass: 2
Flags: W
LayerCount: 2
Fore
SplineSet
536.5 690 m 128,-1,1
 597 646 597 646 622 562 c 128,-1,2
 647 478 647 478 631 360 c 0,3,4
 615 243 615 243 566.5 160 c 128,-1,5
 518 77 518 77 446 34 c 128,-1,6
 374 -9 374 -9 285 -9 c 128,-1,7
 196 -9 196 -9 135 33.5 c 128,-1,8
 74 76 74 76 49 159 c 128,-1,9
 24 242 24 242 40 359 c 0,10,11
 57 477 57 477 106.5 561.5 c 128,-1,12
 156 646 156 646 228.5 690 c 128,-1,13
 301 734 301 734 389 734 c 0,14,0
 476 734 476 734 536.5 690 c 128,-1,1
406.5 170 m 128,-1,16
 446 228 446 228 464 359 c 0,17,18
 483 493 483 493 459.5 553.5 c 128,-1,19
 436 614 436 614 371 614 c 0,20,21
 307 614 307 614 266.5 553 c 128,-1,22
 226 492 226 492 207 359 c 0,23,24
 189 229 189 229 213 170.5 c 128,-1,25
 237 112 237 112 302 112 c 128,-1,15
 367 112 367 112 406.5 170 c 128,-1,16
EndSplineSet
Substitution2: "'onum' Oldstyle Figures in Latin lookup 24 subtable" zero.osf
Substitution2: "'tnum' Tabular Numbers in Latin lookup 23 subtable" zero.tf
Substitution2: "'frac' Diagonal Fractions in Latin lookup 17 subtable" zero.numr
Substitution2: "'dnom' Denominators in Latin lookup 15 subtable" zero.dnom
Substitution2: "'numr' Numerators in Latin lookup 14 subtable" zero.numr
Substitution2: "'sups' Superscript in Latin lookup 13 subtable" uni2070
Substitution2: "'sinf' Scientific Inferiors in Latin lookup 12 subtable" zero.subs
Substitution2: "'subs' Subscript in Latin lookup 11 subtable" zero.subs
AlternateSubs2: "'aalt' Access All Alternates in Latin lookup 1 subtable" zero.subs uni2070 zero.numr zero.dnom zero.tf zero.osf
EndChar

StartChar: one
Encoding: 49 49 20
Width: 406
GlyphClass: 2
Flags: W
LayerCount: 2
Fore
SplineSet
186 555 m 1,0,-1
 52 519 l 1,1,-1
 67 623 l 1,2,-1
 282 723 l 1,3,-1
 362 723 l 1,4,-1
 260 0 l 1,5,-1
 108 0 l 1,6,-1
 186 555 l 1,0,-1
EndSplineSet
Substitution2: "'onum' Oldstyle Figures in Latin lookup 24 subtable" one.osf
Substitution2: "'tnum' Tabular Numbers in Latin lookup 23 subtable" one.tf
Substitution2: "'frac' Diagonal Fractions in Latin lookup 17 subtable" one.numr
Substitution2: "'dnom' Denominators in Latin lookup 15 subtable" one.dnom
Substitution2: "'numr' Numerators in Latin lookup 14 subtable" one.numr
Substitution2: "'sups' Superscript in Latin lookup 13 subtable" uni00B9
Substitution2: "'sinf' Scientific Inferiors in Latin lookup 12 subtable" one.subs
Substitution2: "'subs' Subscript in Latin lookup 11 subtable" one.subs
AlternateSubs2: "'aalt' Access All Alternates in Latin lookup 1 subtable" one.subs uni00B9 one.numr one.dnom one.tf one.osf
EndChar

StartChar: two
Encoding: 50 50 21
Width: 617
GlyphClass: 2
Flags: W
LayerCount: 2
Fore
SplineSet
6 112 m 1,0,-1
 261 313 l 2,1,2
 333 369 333 369 369 401.5 c 128,-1,3
 405 434 405 434 420.5 458.5 c 128,-1,4
 436 483 436 483 440 512 c 0,5,6
 446 557 446 557 418.5 582.5 c 128,-1,7
 391 608 391 608 345 608 c 0,8,9
 298 608 298 608 257.5 582.5 c 128,-1,10
 217 557 217 557 193 503 c 1,11,-1
 54 510 l 1,12,13
 80 612 80 612 160.5 672.5 c 128,-1,14
 241 733 241 733 367 733 c 0,15,16
 446 733 446 733 501.5 706 c 128,-1,17
 557 679 557 679 583 629.5 c 128,-1,18
 609 580 609 580 599 513 c 0,19,20
 590 456 590 456 555.5 411 c 128,-1,21
 521 366 521 366 435 294 c 2,22,-1
 236 127 l 1,23,-1
 552 127 l 1,24,-1
 534 0 l 1,25,-1
 -10 0 l 1,26,-1
 6 112 l 1,0,-1
EndSplineSet
Substitution2: "'onum' Oldstyle Figures in Latin lookup 24 subtable" two.osf
Substitution2: "'tnum' Tabular Numbers in Latin lookup 23 subtable" two.tf
Substitution2: "'frac' Diagonal Fractions in Latin lookup 17 subtable" two.numr
Substitution2: "'dnom' Denominators in Latin lookup 15 subtable" two.dnom
Substitution2: "'numr' Numerators in Latin lookup 14 subtable" two.numr
Substitution2: "'sups' Superscript in Latin lookup 13 subtable" uni00B2
Substitution2: "'sinf' Scientific Inferiors in Latin lookup 12 subtable" two.subs
Substitution2: "'subs' Subscript in Latin lookup 11 subtable" two.subs
AlternateSubs2: "'aalt' Access All Alternates in Latin lookup 1 subtable" two.subs uni00B2 two.numr two.dnom two.tf two.osf
EndChar

StartChar: three
Encoding: 51 51 22
Width: 669
GlyphClass: 2
Flags: W
LayerCount: 2
Fore
SplineSet
180.5 685 m 128,-1,1
 271 733 271 733 393 733 c 0,2,3
 470 733 470 733 530 709 c 128,-1,4
 590 685 590 685 620.5 641.5 c 128,-1,5
 651 598 651 598 643 544 c 0,6,7
 628 434 628 434 487 387 c 1,8,9
 551 370 551 370 589.5 324 c 128,-1,10
 628 278 628 278 618 209 c 0,11,12
 609 142 609 142 559 92.5 c 128,-1,13
 509 43 509 43 436 16.5 c 128,-1,14
 363 -10 363 -10 286 -10 c 0,15,16
 150 -10 150 -10 78.5 35.5 c 128,-1,17
 7 81 7 81 10 196 c 1,18,-1
 153 204 l 1,19,20
 164 154 164 154 203 132.5 c 128,-1,21
 242 111 242 111 293 111 c 0,22,23
 358 111 358 111 401 139 c 128,-1,24
 444 167 444 167 450 208 c 0,25,26
 456 253 456 253 422.5 282 c 128,-1,27
 389 311 389 311 333 311 c 2,28,-1
 235 313 l 1,29,-1
 252 432 l 1,30,-1
 336 435 l 2,31,32
 393 436 393 436 433.5 464 c 128,-1,33
 474 492 474 492 480 532 c 0,34,35
 485 568 485 568 452.5 592.5 c 128,-1,36
 420 617 420 617 373 617 c 0,37,38
 313 617 313 617 269.5 597 c 128,-1,39
 226 577 226 577 205 523 c 1,40,-1
 66 531 l 1,41,0
 90 637 90 637 180.5 685 c 128,-1,1
EndSplineSet
Substitution2: "'onum' Oldstyle Figures in Latin lookup 24 subtable" three.osf
Substitution2: "'tnum' Tabular Numbers in Latin lookup 23 subtable" three.tf
Substitution2: "'frac' Diagonal Fractions in Latin lookup 17 subtable" three.numr
Substitution2: "'dnom' Denominators in Latin lookup 15 subtable" three.dnom
Substitution2: "'numr' Numerators in Latin lookup 14 subtable" three.numr
Substitution2: "'sups' Superscript in Latin lookup 13 subtable" uni00B3
Substitution2: "'sinf' Scientific Inferiors in Latin lookup 12 subtable" three.subs
Substitution2: "'subs' Subscript in Latin lookup 11 subtable" three.subs
AlternateSubs2: "'aalt' Access All Alternates in Latin lookup 1 subtable" three.subs uni00B3 three.numr three.dnom three.tf three.osf
EndChar

StartChar: four
Encoding: 52 52 23
Width: 630
GlyphClass: 2
Flags: W
LayerCount: 2
Fore
SplineSet
558 723 m 1,0,-1
 496 287 l 1,1,-1
 604 287 l 1,2,-1
 586 158 l 1,3,-1
 478 158 l 1,4,-1
 456 0 l 1,5,-1
 304 0 l 1,6,-1
 327 158 l 1,7,-1
 2 158 l 1,8,-1
 20 285 l 1,9,-1
 407 723 l 1,10,-1
 558 723 l 1,0,-1
345 287 m 1,11,-1
 377 514 l 1,12,-1
 177 287 l 1,13,-1
 345 287 l 1,11,-1
EndSplineSet
Substitution2: "'onum' Oldstyle Figures in Latin lookup 24 subtable" four.osf
Substitution2: "'tnum' Tabular Numbers in Latin lookup 23 subtable" four.tf
Substitution2: "'frac' Diagonal Fractions in Latin lookup 17 subtable" four.numr
Substitution2: "'dnom' Denominators in Latin lookup 15 subtable" four.dnom
Substitution2: "'numr' Numerators in Latin lookup 14 subtable" four.numr
Substitution2: "'sups' Superscript in Latin lookup 13 subtable" uni2074
Substitution2: "'sinf' Scientific Inferiors in Latin lookup 12 subtable" four.subs
Substitution2: "'subs' Subscript in Latin lookup 11 subtable" four.subs
AlternateSubs2: "'aalt' Access All Alternates in Latin lookup 1 subtable" four.subs uni2074 four.numr four.dnom four.tf four.osf
EndChar

StartChar: five
Encoding: 53 53 24
Width: 665
GlyphClass: 2
Flags: W
LayerCount: 2
Fore
SplineSet
636 723 m 1,0,-1
 611 600 l 1,1,-1
 267 600 l 1,2,-1
 230 431 l 1,3,4
 287 450 287 450 318 458 c 128,-1,5
 349 466 349 466 389 466 c 0,6,7
 463 466 463 466 517 439.5 c 128,-1,8
 571 413 571 413 596.5 361 c 128,-1,9
 622 309 622 309 612 236 c 0,10,11
 601 160 601 160 557.5 104.5 c 128,-1,12
 514 49 514 49 444.5 19.5 c 128,-1,13
 375 -10 375 -10 288 -10 c 0,14,15
 190 -10 190 -10 115 28 c 128,-1,16
 40 66 40 66 5 129 c 1,17,-1
 129 208 l 1,18,19
 165 158 165 158 197 134 c 128,-1,20
 229 110 229 110 285 110 c 0,21,22
 353 110 353 110 396.5 144 c 128,-1,23
 440 178 440 178 447 231 c 0,24,25
 454 282 454 282 423 313.5 c 128,-1,26
 392 345 392 345 332 345 c 0,27,28
 301 345 301 345 273.5 336 c 128,-1,29
 246 327 246 327 202 307 c 0,30,31
 193 303 193 303 190 303 c 0,32,33
 185 303 185 303 178 308 c 2,34,-1
 83 364 l 1,35,-1
 166 723 l 1,36,-1
 636 723 l 1,0,-1
EndSplineSet
Substitution2: "'onum' Oldstyle Figures in Latin lookup 24 subtable" five.osf
Substitution2: "'tnum' Tabular Numbers in Latin lookup 23 subtable" five.tf
Substitution2: "'frac' Diagonal Fractions in Latin lookup 17 subtable" five.numr
Substitution2: "'dnom' Denominators in Latin lookup 15 subtable" five.dnom
Substitution2: "'numr' Numerators in Latin lookup 14 subtable" five.numr
Substitution2: "'sups' Superscript in Latin lookup 13 subtable" uni2075
Substitution2: "'sinf' Scientific Inferiors in Latin lookup 12 subtable" five.subs
Substitution2: "'subs' Subscript in Latin lookup 11 subtable" five.subs
AlternateSubs2: "'aalt' Access All Alternates in Latin lookup 1 subtable" five.subs uni2075 five.numr five.dnom five.tf five.osf
EndChar

StartChar: six
Encoding: 54 54 25
Width: 647
GlyphClass: 2
Flags: W
LayerCount: 2
Fore
SplineSet
522.5 711.5 m 128,-1,1
 576 688 576 688 604.5 644.5 c 128,-1,2
 633 601 633 601 630 543 c 1,3,-1
 494 534 l 1,4,5
 483 575 483 575 458.5 595.5 c 128,-1,6
 434 616 434 616 388 616 c 0,7,8
 320 616 320 616 274 562.5 c 128,-1,9
 228 509 228 509 215 419 c 0,10,11
 213 405 213 405 211 377 c 1,12,13
 241 410 241 410 287 428 c 128,-1,14
 333 446 333 446 384 446 c 0,15,16
 458 446 458 446 509 418.5 c 128,-1,17
 560 391 560 391 583 341.5 c 128,-1,18
 606 292 606 292 597 230 c 0,19,20
 587 162 587 162 544 108.5 c 128,-1,21
 501 55 501 55 433.5 25 c 128,-1,22
 366 -5 366 -5 287 -5 c 0,23,24
 194 -5 194 -5 133 38.5 c 128,-1,25
 72 82 72 82 47.5 162 c 128,-1,26
 23 242 23 242 38 350 c 0,27,28
 55 469 55 469 104.5 556 c 128,-1,29
 154 643 154 643 230 689 c 128,-1,30
 306 735 306 735 401 735 c 0,31,0
 469 735 469 735 522.5 711.5 c 128,-1,1
272.5 322 m 128,-1,33
 242 310 242 310 221 290.5 c 128,-1,34
 200 271 200 271 197 250 c 0,35,36
 192 180 192 180 219 144 c 128,-1,37
 246 108 246 108 298 108 c 0,38,39
 348 108 348 108 389 141 c 128,-1,40
 430 174 430 174 437 223 c 0,41,42
 444 274 444 274 413.5 304 c 128,-1,43
 383 334 383 334 333 334 c 0,44,32
 303 334 303 334 272.5 322 c 128,-1,33
EndSplineSet
Substitution2: "'onum' Oldstyle Figures in Latin lookup 24 subtable" six.osf
Substitution2: "'tnum' Tabular Numbers in Latin lookup 23 subtable" six.tf
Substitution2: "'frac' Diagonal Fractions in Latin lookup 17 subtable" six.numr
Substitution2: "'dnom' Denominators in Latin lookup 15 subtable" six.dnom
Substitution2: "'numr' Numerators in Latin lookup 14 subtable" six.numr
Substitution2: "'sups' Superscript in Latin lookup 13 subtable" uni2076
Substitution2: "'sinf' Scientific Inferiors in Latin lookup 12 subtable" six.subs
Substitution2: "'subs' Subscript in Latin lookup 11 subtable" six.subs
AlternateSubs2: "'aalt' Access All Alternates in Latin lookup 1 subtable" six.subs uni2076 six.numr six.dnom six.tf six.osf
EndChar

StartChar: seven
Encoding: 55 55 26
Width: 587
GlyphClass: 2
Flags: W
LayerCount: 2
Fore
SplineSet
625 723 m 1,0,-1
 603 569 l 1,1,2
 535 497 535 497 463.5 394 c 128,-1,3
 392 291 392 291 339.5 185 c 128,-1,4
 287 79 287 79 274 0 c 1,5,-1
 111 0 l 1,6,7
 125 67 125 67 168.5 166 c 128,-1,8
 212 265 212 265 287 380 c 128,-1,9
 362 495 362 495 464 600 c 1,10,-1
 63 600 l 1,11,-1
 81 723 l 1,12,-1
 625 723 l 1,0,-1
EndSplineSet
Substitution2: "'onum' Oldstyle Figures in Latin lookup 24 subtable" seven.osf
Substitution2: "'tnum' Tabular Numbers in Latin lookup 23 subtable" seven.tf
Substitution2: "'frac' Diagonal Fractions in Latin lookup 17 subtable" seven.numr
Substitution2: "'dnom' Denominators in Latin lookup 15 subtable" seven.dnom
Substitution2: "'numr' Numerators in Latin lookup 14 subtable" seven.numr
Substitution2: "'sups' Superscript in Latin lookup 13 subtable" uni2077
Substitution2: "'sinf' Scientific Inferiors in Latin lookup 12 subtable" seven.subs
Substitution2: "'subs' Subscript in Latin lookup 11 subtable" seven.subs
AlternateSubs2: "'aalt' Access All Alternates in Latin lookup 1 subtable" seven.subs uni2077 seven.numr seven.dnom seven.tf seven.osf
EndChar

StartChar: eight
Encoding: 56 56 27
Width: 639
GlyphClass: 2
Flags: W
LayerCount: 2
Fore
SplineSet
506.5 707 m 128,-1,1
 563 681 563 681 590 634.5 c 128,-1,2
 617 588 617 588 609 531 c 0,3,4
 601 472 601 472 558.5 437 c 128,-1,5
 516 402 516 402 477 387 c 1,6,7
 482 384 482 384 520.5 364.5 c 128,-1,8
 559 345 559 345 581 303 c 128,-1,9
 603 261 603 261 595 205 c 0,10,11
 586 138 586 138 542 89.5 c 128,-1,12
 498 41 498 41 426.5 15.5 c 128,-1,13
 355 -10 355 -10 265 -10 c 0,14,15
 136 -10 136 -10 65.5 39.5 c 128,-1,16
 -5 89 -5 89 7 178 c 0,17,18
 15 238 15 238 57 279 c 128,-1,19
 99 320 99 320 163 345 c 1,20,21
 161 346 161 346 134.5 361.5 c 128,-1,22
 108 377 108 377 87 418 c 128,-1,23
 66 459 66 459 73 510 c 0,24,25
 82 571 82 571 122 622 c 128,-1,26
 162 673 162 673 227 703 c 128,-1,27
 292 733 292 733 374 733 c 0,28,0
 450 733 450 733 506.5 707 c 128,-1,1
277.5 595 m 128,-1,30
 242 570 242 570 237 531 c 0,31,32
 229 473 229 473 294 453 c 2,33,-1
 366 430 l 2,34,35
 369 429 369 429 375 429 c 0,36,37
 393 429 393 429 414 444 c 128,-1,38
 435 459 435 459 450 482.5 c 128,-1,39
 465 506 465 506 468 528 c 0,40,41
 474 568 474 568 445 594 c 128,-1,42
 416 620 416 620 361 620 c 0,43,29
 313 620 313 620 277.5 595 c 128,-1,30
385.5 127.5 m 128,-1,45
 422 151 422 151 428 192 c 0,46,47
 432 222 432 222 417 243 c 128,-1,48
 402 264 402 264 361 277 c 2,49,-1
 274 304 l 2,50,51
 266 306 266 306 261 306 c 0,52,53
 242 306 242 306 218.5 292 c 128,-1,54
 195 278 195 278 178 255 c 128,-1,55
 161 232 161 232 157 204 c 0,56,57
 150 156 150 156 183 130 c 128,-1,58
 216 104 216 104 291 104 c 0,59,44
 349 104 349 104 385.5 127.5 c 128,-1,45
EndSplineSet
Substitution2: "'onum' Oldstyle Figures in Latin lookup 24 subtable" eight.osf
Substitution2: "'tnum' Tabular Numbers in Latin lookup 23 subtable" eight.tf
Substitution2: "'frac' Diagonal Fractions in Latin lookup 17 subtable" eight.numr
Substitution2: "'dnom' Denominators in Latin lookup 15 subtable" eight.dnom
Substitution2: "'numr' Numerators in Latin lookup 14 subtable" eight.numr
Substitution2: "'sups' Superscript in Latin lookup 13 subtable" uni2078
Substitution2: "'sinf' Scientific Inferiors in Latin lookup 12 subtable" eight.subs
Substitution2: "'subs' Subscript in Latin lookup 11 subtable" eight.subs
AlternateSubs2: "'aalt' Access All Alternates in Latin lookup 1 subtable" eight.subs uni2078 eight.numr eight.dnom eight.tf eight.osf
EndChar

StartChar: nine
Encoding: 57 57 28
Width: 647
GlyphClass: 2
Flags: W
LayerCount: 2
Fore
SplineSet
132.5 15.5 m 128,-1,1
 79 40 79 40 49.5 84 c 128,-1,2
 20 128 20 128 23 184 c 1,3,-1
 163 193 l 1,4,5
 179 110 179 110 263 110 c 0,6,7
 339 110 339 110 390.5 161 c 128,-1,8
 442 212 442 212 457 319 c 0,9,10
 460 343 460 343 461 356 c 1,11,12
 434 317 434 317 387 295.5 c 128,-1,13
 340 274 340 274 280 274 c 0,14,15
 206 274 206 274 153 302.5 c 128,-1,16
 100 331 100 331 75 381.5 c 128,-1,17
 50 432 50 432 59 497 c 0,18,19
 69 565 69 565 111.5 618.5 c 128,-1,20
 154 672 154 672 221.5 702 c 128,-1,21
 289 732 289 732 368 732 c 0,22,23
 461 732 461 732 522.5 689 c 128,-1,24
 584 646 584 646 608.5 566 c 128,-1,25
 633 486 633 486 618 377 c 0,26,27
 591 185 591 185 495.5 88 c 128,-1,28
 400 -9 400 -9 254 -9 c 0,29,0
 186 -9 186 -9 132.5 15.5 c 128,-1,1
384 405.5 m 128,-1,31
 415 418 415 418 435.5 437.5 c 128,-1,32
 456 457 456 457 459 477 c 0,33,34
 463 547 463 547 436 583 c 128,-1,35
 409 619 409 619 357 619 c 0,36,37
 307 619 307 619 269.5 587 c 128,-1,38
 232 555 232 555 225 504 c 0,39,40
 218 455 218 455 245.5 424 c 128,-1,41
 273 393 273 393 322 393 c 0,42,30
 353 393 353 393 384 405.5 c 128,-1,31
EndSplineSet
Substitution2: "'onum' Oldstyle Figures in Latin lookup 24 subtable" nine.osf
Substitution2: "'tnum' Tabular Numbers in Latin lookup 23 subtable" nine.tf
Substitution2: "'frac' Diagonal Fractions in Latin lookup 17 subtable" nine.numr
Substitution2: "'dnom' Denominators in Latin lookup 15 subtable" nine.dnom
Substitution2: "'numr' Numerators in Latin lookup 14 subtable" nine.numr
Substitution2: "'sups' Superscript in Latin lookup 13 subtable" uni2079
Substitution2: "'sinf' Scientific Inferiors in Latin lookup 12 subtable" nine.subs
Substitution2: "'subs' Subscript in Latin lookup 11 subtable" nine.subs
AlternateSubs2: "'aalt' Access All Alternates in Latin lookup 1 subtable" nine.subs uni2079 nine.numr nine.dnom nine.tf nine.osf
EndChar

StartChar: colon
Encoding: 58 58 29
Width: 270
GlyphClass: 2
Flags: W
LayerCount: 2
Fore
SplineSet
214 345 m 1,0,-1
 49 345 l 1,1,-1
 72 505 l 1,2,-1
 237 505 l 1,3,-1
 214 345 l 1,0,-1
166 3 m 1,4,-1
 1 3 l 1,5,-1
 24 163 l 1,6,-1
 189 163 l 1,7,-1
 166 3 l 1,4,-1
EndSplineSet
EndChar

StartChar: semicolon
Encoding: 59 59 30
Width: 279
GlyphClass: 2
Flags: W
LayerCount: 2
Fore
SplineSet
73 503 m 1,0,-1
 237 503 l 1,1,-1
 214 340 l 1,2,-1
 50 340 l 1,3,-1
 73 503 l 1,0,-1
61 0 m 1,4,-1
 3 0 l 1,5,-1
 25 160 l 1,6,-1
 190 160 l 1,7,-1
 171 18 l 1,8,-1
 34 -155 l 1,9,-1
 -27 -155 l 1,10,-1
 61 0 l 1,4,-1
EndSplineSet
EndChar

StartChar: less
Encoding: 60 60 31
Width: 584
GlyphClass: 2
Flags: W
LayerCount: 2
Fore
SplineSet
479 101 m 1,0,-1
 40 280 l 1,1,-1
 58 405 l 1,2,-1
 548 586 l 1,3,-1
 530 457 l 1,4,-1
 214 342 l 1,5,-1
 497 230 l 1,6,-1
 479 101 l 1,0,-1
EndSplineSet
EndChar

StartChar: equal
Encoding: 61 61 32
Width: 586
GlyphClass: 2
Flags: W
LayerCount: 2
Fore
SplineSet
539 404 m 1,0,-1
 63 404 l 1,1,-1
 78 514 l 1,2,-1
 554 514 l 1,3,-1
 539 404 l 1,0,-1
507 175 m 1,4,-1
 31 175 l 1,5,-1
 46 284 l 1,6,-1
 522 284 l 1,7,-1
 507 175 l 1,4,-1
EndSplineSet
EndChar

StartChar: greater
Encoding: 62 62 33
Width: 584
GlyphClass: 2
Flags: W
LayerCount: 2
Fore
SplineSet
366 342 m 1,0,-1
 82 457 l 1,1,-1
 100 586 l 1,2,-1
 540 405 l 1,3,-1
 522 280 l 1,4,-1
 32 101 l 1,5,-1
 50 230 l 1,6,-1
 366 342 l 1,0,-1
EndSplineSet
EndChar

StartChar: question
Encoding: 63 63 34
Width: 531
GlyphClass: 2
Flags: W
LayerCount: 2
Fore
SplineSet
157 690 m 128,-1,1
 229 733 229 733 321 733 c 0,2,3
 391 733 391 733 443 710.5 c 128,-1,4
 495 688 495 688 519.5 649 c 128,-1,5
 544 610 544 610 537 563 c 0,6,7
 532 525 532 525 514 494.5 c 128,-1,8
 496 464 496 464 473.5 442 c 128,-1,9
 451 420 451 420 414 390 c 0,10,11
 361 347 361 347 332.5 313 c 128,-1,12
 304 279 304 279 297 229 c 1,13,-1
 176 229 l 1,14,15
 183 278 183 278 203 317 c 128,-1,16
 223 356 223 356 247 383 c 128,-1,17
 271 410 271 410 306 443 c 0,18,19
 344 479 344 479 363 502.5 c 128,-1,20
 382 526 382 526 386 555 c 0,21,22
 391 589 391 589 368.5 609.5 c 128,-1,23
 346 630 346 630 306 630 c 128,-1,24
 266 630 266 630 226.5 604.5 c 128,-1,25
 187 579 187 579 165 537 c 1,26,-1
 42 567 l 1,27,0
 85 647 85 647 157 690 c 128,-1,1
287 0 m 1,28,-1
 122 0 l 1,29,-1
 144 160 l 1,30,-1
 309 160 l 1,31,-1
 287 0 l 1,28,-1
EndSplineSet
EndChar

StartChar: at
Encoding: 64 64 35
Width: 830
GlyphClass: 2
Flags: W
LayerCount: 2
Fore
SplineSet
505.5 -88.5 m 128,-1,1
 439 -110 439 -110 364 -110 c 0,2,3
 247 -110 247 -110 167 -61.5 c 128,-1,4
 87 -13 87 -13 53 70.5 c 128,-1,5
 19 154 19 154 33 255 c 0,6,7
 48 361 48 361 110 450 c 128,-1,8
 172 539 172 539 271 591.5 c 128,-1,9
 370 644 370 644 489 644 c 0,10,11
 582 644 582 644 657 610.5 c 128,-1,12
 732 577 732 577 771.5 506.5 c 128,-1,13
 811 436 811 436 797 331 c 0,14,15
 787 257 787 257 754 200 c 128,-1,16
 721 143 721 143 672.5 111 c 128,-1,17
 624 79 624 79 568 79 c 0,18,19
 529 79 529 79 508.5 92 c 128,-1,20
 488 105 488 105 481 125 c 0,21,22
 479 131 479 131 475 131 c 0,23,24
 472 131 472 131 468 125 c 0,25,26
 441 97 441 97 405.5 81 c 128,-1,27
 370 65 370 65 330 65 c 0,28,29
 288 65 288 65 257 86.5 c 128,-1,30
 226 108 226 108 212 147.5 c 128,-1,31
 198 187 198 187 205 238 c 0,32,33
 213 298 213 298 245.5 349.5 c 128,-1,34
 278 401 278 401 327.5 432 c 128,-1,35
 377 463 377 463 435 463 c 0,36,37
 472 463 472 463 494.5 450 c 128,-1,38
 517 437 517 437 533 414 c 0,39,40
 535 411 535 411 537.5 412 c 128,-1,41
 540 413 540 413 542 418 c 2,42,-1
 550 438 l 1,43,-1
 636 438 l 1,44,-1
 569 223 l 2,45,46
 566 214 566 214 564 200 c 0,47,48
 559 163 559 163 591 163 c 0,49,50
 614 163 614 163 638 181.5 c 128,-1,51
 662 200 662 200 680.5 237 c 128,-1,52
 699 274 699 274 706 325 c 0,53,54
 723 449 723 449 656 505.5 c 128,-1,55
 589 562 589 562 476 562 c 0,56,57
 374 562 374 562 298.5 521 c 128,-1,58
 223 480 223 480 180 411 c 128,-1,59
 137 342 137 342 125 256 c 0,60,61
 112 166 112 166 140 101 c 128,-1,62
 168 36 168 36 231.5 1.5 c 128,-1,63
 295 -33 295 -33 389 -33 c 0,64,65
 451 -33 451 -33 489.5 -19 c 128,-1,66
 528 -5 528 -5 579 26 c 1,67,-1
 616 -34 l 1,68,0
 572 -67 572 -67 505.5 -88.5 c 128,-1,1
321.5 181.5 m 128,-1,70
 336 155 336 155 369 155 c 0,71,72
 398 155 398 155 424.5 173.5 c 128,-1,73
 451 192 451 192 468.5 221.5 c 128,-1,74
 486 251 486 251 491 283 c 0,75,76
 497 323 497 323 479.5 348 c 128,-1,77
 462 373 462 373 430 373 c 0,78,79
 389 373 389 373 354.5 336.5 c 128,-1,80
 320 300 320 300 313 248 c 0,81,69
 307 208 307 208 321.5 181.5 c 128,-1,70
EndSplineSet
EndChar

StartChar: A
Encoding: 65 65 36
Width: 713
GlyphClass: 2
Flags: W
AnchorPoint: "Anchor-5" -46 0 basechar 0
AnchorPoint: "Anchor-4" -46 0 basechar 0
AnchorPoint: "Anchor-3" 321 723 basechar 0
AnchorPoint: "Anchor-2" 647 10 basechar 0
LayerCount: 2
Fore
SplineSet
334 723 m 1,0,-1
 492 723 l 1,1,-1
 648 0 l 1,2,-1
 498 0 l 1,3,-1
 463 165 l 1,4,-1
 206 165 l 1,5,-1
 124 0 l 1,6,-1
 -27 0 l 1,7,-1
 334 723 l 1,0,-1
447 296 m 1,8,-1
 392 578 l 1,9,-1
 259 296 l 1,10,-1
 447 296 l 1,8,-1
EndSplineSet
Substitution2: "Single Substitution lookup 30 subtable" ordfeminine
Substitution2: "'aalt' Access All Alternates in Latin lookup 0 subtable" ordfeminine
EndChar

StartChar: B
Encoding: 66 66 37
Width: 685
GlyphClass: 2
Flags: W
LayerCount: 2
Fore
SplineSet
133 723 m 1,0,-1
 398 723 l 2,1,2
 678 723 678 723 651 533 c 0,3,4
 643 478 643 478 609.5 439 c 128,-1,5
 576 400 576 400 504 371 c 1,6,7
 583 349 583 349 606.5 302.5 c 128,-1,8
 630 256 630 256 622 196 c 0,9,10
 608 96 608 96 532 48 c 128,-1,11
 456 0 456 0 308 0 c 2,12,-1
 31 0 l 1,13,-1
 133 723 l 1,0,-1
379 426 m 2,14,15
 427 426 427 426 462 448.5 c 128,-1,16
 497 471 497 471 503 514 c 0,17,18
 509 558 509 558 479 582.5 c 128,-1,19
 449 607 449 607 395 607 c 2,20,-1
 267 607 l 1,21,-1
 242 426 l 1,22,-1
 379 426 l 2,14,15
328 116 m 2,23,24
 390 116 390 116 426.5 141.5 c 128,-1,25
 463 167 463 167 470 211 c 0,26,27
 476 256 476 256 446 281 c 128,-1,28
 416 306 416 306 362 306 c 2,29,-1
 225 306 l 1,30,-1
 198 116 l 1,31,-1
 328 116 l 2,23,24
EndSplineSet
EndChar

StartChar: C
Encoding: 67 67 38
Width: 711
GlyphClass: 2
Flags: W
AnchorPoint: "Anchor-5" -46 0 basechar 0
AnchorPoint: "Anchor-4" 327 0 basechar 0
AnchorPoint: "Anchor-3" 327 723 basechar 0
AnchorPoint: "Anchor-2" -46 0 basechar 0
LayerCount: 2
Fore
SplineSet
569.5 701.5 m 128,-1,1
 630 670 630 670 662 614 c 128,-1,2
 694 558 694 558 691 487 c 1,3,-1
 533 485 l 1,4,5
 530 543 530 543 498.5 576 c 128,-1,6
 467 609 467 609 406 609 c 0,7,8
 248 609 248 609 213 365 c 0,9,10
 195 238 195 238 228.5 176 c 128,-1,11
 262 114 262 114 339 114 c 0,12,13
 394 114 394 114 436.5 150.5 c 128,-1,14
 479 187 479 187 499 246 c 1,15,-1
 656 243 l 1,16,17
 625 129 625 129 545.5 59.5 c 128,-1,18
 466 -10 466 -10 326 -10 c 0,19,20
 226 -10 226 -10 158 37.5 c 128,-1,21
 90 85 90 85 61.5 170.5 c 128,-1,22
 33 256 33 256 49 368 c 0,23,24
 65 479 65 479 116 561.5 c 128,-1,25
 167 644 167 644 247 688.5 c 128,-1,26
 327 733 327 733 428 733 c 0,27,0
 509 733 509 733 569.5 701.5 c 128,-1,1
EndSplineSet
EndChar

StartChar: D
Encoding: 68 68 39
Width: 715
GlyphClass: 2
Flags: W
AnchorPoint: "Anchor-5" -46 0 basechar 0
AnchorPoint: "Anchor-4" -46 0 basechar 0
AnchorPoint: "Anchor-3" 310 723 basechar 0
AnchorPoint: "Anchor-2" -46 0 basechar 0
LayerCount: 2
Fore
SplineSet
353 722 m 0,0,1
 544 717 544 717 623 624.5 c 128,-1,2
 702 532 702 532 678 365 c 0,3,4
 654 192 654 192 545.5 96 c 128,-1,5
 437 0 437 0 247 0 c 2,6,-1
 31 0 l 1,7,-1
 133 723 l 1,8,9
 291 723 291 723 353 722 c 0,0,1
200 122 m 1,10,-1
 268 122 l 2,11,12
 365 122 365 122 434 181 c 128,-1,13
 503 240 503 240 520 366 c 0,14,15
 537 487 537 487 489 544.5 c 128,-1,16
 441 602 441 602 337 602 c 2,17,-1
 268 602 l 1,18,-1
 200 122 l 1,10,-1
EndSplineSet
EndChar

StartChar: E
Encoding: 69 69 40
Width: 639
GlyphClass: 2
Flags: W
AnchorPoint: "Anchor-5" -46 0 basechar 0
AnchorPoint: "Anchor-4" 291 0 basechar 0
AnchorPoint: "Anchor-3" 285 723 basechar 0
AnchorPoint: "Anchor-2" 533 10 basechar 0
LayerCount: 2
Fore
SplineSet
133 723 m 1,0,-1
 634 723 l 1,1,-1
 615 596 l 1,2,-1
 267 596 l 1,3,-1
 243 426 l 1,4,-1
 544 426 l 1,5,-1
 526 302 l 1,6,-1
 224 302 l 1,7,-1
 200 128 l 1,8,-1
 554 128 l 1,9,-1
 536 0 l 1,10,-1
 31 0 l 1,11,-1
 133 723 l 1,0,-1
EndSplineSet
EndChar

StartChar: F
Encoding: 70 70 41
Width: 605
GlyphClass: 2
Flags: W
LayerCount: 2
Fore
SplineSet
629 723 m 1,0,-1
 610 597 l 1,1,-1
 267 597 l 1,2,-1
 242 421 l 1,3,-1
 539 421 l 1,4,-1
 522 298 l 1,5,-1
 225 298 l 1,6,-1
 183 0 l 1,7,-1
 31 0 l 1,8,-1
 133 723 l 1,9,-1
 629 723 l 1,0,-1
EndSplineSet
EndChar

StartChar: G
Encoding: 71 71 42
Width: 754
GlyphClass: 2
Flags: W
AnchorPoint: "Anchor-5" -46 0 basechar 0
AnchorPoint: "Anchor-4" 327 0 basechar 0
AnchorPoint: "Anchor-3" 325 723 basechar 0
AnchorPoint: "Anchor-2" -46 0 basechar 0
LayerCount: 2
Fore
SplineSet
157.5 36 m 128,-1,1
 90 82 90 82 61 165.5 c 128,-1,2
 32 249 32 249 47 359 c 0,3,4
 63 472 63 472 117 556.5 c 128,-1,5
 171 641 171 641 253.5 687 c 128,-1,6
 336 733 336 733 435 733 c 0,7,8
 519 733 519 733 581 699 c 128,-1,9
 643 665 643 665 674 608.5 c 128,-1,10
 705 552 705 552 698 488 c 1,11,-1
 539 485 l 1,12,13
 535 538 535 538 502.5 572 c 128,-1,14
 470 606 470 606 414 606 c 0,15,16
 338 606 338 606 283.5 546.5 c 128,-1,17
 229 487 229 487 212 365 c 0,18,19
 194 235 194 235 234.5 178.5 c 128,-1,20
 275 122 275 122 352 122 c 0,21,22
 391 122 391 122 423.5 139 c 128,-1,23
 456 156 456 156 477 181.5 c 128,-1,24
 498 207 498 207 506 233 c 2,25,-1
 519 276 l 1,26,-1
 371 276 l 1,27,-1
 385 380 l 1,28,-1
 691 378 l 1,29,-1
 638 0 l 1,30,-1
 535 0 l 1,31,-1
 548 93 l 1,32,33
 507 47 507 47 454.5 18.5 c 128,-1,34
 402 -10 402 -10 323 -10 c 0,35,0
 225 -10 225 -10 157.5 36 c 128,-1,1
EndSplineSet
EndChar

StartChar: H
Encoding: 72 72 43
Width: 727
GlyphClass: 2
Flags: W
AnchorPoint: "Anchor-5" -46 0 basechar 0
AnchorPoint: "Anchor-4" 314 0 basechar 0
AnchorPoint: "Anchor-3" 315 723 basechar 0
AnchorPoint: "Anchor-2" -46 0 basechar 0
LayerCount: 2
Fore
SplineSet
225 309 m 1,0,-1
 182 0 l 1,1,-1
 31 0 l 1,2,-1
 133 723 l 1,3,-1
 284 723 l 1,4,-1
 243 434 l 1,5,-1
 513 434 l 1,6,-1
 554 723 l 1,7,-1
 705 723 l 1,8,-1
 603 0 l 1,9,-1
 452 0 l 1,10,-1
 495 309 l 1,11,-1
 225 309 l 1,0,-1
EndSplineSet
EndChar

StartChar: I
Encoding: 73 73 44
Width: 306
GlyphClass: 2
Flags: W
AnchorPoint: "Anchor-5" -46 0 basechar 0
AnchorPoint: "Anchor-4" 115 0 basechar 0
AnchorPoint: "Anchor-3" 108 723 basechar 0
AnchorPoint: "Anchor-2" 163 5 basechar 0
LayerCount: 2
Fore
SplineSet
284 723 m 1,0,-1
 182 0 l 1,1,-1
 31 0 l 1,2,-1
 133 723 l 1,3,-1
 284 723 l 1,0,-1
EndSplineSet
EndChar

StartChar: J
Encoding: 74 74 45
Width: 413
GlyphClass: 2
Flags: W
AnchorPoint: "Anchor-5" -46 0 basechar 0
AnchorPoint: "Anchor-4" -46 0 basechar 0
AnchorPoint: "Anchor-3" 179 723 basechar 0
AnchorPoint: "Anchor-2" -46 0 basechar 0
LayerCount: 2
Fore
SplineSet
284.5 83 m 128,-1,1
 262 37 262 37 218 13.5 c 128,-1,2
 174 -10 174 -10 100 -10 c 0,3,4
 68 -10 68 -10 32 -5 c 128,-1,5
 -4 0 -4 0 -23 5 c 1,6,-1
 -1 143 l 1,7,8
 6 142 6 142 26.5 136.5 c 128,-1,9
 47 131 47 131 70 131 c 0,10,11
 120 131 120 131 142 156.5 c 128,-1,12
 164 182 164 182 172 244 c 2,13,-1
 240 723 l 1,14,-1
 391 723 l 1,15,-1
 318 204 l 2,16,0
 307 129 307 129 284.5 83 c 128,-1,1
EndSplineSet
EndChar

StartChar: K
Encoding: 75 75 46
Width: 716
GlyphClass: 2
Flags: W
AnchorPoint: "Anchor-5" -46 0 basechar 0
AnchorPoint: "Anchor-4" 303 0 basechar 0
AnchorPoint: "Anchor-3" 312 723 basechar 0
AnchorPoint: "Anchor-2" -46 0 basechar 0
LayerCount: 2
Fore
SplineSet
482 0 m 1,0,-1
 340 334 l 1,1,-1
 217 206 l 1,2,-1
 188 0 l 1,3,-1
 31 0 l 1,4,-1
 133 723 l 1,5,-1
 290 723 l 1,6,-1
 244 396 l 1,7,-1
 548 723 l 1,8,-1
 721 723 l 1,9,-1
 464 444 l 1,10,-1
 646 0 l 1,11,-1
 482 0 l 1,0,-1
EndSplineSet
EndChar

StartChar: L
Encoding: 76 76 47
Width: 566
GlyphClass: 2
Flags: W
AnchorPoint: "Anchor-5" 418 723 basechar 0
AnchorPoint: "Anchor-4" 259 0 basechar 0
AnchorPoint: "Anchor-3" 101 723 basechar 0
AnchorPoint: "Anchor-2" -46 0 basechar 0
LayerCount: 2
Fore
SplineSet
285 723 m 1,0,-1
 201 127 l 1,1,-1
 513 127 l 1,2,-1
 495 0 l 1,3,-1
 31 0 l 1,4,-1
 133 723 l 1,5,-1
 285 723 l 1,0,-1
EndSplineSet
EndChar

StartChar: M
Encoding: 77 77 48
Width: 917
GlyphClass: 2
Flags: W
LayerCount: 2
Fore
SplineSet
133 723 m 1,0,-1
 353 723 l 1,1,-1
 442 215 l 1,2,-1
 676 723 l 1,3,-1
 895 723 l 1,4,-1
 793 0 l 1,5,-1
 641 0 l 1,6,-1
 718 550 l 1,7,-1
 470 0 l 1,8,-1
 353 0 l 1,9,-1
 260 548 l 1,10,-1
 183 0 l 1,11,-1
 31 0 l 1,12,-1
 133 723 l 1,0,-1
EndSplineSet
EndChar

StartChar: N
Encoding: 78 78 49
Width: 781
GlyphClass: 2
Flags: W
AnchorPoint: "Anchor-5" -46 0 basechar 0
AnchorPoint: "Anchor-4" 337 0 basechar 0
AnchorPoint: "Anchor-3" 348 723 basechar 0
AnchorPoint: "Anchor-2" -46 0 basechar 0
LayerCount: 2
Fore
SplineSet
759 723 m 1,0,-1
 657 0 l 1,1,-1
 521 0 l 1,2,-1
 251 491 l 1,3,-1
 182 0 l 1,4,-1
 31 0 l 1,5,-1
 133 723 l 1,6,-1
 283 723 l 1,7,-1
 541 252 l 1,8,-1
 608 723 l 1,9,-1
 759 723 l 1,0,-1
EndSplineSet
EndChar

StartChar: O
Encoding: 79 79 50
Width: 754
GlyphClass: 2
Flags: W
AnchorPoint: "Anchor-5" -46 0 basechar 0
AnchorPoint: "Anchor-4" 333 0 basechar 0
AnchorPoint: "Anchor-3" 332 723 basechar 0
AnchorPoint: "Anchor-2" 416 10 basechar 0
LayerCount: 2
Fore
SplineSet
158.5 34.5 m 128,-1,1
 89 79 89 79 60 162 c 128,-1,2
 31 245 31 245 47 359 c 0,3,4
 63 474 63 474 116.5 558.5 c 128,-1,5
 170 643 170 643 252 688 c 128,-1,6
 334 733 334 733 435 733 c 0,7,8
 535 733 535 733 604 688 c 128,-1,9
 673 643 673 643 702.5 558.5 c 128,-1,10
 732 474 732 474 716 360 c 0,11,12
 700 247 700 247 647.5 163.5 c 128,-1,13
 595 80 595 80 513.5 35 c 128,-1,14
 432 -10 432 -10 331 -10 c 0,15,0
 228 -10 228 -10 158.5 34.5 c 128,-1,1
551 358 m 0,16,17
 569 487 569 487 534 548 c 128,-1,18
 499 609 499 609 418 609 c 128,-1,19
 337 609 337 609 283.5 548 c 128,-1,20
 230 487 230 487 212 358 c 0,21,22
 194 232 194 232 230.5 173 c 128,-1,23
 267 114 267 114 348 114 c 0,24,25
 517 114 517 114 551 358 c 0,16,17
EndSplineSet
Substitution2: "Single Substitution lookup 30 subtable" ordmasculine
Substitution2: "'aalt' Access All Alternates in Latin lookup 0 subtable" ordmasculine
EndChar

StartChar: P
Encoding: 80 80 51
Width: 651
GlyphClass: 2
Flags: W
LayerCount: 2
Fore
SplineSet
133 723 m 1,0,-1
 401 723 l 2,1,2
 481 723 481 723 540 696.5 c 128,-1,3
 599 670 599 670 627.5 617.5 c 128,-1,4
 656 565 656 565 646 491 c 0,5,6
 631 385 631 385 553.5 326.5 c 128,-1,7
 476 268 476 268 357 268 c 2,8,-1
 221 268 l 1,9,-1
 183 0 l 1,10,-1
 31 0 l 1,11,-1
 133 723 l 1,0,-1
369 384 m 2,12,13
 422 384 422 384 460.5 416 c 128,-1,14
 499 448 499 448 506 499 c 0,15,16
 513 549 513 549 482 578.5 c 128,-1,17
 451 608 451 608 398 608 c 2,18,-1
 267 608 l 1,19,-1
 236 384 l 1,20,-1
 369 384 l 2,12,13
EndSplineSet
EndChar

StartChar: Q
Encoding: 81 81 52
Width: 760
GlyphClass: 2
Flags: W
LayerCount: 2
Fore
SplineSet
109 558.5 m 128,-1,1
 162 643 162 643 244 688 c 128,-1,2
 326 733 326 733 427 733 c 128,-1,3
 528 733 528 733 597 688 c 128,-1,4
 666 643 666 643 695.5 558.5 c 128,-1,5
 725 474 725 474 709 360 c 0,6,7
 681 163 681 163 548 63 c 1,8,9
 555 34 555 34 584.5 16 c 128,-1,10
 614 -2 614 -2 655 -3 c 1,11,-1
 638 -123 l 1,12,13
 583 -123 583 -123 543.5 -114.5 c 128,-1,14
 504 -106 504 -106 469 -80 c 128,-1,15
 434 -54 434 -54 406 -3 c 1,16,17
 357 -10 357 -10 323 -10 c 0,18,19
 221 -10 221 -10 151.5 34.5 c 128,-1,20
 82 79 82 79 53 162.5 c 128,-1,21
 24 246 24 246 40 360 c 128,-1,0
 56 474 56 474 109 558.5 c 128,-1,1
221.5 172.5 m 128,-1,23
 257 114 257 114 340 114 c 128,-1,24
 423 114 423 114 474 172.5 c 128,-1,25
 525 231 525 231 543 359 c 0,26,27
 578 609 578 609 410 609 c 0,28,29
 240 609 240 609 204 358 c 0,30,22
 186 231 186 231 221.5 172.5 c 128,-1,23
EndSplineSet
EndChar

StartChar: R
Encoding: 82 82 53
Width: 696
GlyphClass: 2
Flags: W
AnchorPoint: "Anchor-5" -46 0 basechar 0
AnchorPoint: "Anchor-4" 302 0 basechar 0
AnchorPoint: "Anchor-3" 293 723 basechar 0
AnchorPoint: "Anchor-2" -46 0 basechar 0
LayerCount: 2
Fore
SplineSet
440 0 m 1,0,-1
 363 276 l 1,1,-1
 221 276 l 1,2,-1
 182 0 l 1,3,-1
 31 0 l 1,4,-1
 133 723 l 1,5,-1
 441 723 l 2,6,7
 567 723 567 723 620.5 664.5 c 128,-1,8
 674 606 674 606 660 505 c 0,9,10
 649 426 649 426 608 378 c 128,-1,11
 567 330 567 330 505 301 c 1,12,-1
 596 0 l 1,13,-1
 440 0 l 1,0,-1
462 422 m 128,-1,15
 500 453 500 453 507 502 c 0,16,17
 514 550 514 550 485.5 579 c 128,-1,18
 457 608 457 608 407 608 c 2,19,-1
 267 608 l 1,20,-1
 237 391 l 1,21,-1
 368 391 l 2,22,14
 424 391 424 391 462 422 c 128,-1,15
EndSplineSet
EndChar

StartChar: S
Encoding: 83 83 54
Width: 696
GlyphClass: 2
Flags: W
AnchorPoint: "Anchor-5" -46 0 basechar 0
AnchorPoint: "Anchor-4" 302 0 basechar 0
AnchorPoint: "Anchor-3" 304 723 basechar 0
AnchorPoint: "Anchor-2" -46 0 basechar 0
LayerCount: 2
Fore
SplineSet
165 14 m 128,-1,1
 100 38 100 38 61.5 86.5 c 128,-1,2
 23 135 23 135 26 205 c 1,3,-1
 183 208 l 1,4,5
 186 160 186 160 224 134 c 128,-1,6
 262 108 262 108 322 108 c 0,7,8
 385 108 385 108 429.5 130.5 c 128,-1,9
 474 153 474 153 480 197 c 0,10,11
 485 234 485 234 455.5 253.5 c 128,-1,12
 426 273 426 273 368 285 c 2,13,-1
 246 310 l 2,14,15
 162 325 162 325 120 376.5 c 128,-1,16
 78 428 78 428 90 512 c 0,17,18
 99 578 99 578 143.5 628 c 128,-1,19
 188 678 188 678 257.5 705 c 128,-1,20
 327 732 327 732 407 732 c 0,21,22
 491 732 491 732 551.5 702 c 128,-1,23
 612 672 612 672 643 622 c 128,-1,24
 674 572 674 572 672 514 c 1,25,-1
 519 512 l 1,26,27
 519 613 519 613 392 613 c 0,28,29
 334 613 334 613 296.5 589 c 128,-1,30
 259 565 259 565 254 527 c 0,31,32
 250 495 250 495 268.5 475.5 c 128,-1,33
 287 456 287 456 341 444 c 2,34,-1
 463 419 l 2,35,36
 582 396 582 396 614.5 335 c 128,-1,37
 647 274 647 274 636 197 c 0,38,39
 628 139 628 139 583 91.5 c 128,-1,40
 538 44 538 44 466 17 c 128,-1,41
 394 -10 394 -10 306 -10 c 0,42,0
 230 -10 230 -10 165 14 c 128,-1,1
EndSplineSet
EndChar

StartChar: T
Encoding: 84 84 55
Width: 607
GlyphClass: 2
Flags: W
AnchorPoint: "Anchor-5" -46 0 basechar 0
AnchorPoint: "Anchor-4" 267 0 basechar 0
AnchorPoint: "Anchor-3" 267 723 basechar 0
AnchorPoint: "Anchor-2" -46 0 basechar 0
LayerCount: 2
Fore
SplineSet
69 723 m 1,0,-1
 650 723 l 1,1,-1
 631 589 l 1,2,-1
 418 589 l 1,3,-1
 335 0 l 1,4,-1
 184 0 l 1,5,-1
 267 589 l 1,6,-1
 50 589 l 1,7,-1
 69 723 l 1,0,-1
EndSplineSet
EndChar

StartChar: U
Encoding: 85 85 56
Width: 738
GlyphClass: 2
Flags: W
AnchorPoint: "Anchor-5" -46 0 basechar 0
AnchorPoint: "Anchor-4" -46 0 basechar 0
AnchorPoint: "Anchor-3" 310 723 basechar 0
AnchorPoint: "Anchor-2" 399 11 basechar 0
LayerCount: 2
Fore
SplineSet
554.5 64.5 m 128,-1,1
 475 -10 475 -10 322 -10 c 0,2,3
 168 -10 168 -10 109.5 65 c 128,-1,4
 51 140 51 140 71 282 c 2,5,-1
 133 723 l 1,6,-1
 287 723 l 1,7,-1
 223 272 l 2,8,9
 212 194 212 194 244 156 c 128,-1,10
 276 118 276 118 340 118 c 0,11,12
 403 118 403 118 446 156 c 128,-1,13
 489 194 489 194 500 272 c 2,14,-1
 564 723 l 1,15,-1
 716 723 l 1,16,-1
 653 278 l 2,17,0
 634 139 634 139 554.5 64.5 c 128,-1,1
EndSplineSet
EndChar

StartChar: V
Encoding: 86 86 57
Width: 685
GlyphClass: 2
Flags: W
LayerCount: 2
Fore
SplineSet
381 0 m 1,0,-1
 211 0 l 1,1,-1
 65 723 l 1,2,-1
 209 723 l 1,3,-1
 321 175 l 1,4,-1
 588 723 l 1,5,-1
 732 723 l 1,6,-1
 381 0 l 1,0,-1
EndSplineSet
EndChar

StartChar: W
Encoding: 87 87 58
Width: 966
GlyphClass: 2
Flags: W
AnchorPoint: "Anchor-5" -46 0 basechar 0
AnchorPoint: "Anchor-4" -46 0 basechar 0
AnchorPoint: "Anchor-3" 439 723 basechar 0
AnchorPoint: "Anchor-2" -46 0 basechar 0
LayerCount: 2
Fore
SplineSet
690 0 m 1,0,-1
 570 0 l 1,1,-1
 502 465 l 1,2,-1
 302 0 l 1,3,-1
 185 0 l 1,4,-1
 73 723 l 1,5,-1
 220 723 l 1,6,-1
 287 255 l 1,7,-1
 484 723 l 1,8,-1
 593 723 l 1,9,-1
 661 255 l 1,10,-1
 858 723 l 1,11,-1
 1006 723 l 1,12,-1
 690 0 l 1,0,-1
EndSplineSet
EndChar

StartChar: X
Encoding: 88 88 59
Width: 701
GlyphClass: 2
Flags: W
LayerCount: 2
Fore
SplineSet
450 0 m 1,0,-1
 327 257 l 1,1,-1
 134 0 l 1,2,-1
 -29 0 l 1,3,-1
 263 367 l 1,4,-1
 80 723 l 1,5,-1
 268 723 l 1,6,-1
 375 494 l 1,7,-1
 548 723 l 1,8,-1
 709 723 l 1,9,-1
 439 387 l 1,10,-1
 639 0 l 1,11,-1
 450 0 l 1,0,-1
EndSplineSet
EndChar

StartChar: Y
Encoding: 89 89 60
Width: 662
GlyphClass: 2
Flags: W
AnchorPoint: "Anchor-5" -46 0 basechar 0
AnchorPoint: "Anchor-4" -46 0 basechar 0
AnchorPoint: "Anchor-3" 301 723 basechar 0
AnchorPoint: "Anchor-2" -46 0 basechar 0
LayerCount: 2
Fore
SplineSet
403 304 m 1,0,-1
 360 0 l 1,1,-1
 209 0 l 1,2,-1
 252 304 l 1,3,-1
 60 723 l 1,4,-1
 223 723 l 1,5,-1
 346 434 l 1,6,-1
 549 723 l 1,7,-1
 714 723 l 1,8,-1
 403 304 l 1,0,-1
EndSplineSet
EndChar

StartChar: Z
Encoding: 90 90 61
Width: 667
GlyphClass: 2
Flags: W
AnchorPoint: "Anchor-5" -46 0 basechar 0
AnchorPoint: "Anchor-4" 295 0 basechar 0
AnchorPoint: "Anchor-3" 309 723 basechar 0
AnchorPoint: "Anchor-2" -46 0 basechar 0
LayerCount: 2
Fore
SplineSet
9 73 m 1,0,-1
 448 597 l 1,1,-1
 109 597 l 1,2,-1
 127 723 l 1,3,-1
 681 723 l 1,4,-1
 671 653 l 1,5,-1
 227 127 l 1,6,-1
 593 127 l 1,7,-1
 575 0 l 1,8,-1
 -1 0 l 1,9,-1
 9 73 l 1,0,-1
EndSplineSet
EndChar

StartChar: bracketleft
Encoding: 91 91 62
Width: 333
GlyphClass: 2
Flags: W
LayerCount: 2
Fore
SplineSet
359 723 m 1,0,-1
 347 638 l 1,1,-1
 237 638 l 1,2,-1
 136 -76 l 1,3,-1
 245 -76 l 1,4,-1
 233 -161 l 1,5,-1
 1 -161 l 1,6,-1
 126 723 l 1,7,-1
 359 723 l 1,0,-1
EndSplineSet
EndChar

StartChar: backslash
Encoding: 92 92 63
Width: 378
GlyphClass: 2
Flags: W
LayerCount: 2
Fore
SplineSet
61 723 m 1,0,-1
 165 723 l 1,1,-1
 314 -17 l 1,2,-1
 209 -17 l 1,3,-1
 61 723 l 1,0,-1
EndSplineSet
EndChar

StartChar: bracketright
Encoding: 93 93 64
Width: 333
GlyphClass: 2
Flags: W
LayerCount: 2
Fore
SplineSet
1 -161 m 1,0,-1
 13 -76 l 1,1,-1
 123 -76 l 1,2,-1
 224 638 l 1,3,-1
 115 638 l 1,4,-1
 127 723 l 1,5,-1
 359 723 l 1,6,-1
 234 -161 l 1,7,-1
 1 -161 l 1,0,-1
EndSplineSet
EndChar

StartChar: asciicircum
Encoding: 94 94 65
Width: 481
GlyphClass: 2
Flags: W
LayerCount: 2
Fore
SplineSet
242 374 m 1,0,-1
 104 122 l 1,1,-1
 3 122 l 1,2,-1
 211 491 l 2,3,4
 220 508 220 508 234.5 517 c 128,-1,5
 249 526 249 526 264 526 c 128,-1,6
 279 526 279 526 290.5 517.5 c 128,-1,7
 302 509 302 509 306 492 c 2,8,-1
 410 122 l 1,9,-1
 309 122 l 1,10,-1
 242 374 l 1,0,-1
EndSplineSet
EndChar

StartChar: underscore
Encoding: 95 95 66
Width: 553
GlyphClass: 2
Flags: W
LayerCount: 2
Fore
SplineSet
425 -140 m 1,0,-1
 -12 -140 l 1,1,-1
 4 -31 l 1,2,-1
 441 -31 l 1,3,-1
 425 -140 l 1,0,-1
EndSplineSet
EndChar

StartChar: grave
Encoding: 96 96 67
Width: 315
GlyphClass: 2
Flags: W
LayerCount: 2
Fore
SplineSet
340 631 m 1,0,-1
 310 567 l 1,1,-1
 52 636 l 1,2,-1
 101 734 l 1,3,-1
 340 631 l 1,0,-1
EndSplineSet
EndChar

StartChar: a
Encoding: 97 97 68
Width: 609
GlyphClass: 2
Flags: W
LayerCount: 2
Fore
SplineSet
496 0 m 1,0,-1
 345 0 l 1,1,-1
 496 0 l 1,0,-1
345 0 m 1,2,-1
 352 49 l 1,3,4
 313 17 313 17 276 3.5 c 128,-1,5
 239 -10 239 -10 201 -10 c 0,6,7
 106 -10 106 -10 56 58.5 c 128,-1,8
 6 127 6 127 25 262 c 0,9,10
 37 349 37 349 73 408.5 c 128,-1,11
 109 468 109 468 160 497.5 c 128,-1,12
 211 527 211 527 269 527 c 0,13,14
 351 527 351 527 411 467 c 1,15,-1
 418 517 l 1,16,-1
 569 517 l 1,17,-1
 496 0 l 1,18,-1
 345 0 l 1,2,-1
328.5 124.5 m 128,-1,20
 357 158 357 158 376 218 c 1,21,-1
 386 290 l 2,22,23
 395 352 395 352 374 388.5 c 128,-1,24
 353 425 353 425 309 425 c 0,25,26
 262 425 262 425 225.5 384 c 128,-1,27
 189 343 189 343 178 264 c 128,-1,28
 167 185 167 185 191.5 138 c 128,-1,29
 216 91 216 91 264 91 c 0,30,19
 300 91 300 91 328.5 124.5 c 128,-1,20
EndSplineSet
Substitution2: "Single Substitution lookup 30 subtable" ordfeminine
Substitution2: "'aalt' Access All Alternates in Latin lookup 0 subtable" ordfeminine
EndChar

StartChar: b
Encoding: 98 98 69
Width: 608
GlyphClass: 2
Flags: W
LayerCount: 2
Fore
SplineSet
208 14 m 128,-1,1
 167 38 167 38 153 74 c 1,2,-1
 128 0 l 1,3,-1
 20 0 l 1,4,-1
 124 743 l 1,5,-1
 275 743 l 1,6,-1
 233 442 l 1,7,8
 260 479 260 479 304 503 c 128,-1,9
 348 527 348 527 397 527 c 0,10,11
 495 527 495 527 538 455 c 128,-1,12
 581 383 581 383 564 261 c 0,13,14
 546 135 546 135 478 62.5 c 128,-1,15
 410 -10 410 -10 304 -10 c 0,16,0
 249 -10 249 -10 208 14 c 128,-1,1
364.5 138 m 128,-1,18
 399 178 399 178 411 263 c 0,19,20
 433 418 433 418 330 418 c 0,21,22
 290 418 290 418 260 389.5 c 128,-1,23
 230 361 230 361 214 304 c 1,24,-1
 204 238 l 2,25,26
 195 172 195 172 217 135 c 128,-1,27
 239 98 239 98 281 98 c 0,28,17
 330 98 330 98 364.5 138 c 128,-1,18
EndSplineSet
EndChar

StartChar: c
Encoding: 99 99 70
Width: 536
GlyphClass: 2
Flags: W
AnchorPoint: "Anchor-5" -46 0 basechar 0
AnchorPoint: "Anchor-4" 238 0 basechar 0
AnchorPoint: "Anchor-3" 238 517 basechar 0
AnchorPoint: "Anchor-2" -46 0 basechar 0
LayerCount: 2
Fore
SplineSet
453 473 m 128,-1,1
 501 419 501 419 501 337 c 1,2,-1
 378 331 l 1,3,4
 366 371 366 371 350 392 c 128,-1,5
 334 413 334 413 299 413 c 0,6,7
 247 413 247 413 211 372 c 128,-1,8
 175 331 175 331 164 258 c 0,9,10
 154 184 154 184 179.5 140.5 c 128,-1,11
 205 97 205 97 257 97 c 0,12,13
 293 97 293 97 316.5 120.5 c 128,-1,14
 340 144 340 144 360 181 c 1,15,-1
 479 175 l 1,16,17
 458 95 458 95 393 42.5 c 128,-1,18
 328 -10 328 -10 238 -10 c 0,19,20
 166 -10 166 -10 113 23.5 c 128,-1,21
 60 57 60 57 36.5 117.5 c 128,-1,22
 13 178 13 178 24 256 c 0,23,24
 35 335 35 335 75.5 396.5 c 128,-1,25
 116 458 116 458 178 492.5 c 128,-1,26
 240 527 240 527 313 527 c 0,27,0
 405 527 405 527 453 473 c 128,-1,1
EndSplineSet
EndChar

StartChar: d
Encoding: 100 100 71
Width: 606
GlyphClass: 2
Flags: W
AnchorPoint: "Anchor-5" 537 575 basechar 0
AnchorPoint: "Anchor-4" 247 0 basechar 0
AnchorPoint: "Anchor-3" -46 0 basechar 0
AnchorPoint: "Anchor-2" -46 0 basechar 0
LayerCount: 2
Fore
SplineSet
55 61 m 128,-1,1
 7 132 7 132 24 258 c 0,2,3
 41 382 41 382 106.5 454.5 c 128,-1,4
 172 527 172 527 269 527 c 0,5,6
 313 527 313 527 349 510.5 c 128,-1,7
 385 494 385 494 407 459 c 1,8,-1
 446 743 l 1,9,-1
 597 743 l 1,10,-1
 493 0 l 1,11,-1
 384 0 l 1,12,-1
 383 71 l 1,13,14
 358 39 358 39 312 14.5 c 128,-1,15
 266 -10 266 -10 206 -10 c 0,16,0
 103 -10 103 -10 55 61 c 128,-1,1
332 131.5 m 128,-1,18
 365 165 365 165 373 218 c 2,19,-1
 387 321 l 1,20,21
 382 418 382 418 302 418 c 0,22,23
 253 418 253 418 218 380.5 c 128,-1,24
 183 343 183 343 172 261 c 0,25,26
 160 177 160 177 184 137.5 c 128,-1,27
 208 98 208 98 256 98 c 0,28,17
 299 98 299 98 332 131.5 c 128,-1,18
EndSplineSet
EndChar

StartChar: e
Encoding: 101 101 72
Width: 562
GlyphClass: 2
Flags: W
AnchorPoint: "Anchor-5" -46 0 basechar 0
AnchorPoint: "Anchor-4" 240 0 basechar 0
AnchorPoint: "Anchor-3" 240 517 basechar 0
AnchorPoint: "Anchor-2" 358 23 basechar 0
LayerCount: 2
Fore
SplineSet
184.5 132.5 m 128,-1,1
 209 99 209 99 259 99 c 0,2,3
 335 99 335 99 369 161 c 1,4,-1
 502 156 l 1,5,6
 485 106 485 106 445.5 68.5 c 128,-1,7
 406 31 406 31 354 10.5 c 128,-1,8
 302 -10 302 -10 247 -10 c 0,9,10
 170 -10 170 -10 115.5 22.5 c 128,-1,11
 61 55 61 55 36.5 114.5 c 128,-1,12
 12 174 12 174 24 253 c 0,13,14
 35 331 35 331 73.5 393 c 128,-1,15
 112 455 112 455 174.5 491 c 128,-1,16
 237 527 237 527 314 527 c 0,17,18
 430 527 430 527 482.5 455 c 128,-1,19
 535 383 535 383 518 264 c 2,20,-1
 512 224 l 1,21,-1
 168 224 l 1,22,0
 160 166 160 166 184.5 132.5 c 128,-1,1
385 313 m 1,23,24
 392 360 392 360 369.5 391 c 128,-1,25
 347 422 347 422 298 422 c 0,26,27
 252 422 252 422 219.5 389.5 c 128,-1,28
 187 357 187 357 181 313 c 1,29,-1
 385 313 l 1,23,24
EndSplineSet
EndChar

StartChar: f
Encoding: 102 102 73
Width: 404
GlyphClass: 2
Flags: W
LayerCount: 2
Fore
SplineSet
386 413 m 1,0,-1
 278 413 l 1,1,-1
 197 -161 l 1,2,-1
 46 -161 l 1,3,-1
 127 413 l 1,4,-1
 33 413 l 1,5,-1
 48 517 l 1,6,-1
 142 517 l 1,7,-1
 152 591 l 2,8,9
 161 653 161 653 203.5 688 c 128,-1,10
 246 723 246 723 314 723 c 2,11,-1
 434 723 l 1,12,-1
 421 623 l 1,13,-1
 354 623 l 2,14,15
 327 623 327 623 314.5 610 c 128,-1,16
 302 597 302 597 297 565 c 2,17,-1
 291 517 l 1,18,-1
 401 517 l 1,19,-1
 386 413 l 1,0,-1
EndSplineSet
EndChar

StartChar: g
Encoding: 103 103 74
Width: 632
GlyphClass: 2
Flags: W
AnchorPoint: "Anchor-5" -46 0 basechar 0
AnchorPoint: "Anchor-4" -46 0 basechar 0
AnchorPoint: "Anchor-3" 264 517 basechar 0
AnchorPoint: "Anchor-2" -46 0 basechar 0
LayerCount: 2
Fore
SplineSet
33 -136.5 m 128,-1,1
 -35 -102 -35 -102 -27 -45 c 0,2,3
 -22 -6 -22 -6 9.5 15 c 128,-1,4
 41 36 41 36 62 43 c 2,5,-1
 86 51 l 2,6,7
 82 53 82 53 66 62.5 c 128,-1,8
 50 72 50 72 40 89 c 128,-1,9
 30 106 30 106 33 129 c 0,10,11
 37 158 37 158 68 181 c 128,-1,12
 99 204 99 204 152 213 c 1,13,14
 104 238 104 238 83 277.5 c 128,-1,15
 62 317 62 317 68 363 c 0,16,17
 79 439 79 439 155 482 c 128,-1,18
 231 525 231 525 338 525 c 0,19,20
 387 525 387 525 420 515 c 128,-1,21
 453 505 453 505 482 485 c 1,22,23
 544 507 544 507 645 546 c 1,24,-1
 628 431 l 1,25,-1
 537 417 l 1,26,27
 539 404 539 404 540 388 c 128,-1,28
 541 372 541 372 540 364 c 0,29,30
 534 319 534 319 501.5 279.5 c 128,-1,31
 469 240 469 240 412 216 c 128,-1,32
 355 192 355 192 280 192 c 2,33,-1
 228 194 l 1,34,35
 180 191 180 191 177 174 c 0,36,37
 175 163 175 163 195 159 c 128,-1,38
 215 155 215 155 264 152 c 0,39,40
 307 149 307 149 324 148 c 2,41,-1
 370 145 l 2,42,43
 464 139 464 139 506 99 c 128,-1,44
 548 59 548 59 540 -3 c 0,45,46
 529 -79 529 -79 450 -125 c 128,-1,47
 371 -171 371 -171 238 -171 c 0,48,0
 101 -171 101 -171 33 -136.5 c 128,-1,1
365.5 298 m 128,-1,50
 392 320 392 320 397 358 c 0,51,52
 402 397 402 397 382 421.5 c 128,-1,53
 362 446 362 446 321 446 c 128,-1,54
 280 446 280 446 252 421.5 c 128,-1,55
 224 397 224 397 218 358 c 0,56,57
 213 320 213 320 234 298 c 128,-1,58
 255 276 255 276 297 276 c 128,-1,49
 339 276 339 276 365.5 298 c 128,-1,50
361 -73.5 m 128,-1,60
 388 -60 388 -60 392 -32 c 0,61,62
 399 16 399 16 322 22 c 2,63,-1
 207 29 l 2,64,65
 173 31 173 31 149.5 14 c 128,-1,66
 126 -3 126 -3 122 -27 c 0,67,68
 118 -59 118 -59 155 -73 c 128,-1,69
 192 -87 192 -87 274 -87 c 0,70,59
 334 -87 334 -87 361 -73.5 c 128,-1,60
EndSplineSet
EndChar

StartChar: h
Encoding: 104 104 75
Width: 610
GlyphClass: 2
Flags: W
AnchorPoint: "Anchor-5" -46 0 basechar 0
AnchorPoint: "Anchor-4" 262 0 basechar 0
AnchorPoint: "Anchor-3" 366 517 basechar 0
AnchorPoint: "Anchor-2" -46 0 basechar 0
LayerCount: 2
Fore
SplineSet
124 743 m 1,0,-1
 272 743 l 1,1,-1
 231 449 l 1,2,3
 263 475 263 475 283.5 489 c 128,-1,4
 304 503 304 503 331.5 511.5 c 128,-1,5
 359 520 359 520 396 520 c 0,6,7
 445 520 445 520 482 499.5 c 128,-1,8
 519 479 519 479 537 441.5 c 128,-1,9
 555 404 555 404 548 356 c 2,10,-1
 498 0 l 1,11,-1
 346 0 l 1,12,-1
 393 336 l 2,13,14
 397 367 397 367 378.5 385 c 128,-1,15
 360 403 360 403 326 403 c 0,16,17
 295 403 295 403 267.5 387.5 c 128,-1,18
 240 372 240 372 219 343 c 1,19,-1
 171 0 l 1,20,-1
 20 0 l 1,21,-1
 124 743 l 1,0,-1
EndSplineSet
EndChar

StartChar: i
Encoding: 105 105 76
Width: 286
GlyphClass: 2
Flags: W
LayerCount: 2
Fore
SplineSet
257 598 m 1,0,-1
 104 598 l 1,1,-1
 124 743 l 1,2,-1
 277 743 l 1,3,-1
 257 598 l 1,0,-1
172 0 m 1,4,-1
 21 0 l 1,5,-1
 94 517 l 1,6,-1
 245 517 l 1,7,-1
 172 0 l 1,4,-1
EndSplineSet
Substitution2: "Single Substitution lookup 28 subtable" dotlessi
Substitution2: "'locl' Localized Forms in Latin lookup 10 subtable" i.loclTRK
Substitution2: "'locl' Localized Forms in Latin lookup 9 subtable" i.loclTRK
Substitution2: "'locl' Localized Forms in Latin lookup 8 subtable" i.loclTRK
Substitution2: "'locl' Localized Forms in Latin lookup 7 subtable" i.loclTRK
Substitution2: "'locl' Localized Forms in Latin lookup 6 subtable" i.loclTRK
AlternateSubs2: "'aalt' Access All Alternates in Latin lookup 1 subtable" dotlessi i.loclTRK
EndChar

StartChar: j
Encoding: 106 106 77
Width: 296
GlyphClass: 2
Flags: W
LayerCount: 2
Fore
SplineSet
264 598 m 1,0,-1
 110 598 l 1,1,-1
 130 743 l 1,2,-1
 284 743 l 1,3,-1
 264 598 l 1,0,-1
118.5 -123.5 m 128,-1,5
 70 -166 70 -166 -22 -166 c 0,6,7
 -46 -166 -46 -166 -60 -162.5 c 128,-1,8
 -74 -159 -74 -159 -79.5 -155.5 c 128,-1,9
 -85 -152 -85 -152 -86 -151 c 2,10,-1
 -73 -51 l 1,11,-1
 -34 -47 l 2,12,13
 -2 -43 -2 -43 11 -30.5 c 128,-1,14
 24 -18 24 -18 28 7 c 2,15,-1
 100 517 l 1,16,-1
 251 517 l 1,17,-1
 179 6 l 2,18,4
 167 -81 167 -81 118.5 -123.5 c 128,-1,5
EndSplineSet
Substitution2: "Single Substitution lookup 28 subtable" uni0237
Substitution2: "'aalt' Access All Alternates in Latin lookup 0 subtable" uni0237
EndChar

StartChar: k
Encoding: 107 107 78
Width: 592
GlyphClass: 2
Flags: W
AnchorPoint: "Anchor-5" -46 0 basechar 0
AnchorPoint: "Anchor-4" 251 0 basechar 0
AnchorPoint: "Anchor-3" -46 0 basechar 0
AnchorPoint: "Anchor-2" -46 0 basechar 0
LayerCount: 2
Fore
SplineSet
374 0 m 1,0,-1
 267 220 l 1,1,-1
 192 149 l 1,2,-1
 171 0 l 1,3,-1
 20 0 l 1,4,-1
 124 743 l 1,5,-1
 275 743 l 1,6,-1
 213 299 l 1,7,-1
 437 517 l 1,8,-1
 590 517 l 1,9,-1
 374 310 l 1,10,-1
 523 0 l 1,11,-1
 374 0 l 1,0,-1
EndSplineSet
EndChar

StartChar: l
Encoding: 108 108 79
Width: 324
GlyphClass: 2
Flags: W
AnchorPoint: "Anchor-5" 308 753 basechar 0
AnchorPoint: "Anchor-4" 84 0 basechar 0
AnchorPoint: "Anchor-3" 94 764 basechar 0
AnchorPoint: "Anchor-2" -46 0 basechar 0
LayerCount: 2
Fore
SplineSet
80 14 m 128,-1,1
 46 36 46 36 40 68.5 c 128,-1,2
 34 101 34 101 41 148 c 2,3,-1
 124 743 l 1,4,-1
 272 743 l 1,5,-1
 191 166 l 2,6,7
 187 136 187 136 197.5 119.5 c 128,-1,8
 208 103 208 103 240 99 c 2,9,-1
 264 98 l 1,10,-1
 251 5 l 1,11,12
 212 -8 212 -8 187 -8 c 0,13,0
 114 -8 114 -8 80 14 c 128,-1,1
EndSplineSet
Substitution2: "'ss01' Style Set 1 in Latin lookup 27 subtable" l.ss01
Substitution2: "'salt' Stylistic Alternatives in Latin lookup 26 subtable" l.ss01
Substitution2: "'aalt' Access All Alternates in Latin lookup 0 subtable" l.ss01
EndChar

StartChar: m
Encoding: 109 109 80
Width: 926
GlyphClass: 2
Flags: W
LayerCount: 2
Fore
SplineSet
93 517 m 1,0,-1
 241 517 l 1,1,-1
 231 451 l 1,2,3
 318 527 318 527 407 527 c 0,4,5
 454 527 454 527 492 508.5 c 128,-1,6
 530 490 530 490 546 451 c 1,7,8
 577 486 577 486 623 506.5 c 128,-1,9
 669 527 669 527 716 527 c 0,10,11
 759 527 759 527 795.5 508.5 c 128,-1,12
 832 490 832 490 851.5 451.5 c 128,-1,13
 871 413 871 413 863 356 c 2,14,-1
 813 0 l 1,15,-1
 662 0 l 1,16,-1
 710 339 l 2,17,18
 716 379 716 379 695.5 398 c 128,-1,19
 675 417 675 417 639 417 c 0,20,21
 594 417 594 417 568.5 394 c 128,-1,22
 543 371 543 371 537 324 c 2,23,-1
 491 0 l 1,24,-1
 341 0 l 1,25,-1
 390 351 l 2,26,27
 394 382 394 382 372.5 399.5 c 128,-1,28
 351 417 351 417 317 417 c 128,-1,29
 283 417 283 417 253.5 398.5 c 128,-1,30
 224 380 224 380 220 346 c 2,31,-1
 171 0 l 1,32,-1
 20 0 l 1,33,-1
 93 517 l 1,0,-1
EndSplineSet
EndChar

StartChar: n
Encoding: 110 110 81
Width: 611
GlyphClass: 2
Flags: W
AnchorPoint: "Anchor-5" -46 0 basechar 0
AnchorPoint: "Anchor-4" 259 0 basechar 0
AnchorPoint: "Anchor-3" 262 517 basechar 0
AnchorPoint: "Anchor-2" -46 0 basechar 0
LayerCount: 2
Fore
SplineSet
93 517 m 1,0,-1
 241 517 l 1,1,-1
 231 451 l 1,2,3
 264 485 264 485 299 503 c 128,-1,4
 334 521 334 521 390 521 c 0,5,6
 438 521 438 521 476.5 499 c 128,-1,7
 515 477 515 477 534.5 437 c 128,-1,8
 554 397 554 397 546 345 c 2,9,-1
 498 0 l 1,10,-1
 347 0 l 1,11,-1
 393 326 l 2,12,13
 398 362 398 362 377.5 382.5 c 128,-1,14
 357 403 357 403 321 403 c 0,15,16
 283 403 283 403 252.5 384.5 c 128,-1,17
 222 366 222 366 218 333 c 2,18,-1
 171 0 l 1,19,-1
 20 0 l 1,20,-1
 93 517 l 1,0,-1
EndSplineSet
EndChar

StartChar: o
Encoding: 111 111 82
Width: 571
GlyphClass: 2
Flags: W
AnchorPoint: "Anchor-5" -46 0 basechar 0
AnchorPoint: "Anchor-4" 237 0 basechar 0
AnchorPoint: "Anchor-3" 240 517 basechar 0
AnchorPoint: "Anchor-2" 312 10 basechar 0
LayerCount: 2
Fore
SplineSet
109.5 23.5 m 128,-1,1
 57 57 57 57 35 117 c 128,-1,2
 13 177 13 177 24 255 c 0,3,4
 35 335 35 335 75.5 397 c 128,-1,5
 116 459 116 459 177.5 493 c 128,-1,6
 239 527 239 527 314 527 c 0,7,8
 390 527 390 527 442 492.5 c 128,-1,9
 494 458 494 458 516 396.5 c 128,-1,10
 538 335 538 335 527 256 c 0,11,12
 516 178 516 178 477 117.5 c 128,-1,13
 438 57 438 57 376.5 23.5 c 128,-1,14
 315 -10 315 -10 238 -10 c 0,15,0
 162 -10 162 -10 109.5 23.5 c 128,-1,1
339.5 147.5 m 128,-1,17
 370 193 370 193 380 261 c 0,18,19
 389 328 389 328 370.5 372 c 128,-1,20
 352 416 352 416 298 416 c 0,21,22
 243 416 243 416 212.5 372 c 128,-1,23
 182 328 182 328 173 261 c 128,-1,24
 164 194 164 194 181.5 148 c 128,-1,25
 199 102 199 102 254 102 c 128,-1,16
 309 102 309 102 339.5 147.5 c 128,-1,17
EndSplineSet
Substitution2: "Single Substitution lookup 30 subtable" ordmasculine
Substitution2: "'aalt' Access All Alternates in Latin lookup 0 subtable" ordmasculine
EndChar

StartChar: p
Encoding: 112 112 83
Width: 607
GlyphClass: 2
Flags: W
LayerCount: 2
Fore
SplineSet
93 517 m 1,0,-1
 244 517 l 1,1,-1
 235 452 l 1,2,3
 265 487 265 487 306 507 c 128,-1,4
 347 527 347 527 395 527 c 0,5,6
 453 527 453 527 495.5 497.5 c 128,-1,7
 538 468 538 468 557 408.5 c 128,-1,8
 576 349 576 349 564 262 c 0,9,10
 551 172 551 172 512 110.5 c 128,-1,11
 473 49 473 49 418.5 19.5 c 128,-1,12
 364 -10 364 -10 302 -10 c 0,13,14
 213 -10 213 -10 179 56 c 1,15,-1
 148 -161 l 1,16,-1
 -3 -161 l 1,17,-1
 93 517 l 1,0,-1
374 140.5 m 128,-1,19
 412 183 412 183 423 261 c 0,20,21
 433 335 433 335 406.5 376.5 c 128,-1,22
 380 418 380 418 334 418 c 0,23,24
 306 418 306 418 279.5 402.5 c 128,-1,25
 253 387 253 387 236 363 c 128,-1,26
 219 339 219 339 215 315 c 2,27,-1
 197 187 l 1,28,29
 202 148 202 148 227 123 c 128,-1,30
 252 98 252 98 287 98 c 0,31,18
 336 98 336 98 374 140.5 c 128,-1,19
EndSplineSet
EndChar

StartChar: q
Encoding: 113 113 84
Width: 609
GlyphClass: 2
Flags: W
LayerCount: 2
Fore
SplineSet
322 -161 m 1,0,-1
 352 49 l 1,1,2
 313 17 313 17 276 3.5 c 128,-1,3
 239 -10 239 -10 201 -10 c 0,4,5
 106 -10 106 -10 56 58.5 c 128,-1,6
 6 127 6 127 25 262 c 0,7,8
 37 349 37 349 73 408.5 c 128,-1,9
 109 468 109 468 160 497.5 c 128,-1,10
 211 527 211 527 269 527 c 0,11,12
 351 527 351 527 411 467 c 1,13,-1
 418 517 l 1,14,-1
 569 517 l 1,15,-1
 473 -161 l 1,16,-1
 322 -161 l 1,0,-1
328.5 124.5 m 128,-1,18
 357 158 357 158 376 218 c 1,19,-1
 386 290 l 2,20,21
 395 352 395 352 374 388.5 c 128,-1,22
 353 425 353 425 309 425 c 0,23,24
 262 425 262 425 225.5 384 c 128,-1,25
 189 343 189 343 178 264 c 128,-1,26
 167 185 167 185 191.5 138 c 128,-1,27
 216 91 216 91 264 91 c 0,28,17
 300 91 300 91 328.5 124.5 c 128,-1,18
EndSplineSet
EndChar

StartChar: r
Encoding: 114 114 85
Width: 423
GlyphClass: 2
Flags: W
AnchorPoint: "Anchor-5" -46 0 basechar 0
AnchorPoint: "Anchor-4" 103 0 basechar 0
AnchorPoint: "Anchor-3" 184 517 basechar 0
AnchorPoint: "Anchor-2" -46 0 basechar 0
LayerCount: 2
Fore
SplineSet
93 517 m 1,0,-1
 238 517 l 1,1,-1
 220 388 l 1,2,3
 251 449 251 449 303.5 488 c 128,-1,4
 356 527 356 527 419 527 c 1,5,-1
 400 384 l 1,6,7
 390 385 390 385 371 385 c 0,8,9
 297 385 297 385 256.5 352.5 c 128,-1,10
 216 320 216 320 210 274 c 2,11,-1
 171 0 l 1,12,-1
 20 0 l 1,13,-1
 93 517 l 1,0,-1
EndSplineSet
EndChar

StartChar: s
Encoding: 115 115 86
Width: 519
GlyphClass: 2
Flags: W
AnchorPoint: "Anchor-5" -46 0 basechar 0
AnchorPoint: "Anchor-4" 217 0 basechar 0
AnchorPoint: "Anchor-3" 216 517 basechar 0
AnchorPoint: "Anchor-2" -46 0 basechar 0
LayerCount: 2
Fore
SplineSet
68.5 30.5 m 128,-1,1
 9 71 9 71 6 152 c 1,2,-1
 132 157 l 1,3,4
 139 121 139 121 165 107 c 128,-1,5
 191 93 191 93 232 93 c 0,6,7
 275 93 275 93 302.5 107 c 128,-1,8
 330 121 330 121 333 145 c 0,9,10
 336 165 336 165 321 177.5 c 128,-1,11
 306 190 306 190 272 198 c 2,12,-1
 185 215 l 2,13,14
 36 245 36 245 52 363 c 0,15,16
 59 411 59 411 90 448 c 128,-1,17
 121 485 121 485 173.5 506 c 128,-1,18
 226 527 226 527 294 527 c 0,19,20
 394 527 394 527 447 482.5 c 128,-1,21
 500 438 500 438 488 365 c 1,22,-1
 363 362 l 1,23,24
 359 428 359 428 276 428 c 0,25,26
 194 428 194 428 187 374 c 0,27,28
 185 357 185 357 201.5 345 c 128,-1,29
 218 333 218 333 262 324 c 2,30,-1
 341 306 l 2,31,32
 418 287 418 287 444 243 c 128,-1,33
 470 199 470 199 464 153 c 0,34,35
 453 77 453 77 384 33.5 c 128,-1,36
 315 -10 315 -10 216 -10 c 0,37,0
 128 -10 128 -10 68.5 30.5 c 128,-1,1
EndSplineSet
EndChar

StartChar: t
Encoding: 116 116 87
Width: 426
GlyphClass: 2
Flags: W
AnchorPoint: "Anchor-5" 365 778 basechar 0
AnchorPoint: "Anchor-4" 217 0 basechar 0
AnchorPoint: "Anchor-3" -46 0 basechar 0
AnchorPoint: "Anchor-2" -46 0 basechar 0
LayerCount: 2
Fore
SplineSet
277 413 m 1,0,-1
 239 143 l 2,1,2
 235 117 235 117 244 107.5 c 128,-1,3
 253 98 253 98 272 98 c 2,4,-1
 349 98 l 1,5,-1
 336 7 l 1,6,7
 304 -6 304 -6 242 -6 c 0,8,9
 144 -6 144 -6 110.5 30.5 c 128,-1,10
 77 67 77 67 87 135 c 2,11,-1
 126 413 l 1,12,-1
 42 413 l 1,13,-1
 57 517 l 1,14,-1
 146 517 l 1,15,-1
 190 682 l 1,16,-1
 315 682 l 1,17,-1
 292 518 l 1,18,-1
 406 518 l 1,19,-1
 391 413 l 1,20,-1
 277 413 l 1,0,-1
EndSplineSet
EndChar

StartChar: u
Encoding: 117 117 88
Width: 611
GlyphClass: 2
Flags: W
AnchorPoint: "Anchor-5" -46 0 basechar 0
AnchorPoint: "Anchor-4" 259 0 basechar 0
AnchorPoint: "Anchor-3" 255 517 basechar 0
AnchorPoint: "Anchor-2" 473 10 basechar 0
LayerCount: 2
Fore
SplineSet
124 10 m 128,-1,1
 82 29 82 29 58.5 67 c 128,-1,2
 35 105 35 105 42 159 c 2,3,-1
 93 518 l 1,4,-1
 244 518 l 1,5,-1
 196 178 l 2,6,7
 191 140 191 140 212.5 119.5 c 128,-1,8
 234 99 234 99 271 99 c 0,9,10
 309 99 309 99 337 121 c 128,-1,11
 365 143 365 143 371 181 c 2,12,-1
 419 518 l 1,13,-1
 571 518 l 1,14,-1
 495 0 l 1,15,-1
 382 0 l 1,16,-1
 382 73 l 1,17,18
 356 35 356 35 306.5 12.5 c 128,-1,19
 257 -10 257 -10 211 -10 c 0,20,0
 166 -9 166 -9 124 10 c 128,-1,1
EndSplineSet
EndChar

StartChar: v
Encoding: 118 118 89
Width: 554
GlyphClass: 2
Flags: W
LayerCount: 2
Fore
SplineSet
282 0 m 1,0,-1
 180 0 l 1,1,-1
 43 517 l 1,2,-1
 179 517 l 1,3,-1
 259 195 l 1,4,-1
 428 517 l 1,5,-1
 565 517 l 1,6,-1
 282 0 l 1,0,-1
EndSplineSet
EndChar

StartChar: w
Encoding: 119 119 90
Width: 796
GlyphClass: 2
Flags: W
AnchorPoint: "Anchor-5" -46 0 basechar 0
AnchorPoint: "Anchor-4" -46 0 basechar 0
AnchorPoint: "Anchor-3" 356 517 basechar 0
AnchorPoint: "Anchor-2" -46 0 basechar 0
LayerCount: 2
Fore
SplineSet
561 0 m 1,0,-1
 446 0 l 1,1,-1
 393 307 l 1,2,-1
 253 0 l 1,3,-1
 142 0 l 1,4,-1
 44 517 l 1,5,-1
 178 517 l 1,6,-1
 232 203 l 1,7,-1
 371 517 l 1,8,-1
 479 517 l 1,9,-1
 531 203 l 1,10,-1
 671 517 l 1,11,-1
 806 517 l 1,12,-1
 561 0 l 1,0,-1
EndSplineSet
EndChar

StartChar: x
Encoding: 120 120 91
Width: 589
GlyphClass: 2
Flags: W
LayerCount: 2
Fore
SplineSet
370 0 m 1,0,-1
 272 165 l 1,1,-1
 127 0 l 1,2,-1
 -30 0 l 1,3,-1
 206 269 l 1,4,-1
 60 517 l 1,5,-1
 217 517 l 1,6,-1
 302 375 l 1,7,-1
 427 517 l 1,8,-1
 584 517 l 1,9,-1
 366 269 l 1,10,-1
 527 0 l 1,11,-1
 370 0 l 1,0,-1
EndSplineSet
EndChar

StartChar: y
Encoding: 121 121 92
Width: 572
GlyphClass: 2
Flags: W
AnchorPoint: "Anchor-5" -46 0 basechar 0
AnchorPoint: "Anchor-4" -46 0 basechar 0
AnchorPoint: "Anchor-3" 258 517 basechar 0
AnchorPoint: "Anchor-2" -46 0 basechar 0
LayerCount: 2
Fore
SplineSet
26.5 -161 m 128,-1,1
 5 -157 5 -157 -5 -153 c 128,-1,2
 -15 -149 -15 -149 -17 -147 c 2,3,-1
 -3 -51 l 1,4,-1
 48 -53 l 2,5,6
 106 -57 106 -57 128.5 -41.5 c 128,-1,7
 151 -26 151 -26 161 -4 c 2,8,-1
 174 22 l 1,9,-1
 43 517 l 1,10,-1
 192 517 l 1,11,-1
 266 185 l 1,12,-1
 437 517 l 1,13,-1
 584 517 l 1,14,-1
 302 0 l 2,15,16
 250 -95 250 -95 198 -130 c 128,-1,17
 146 -165 146 -165 80 -165 c 0,18,0
 48 -165 48 -165 26.5 -161 c 128,-1,1
EndSplineSet
EndChar

StartChar: z
Encoding: 122 122 93
Width: 513
GlyphClass: 2
Flags: W
AnchorPoint: "Anchor-5" -46 0 basechar 0
AnchorPoint: "Anchor-4" -46 0 basechar 0
AnchorPoint: "Anchor-3" 222 517 basechar 0
AnchorPoint: "Anchor-2" -46 0 basechar 0
LayerCount: 2
Fore
SplineSet
-6 77 m 1,0,-1
 307 422 l 1,1,-1
 64 422 l 1,2,-1
 78 517 l 1,3,-1
 510 517 l 1,4,-1
 499 442 l 1,5,-1
 184 97 l 1,6,-1
 454 97 l 1,7,-1
 440 0 l 1,8,-1
 -17 0 l 1,9,-1
 -6 77 l 1,0,-1
EndSplineSet
EndChar

StartChar: braceleft
Encoding: 123 123 94
Width: 381
GlyphClass: 2
Flags: W
LayerCount: 2
Fore
SplineSet
220 691.5 m 128,-1,1
 271 723 271 723 333 723 c 2,2,-1
 408 723 l 1,3,-1
 396 638 l 1,4,-1
 351 638 l 2,5,6
 312 638 312 638 298.5 625 c 128,-1,7
 285 612 285 612 281 586 c 2,8,-1
 254 390 l 2,9,10
 246 342 246 342 211.5 317.5 c 128,-1,11
 177 293 177 293 134 289 c 0,12,13
 128 288 128 288 127 285.5 c 128,-1,14
 126 283 126 283 133 282 c 0,15,16
 176 278 176 278 203 254 c 128,-1,17
 230 230 230 230 224 175 c 2,18,-1
 196 -24 l 2,19,20
 192 -52 192 -52 203.5 -64 c 128,-1,21
 215 -76 215 -76 250 -76 c 2,22,-1
 295 -76 l 1,23,-1
 283 -161 l 1,24,-1
 210 -161 l 2,25,26
 146 -161 146 -161 104 -129 c 128,-1,27
 62 -97 62 -97 70 -40 c 2,28,-1
 99 162 l 2,29,30
 104 200 104 200 79 224 c 128,-1,31
 54 248 54 248 -2 248 c 1,32,-1
 8 323 l 1,33,34
 67 323 67 323 97.5 345.5 c 128,-1,35
 128 368 128 368 134 413 c 2,36,-1
 161 604 l 2,37,0
 169 660 169 660 220 691.5 c 128,-1,1
EndSplineSet
EndChar

StartChar: bar
Encoding: 124 124 95
Width: 265
GlyphClass: 2
Flags: W
LayerCount: 2
Fore
SplineSet
8 -161 m 1,0,-1
 147 826 l 1,1,-1
 257 826 l 1,2,-1
 118 -161 l 1,3,-1
 8 -161 l 1,0,-1
EndSplineSet
EndChar

StartChar: braceright
Encoding: 125 125 96
Width: 381
GlyphClass: 2
Flags: W
LayerCount: 2
Fore
SplineSet
186 -129.5 m 128,-1,1
 135 -161 135 -161 73 -161 c 2,2,-1
 -2 -161 l 1,3,-1
 10 -76 l 1,4,-1
 55 -76 l 2,5,6
 94 -76 94 -76 107.5 -63 c 128,-1,7
 121 -50 121 -50 125 -24 c 2,8,-1
 152 172 l 2,9,10
 160 220 160 220 194.5 244.5 c 128,-1,11
 229 269 229 269 272 273 c 0,12,13
 278 274 278 274 279 276.5 c 128,-1,14
 280 279 280 279 273 280 c 0,15,16
 230 284 230 284 203 308 c 128,-1,17
 176 332 176 332 182 387 c 2,18,-1
 210 586 l 2,19,20
 214 614 214 614 202.5 626 c 128,-1,21
 191 638 191 638 156 638 c 2,22,-1
 111 638 l 1,23,-1
 123 723 l 1,24,-1
 196 723 l 2,25,26
 260 723 260 723 302 691 c 128,-1,27
 344 659 344 659 336 602 c 2,28,-1
 307 400 l 2,29,30
 302 362 302 362 327 338 c 128,-1,31
 352 314 352 314 408 314 c 1,32,-1
 398 239 l 1,33,34
 339 239 339 239 308.5 216.5 c 128,-1,35
 278 194 278 194 272 149 c 2,36,-1
 245 -42 l 2,37,0
 237 -98 237 -98 186 -129.5 c 128,-1,1
EndSplineSet
EndChar

StartChar: asciitilde
Encoding: 126 126 97
Width: 612
GlyphClass: 2
Flags: W
LayerCount: 2
Fore
SplineSet
483 309 m 128,-1,1
 440 285 440 285 396 285 c 0,2,3
 368 285 368 285 346 294 c 128,-1,4
 324 303 324 303 297 319 c 0,5,6
 273 333 273 333 255 340.5 c 128,-1,7
 237 348 237 348 216 348 c 0,8,9
 182 348 182 348 154.5 329.5 c 128,-1,10
 127 311 127 311 90 275 c 1,11,-1
 57 350 l 1,12,13
 109 397 109 397 147 419.5 c 128,-1,14
 185 442 185 442 230 442 c 0,15,16
 259 442 259 442 279.5 433.5 c 128,-1,17
 300 425 300 425 330 408 c 0,18,19
 355 394 355 394 371 387 c 128,-1,20
 387 380 387 380 406 380 c 0,21,22
 469 380 469 380 524 452 c 1,23,-1
 557 378 l 1,24,0
 526 333 526 333 483 309 c 128,-1,1
EndSplineSet
EndChar

StartChar: exclamdown
Encoding: 161 161 99
Width: 279
GlyphClass: 2
Flags: W
LayerCount: 2
Fore
SplineSet
58 357 m 1,0,-1
 81 517 l 1,1,-1
 245 517 l 1,2,-1
 222 357 l 1,3,-1
 58 357 l 1,0,-1
-21 -161 m 1,4,-1
 86 289 l 1,5,-1
 179 289 l 1,6,-1
 156 -161 l 1,7,-1
 -21 -161 l 1,4,-1
EndSplineSet
EndChar

StartChar: cent
Encoding: 162 162 100
Width: 556
GlyphClass: 2
Flags: W
AnchorPoint: "Anchor-1" 246 628 basechar 0
AnchorPoint: "Anchor-0" 246 111 basechar 0
LayerCount: 2
Fore
SplineSet
340 231.5 m 128,-1,1
 364 255 364 255 384 292 c 1,2,-1
 502 286 l 1,3,4
 484 219 484 219 435 170.5 c 128,-1,5
 386 122 386 122 316 107 c 1,6,-1
 301 0 l 1,7,-1
 202 0 l 1,8,-1
 217 105 l 1,9,10
 157 114 157 114 115.5 149.5 c 128,-1,11
 74 185 74 185 56 241.5 c 128,-1,12
 38 298 38 298 48 367 c 0,13,14
 58 438 58 438 92 495 c 128,-1,15
 126 552 126 552 177.5 588 c 128,-1,16
 229 624 229 624 291 634 c 1,17,-1
 304 723 l 1,18,-1
 403 723 l 1,19,-1
 390 632 l 1,20,21
 456 617 456 617 490.5 567 c 128,-1,22
 525 517 525 517 525 448 c 1,23,-1
 401 442 l 1,24,25
 389 482 389 482 373.5 503 c 128,-1,26
 358 524 358 524 323 524 c 0,27,28
 271 524 271 524 234.5 483 c 128,-1,29
 198 442 198 442 188 369 c 0,30,31
 178 295 178 295 203 251.5 c 128,-1,32
 228 208 228 208 280 208 c 0,33,0
 316 208 316 208 340 231.5 c 128,-1,1
EndSplineSet
EndChar

StartChar: sterling
Encoding: 163 163 101
Width: 646
GlyphClass: 2
Flags: W
LayerCount: 2
Fore
SplineSet
-11 125 m 1,0,-1
 23 125 l 2,1,2
 62 125 62 125 88 149.5 c 128,-1,3
 114 174 114 174 122 225 c 0,4,5
 127 261 127 261 128 338 c 1,6,-1
 26 338 l 1,7,-1
 37 421 l 1,8,-1
 121 421 l 1,9,-1
 125 512 l 2,10,11
 126 532 126 532 127 542 c 0,12,13
 135 602 135 602 173 645 c 128,-1,14
 211 688 211 688 266.5 710.5 c 128,-1,15
 322 733 322 733 383 733 c 0,16,17
 465 733 465 733 522 694.5 c 128,-1,18
 579 656 579 656 598 587 c 1,19,-1
 462 547 l 1,20,21
 451 583 451 583 435 598 c 128,-1,22
 419 613 419 613 389 613 c 0,23,24
 354 613 354 613 329.5 591.5 c 128,-1,25
 305 570 305 570 300 531 c 0,26,27
 295 497 295 497 300 422 c 1,28,-1
 445 422 l 1,29,-1
 434 339 l 1,30,-1
 300 339 l 1,31,32
 299 309 299 309 295 288 c 0,33,34
 291 261 291 261 282 234 c 0,35,36
 272 196 272 196 255 172.5 c 128,-1,37
 238 149 238 149 209 126 c 1,38,-1
 340 126 l 2,39,40
 387 126 387 126 414 143.5 c 128,-1,41
 441 161 441 161 463 205 c 1,42,-1
 586 178 l 1,43,44
 513 0 513 0 334 0 c 2,45,-1
 -29 0 l 1,46,-1
 -11 125 l 1,0,-1
EndSplineSet
EndChar

StartChar: currency
Encoding: 164 164 102
Width: 578
GlyphClass: 2
Flags: W
LayerCount: 2
Fore
SplineSet
152 176 m 0,0,1
 150 178 150 178 146 178 c 0,2,3
 141 178 141 178 136 174 c 2,4,-1
 67 114 l 1,5,-1
 14 179 l 1,6,-1
 89 244 l 1,7,8
 75 274 75 274 70.5 302 c 128,-1,9
 66 330 66 330 71 363 c 0,10,11
 80 425 80 425 117 474 c 0,12,13
 121 479 121 479 121 482 c 0,14,15
 122 486 122 486 118 490 c 2,16,-1
 66 549 l 1,17,-1
 138 614 l 1,18,-1
 196 546 l 1,19,20
 257 583 257 583 320 583 c 0,21,22
 384 583 384 583 431 550 c 0,23,24
 438 547 438 547 442 551 c 2,25,-1
 506 608 l 1,26,-1
 559 543 l 1,27,-1
 490 483 l 1,28,29
 518 427 518 427 509 364 c 0,30,31
 500 299 500 299 460 249 c 0,32,33
 457 246 457 246 459 242 c 2,34,-1
 509 185 l 1,35,-1
 438 121 l 1,36,-1
 386 182 l 1,37,38
 324 144 324 144 261 144 c 0,39,40
 200 144 200 144 152 176 c 0,0,1
338 259.5 m 128,-1,42
 368 276 368 276 387.5 304 c 128,-1,43
 407 332 407 332 411 364 c 0,44,45
 415 395 415 395 403.5 423 c 128,-1,46
 392 451 392 451 367 468 c 128,-1,47
 342 485 342 485 308 485 c 128,-1,48
 274 485 274 485 244 468 c 128,-1,49
 214 451 214 451 194.5 423 c 128,-1,50
 175 395 175 395 170 364 c 0,51,52
 166 332 166 332 178 304 c 128,-1,53
 190 276 190 276 215 259.5 c 128,-1,54
 240 243 240 243 274 243 c 128,-1,41
 308 243 308 243 338 259.5 c 128,-1,42
EndSplineSet
EndChar

StartChar: yen
Encoding: 165 165 103
Width: 658
GlyphClass: 2
Flags: W
LayerCount: 2
Fore
SplineSet
439 349 m 1,0,-1
 570 349 l 1,1,-1
 559 268 l 1,2,-1
 410 268 l 1,3,-1
 399 191 l 1,4,-1
 548 191 l 1,5,-1
 536 110 l 1,6,-1
 387 110 l 1,7,-1
 372 0 l 1,8,-1
 200 0 l 1,9,-1
 215 110 l 1,10,-1
 66 110 l 1,11,-1
 78 191 l 1,12,-1
 227 191 l 1,13,-1
 238 267 l 1,14,-1
 89 267 l 1,15,-1
 100 349 l 1,16,-1
 221 349 l 1,17,-1
 47 723 l 1,18,-1
 242 723 l 1,19,-1
 363 437 l 1,20,-1
 564 723 l 1,21,-1
 723 723 l 1,22,-1
 439 349 l 1,0,-1
EndSplineSet
EndChar

StartChar: brokenbar
Encoding: 166 166 104
Width: 265
GlyphClass: 2
Flags: W
LayerCount: 2
Fore
SplineSet
90 418 m 1,0,-1
 147 826 l 1,1,-1
 257 826 l 1,2,-1
 200 418 l 1,3,-1
 90 418 l 1,0,-1
8 -161 m 1,4,-1
 66 247 l 1,5,-1
 176 247 l 1,6,-1
 118 -161 l 1,7,-1
 8 -161 l 1,4,-1
EndSplineSet
EndChar

StartChar: section
Encoding: 167 167 105
Width: 510
GlyphClass: 2
Flags: W
LayerCount: 2
Fore
SplineSet
58 -45 m 128,-1,1
 1 -12 1 -12 -17 38 c 1,2,-1
 83 84 l 1,3,4
 125 13 125 13 209 13 c 0,5,6
 249 13 249 13 275 27 c 128,-1,7
 301 41 301 41 304 66 c 0,8,9
 307 86 307 86 292.5 102 c 128,-1,10
 278 118 278 118 237 135 c 2,11,-1
 165 164 l 2,12,13
 87 194 87 194 57 231 c 128,-1,14
 27 268 27 268 35 325 c 0,15,16
 41 370 41 370 68.5 403.5 c 128,-1,17
 96 437 96 437 140 456 c 1,18,19
 100 482 100 482 86 511.5 c 128,-1,20
 72 541 72 541 77 578 c 0,21,22
 83 622 83 622 112.5 657 c 128,-1,23
 142 692 142 692 191.5 712.5 c 128,-1,24
 241 733 241 733 302 733 c 0,25,26
 376 733 376 733 428.5 701 c 128,-1,27
 481 669 481 669 498 622 c 1,28,-1
 399 577 l 1,29,30
 376 607 376 607 352 624.5 c 128,-1,31
 328 642 328 642 293 642 c 0,32,33
 259 642 259 642 237.5 628.5 c 128,-1,34
 216 615 216 615 213 592 c 0,35,36
 209 562 209 562 260 539 c 2,37,-1
 334 510 l 2,38,39
 414 477 414 477 446 439 c 128,-1,40
 478 401 478 401 470 343 c 0,41,42
 458 259 458 259 371 212 c 1,43,44
 413 186 413 186 429.5 156.5 c 128,-1,45
 446 127 446 127 440 86 c 0,46,47
 430 12 430 12 366 -33 c 128,-1,48
 302 -78 302 -78 199 -78 c 0,49,0
 115 -78 115 -78 58 -45 c 128,-1,1
320 273 m 128,-1,51
 340 290 340 290 343 316 c 0,52,53
 346 340 346 340 332 358 c 128,-1,54
 318 376 318 376 278 392 c 2,55,-1
 236 409 l 1,56,57
 204 406 204 406 183.5 388 c 128,-1,58
 163 370 163 370 160 346 c 0,59,60
 157 324 157 324 170 310 c 128,-1,61
 183 296 183 296 226 279 c 2,62,-1
 272 259 l 1,63,50
 300 256 300 256 320 273 c 128,-1,51
EndSplineSet
EndChar

StartChar: dieresis
Encoding: 168 168 106
Width: 369
GlyphClass: 2
Flags: W
LayerCount: 2
Fore
SplineSet
186 596 m 1,0,-1
 53 596 l 1,1,-1
 71 723 l 1,2,-1
 204 723 l 1,3,-1
 186 596 l 1,0,-1
385 596 m 1,4,-1
 252 596 l 1,5,-1
 270 723 l 1,6,-1
 403 723 l 1,7,-1
 385 596 l 1,4,-1
EndSplineSet
EndChar

StartChar: copyright
Encoding: 169 169 107
Width: 826
GlyphClass: 2
Flags: W
LayerCount: 2
Fore
SplineSet
183 40 m 128,-1,1
 105 90 105 90 67 175 c 128,-1,2
 29 260 29 260 43 362 c 0,3,4
 57 462 57 462 119 547.5 c 128,-1,5
 181 633 181 633 273 683 c 128,-1,6
 365 733 365 733 466 733 c 128,-1,7
 567 733 567 733 645.5 683 c 128,-1,8
 724 633 724 633 762 547.5 c 128,-1,9
 800 462 800 462 786 362 c 0,10,11
 772 260 772 260 710 175 c 128,-1,12
 648 90 648 90 555.5 40 c 128,-1,13
 463 -10 463 -10 362 -10 c 128,-1,0
 261 -10 261 -10 183 40 c 128,-1,1
523 108.5 m 128,-1,15
 592 144 592 144 637.5 210 c 128,-1,16
 683 276 683 276 695 362 c 128,-1,17
 707 448 707 448 680 513.5 c 128,-1,18
 653 579 653 579 594 615 c 128,-1,19
 535 651 535 651 454 651 c 0,20,21
 372 651 372 651 303.5 615 c 128,-1,22
 235 579 235 579 190.5 513.5 c 128,-1,23
 146 448 146 448 134 362 c 0,24,25
 122 275 122 275 148 209.5 c 128,-1,26
 174 144 174 144 232.5 108.5 c 128,-1,27
 291 73 291 73 373 73 c 0,28,14
 454 73 454 73 523 108.5 c 128,-1,15
554 532 m 128,-1,30
 594 493 594 493 603 440 c 1,31,-1
 497 429 l 1,32,33
 491 458 491 458 478 475 c 128,-1,34
 465 492 465 492 439 492 c 0,35,36
 400 492 400 492 373.5 459.5 c 128,-1,37
 347 427 347 427 338 365 c 0,38,39
 329 299 329 299 348 267 c 128,-1,40
 367 235 367 235 409 235 c 0,41,42
 441 235 441 235 464 252.5 c 128,-1,43
 487 270 487 270 510 304 c 1,44,-1
 582 285 l 1,45,46
 559 237 559 237 509.5 196.5 c 128,-1,47
 460 156 460 156 388 156 c 0,48,49
 330 156 330 156 288 182 c 128,-1,50
 246 208 246 208 227 255 c 128,-1,51
 208 302 208 302 217 363 c 128,-1,52
 226 424 226 424 258.5 471.5 c 128,-1,53
 291 519 291 519 340 545 c 128,-1,54
 389 571 389 571 446 571 c 0,55,29
 514 571 514 571 554 532 c 128,-1,30
EndSplineSet
EndChar

StartChar: ordfeminine
Encoding: 170 170 108
Width: 413
GlyphClass: 2
Flags: W
LayerCount: 2
Fore
SplineSet
76.5 422 m 128,-1,1
 52 447 52 447 58 489 c 0,2,3
 65 538 65 538 114.5 568.5 c 128,-1,4
 164 599 164 599 244 601 c 2,5,-1
 282 603 l 1,6,-1
 285 624 l 2,7,8
 291 670 291 670 240 670 c 0,9,10
 218 670 218 670 201 661 c 128,-1,11
 184 652 184 652 169 629 c 1,12,-1
 88 647 l 1,13,14
 114 690 114 690 151.5 711 c 128,-1,15
 189 732 189 732 252 732 c 0,16,17
 327 731 327 731 355.5 705 c 128,-1,18
 384 679 384 679 377 629 c 2,19,-1
 360 503 l 2,20,21
 353 456 353 456 354 432 c 2,22,-1
 357 403 l 1,23,-1
 261 403 l 1,24,-1
 258 437 l 1,25,26
 225 415 225 415 202.5 406 c 128,-1,27
 180 397 180 397 152 397 c 0,28,0
 101 397 101 397 76.5 422 c 128,-1,1
248 475 m 0,29,30
 266 488 266 488 268 503 c 2,31,-1
 274 551 l 1,32,-1
 243 550 l 2,33,34
 205 549 205 549 181 534 c 128,-1,35
 157 519 157 519 154 495 c 0,36,37
 152 478 152 478 163.5 468 c 128,-1,38
 175 458 175 458 197 458 c 0,39,40
 227 458 227 458 248 475 c 0,29,30
EndSplineSet
EndChar

StartChar: guillemotleft
Encoding: 171 171 109
Width: 497
GlyphClass: 2
Flags: W
LayerCount: 2
Fore
SplineSet
207 64 m 1,0,-1
 128 64 l 1,1,-1
 37 251 l 1,2,-1
 181 446 l 1,3,-1
 262 446 l 1,4,-1
 154 251 l 1,5,-1
 207 64 l 1,0,-1
399 64 m 1,6,-1
 319 64 l 1,7,-1
 228 251 l 1,8,-1
 373 446 l 1,9,-1
 453 446 l 1,10,-1
 346 251 l 1,11,-1
 399 64 l 1,6,-1
EndSplineSet
EndChar

StartChar: logicalnot
Encoding: 172 172 110
Width: 586
GlyphClass: 2
Flags: W
LayerCount: 2
Fore
SplineSet
541 419 m 1,0,-1
 504 157 l 1,1,-1
 382 157 l 1,2,-1
 402 309 l 1,3,-1
 49 309 l 1,4,-1
 65 418 l 1,5,-1
 541 419 l 1,0,-1
EndSplineSet
EndChar

StartChar: uni00AD
Encoding: 173 173 111
Width: 388
GlyphClass: 2
Flags: W
LayerCount: 2
Fore
SplineSet
327 203 m 1,0,-1
 51 202 l 1,1,-1
 67 312 l 1,2,-1
 342 312 l 1,3,-1
 327 203 l 1,0,-1
EndSplineSet
EndChar

StartChar: registered
Encoding: 174 174 112
Width: 548
GlyphClass: 2
Flags: W
LayerCount: 2
Fore
SplineSet
149.5 299 m 128,-1,1
 100 330 100 330 76.5 383 c 128,-1,2
 53 436 53 436 62 500 c 128,-1,3
 71 564 71 564 109.5 617 c 128,-1,4
 148 670 148 670 206 701.5 c 128,-1,5
 264 733 264 733 328 733 c 0,6,7
 391 733 391 733 440 701.5 c 128,-1,8
 489 670 489 670 512.5 616.5 c 128,-1,9
 536 563 536 563 527 500 c 128,-1,10
 518 437 518 437 479.5 383.5 c 128,-1,11
 441 330 441 330 383.5 299 c 128,-1,12
 326 268 326 268 263 268 c 0,13,0
 199 268 199 268 149.5 299 c 128,-1,1
399.5 374 m 128,-1,15
 452 421 452 421 463 500 c 128,-1,16
 474 579 474 579 435 626.5 c 128,-1,17
 396 674 396 674 320 674 c 0,18,19
 243 674 243 674 190.5 626.5 c 128,-1,20
 138 579 138 579 127 500 c 128,-1,21
 116 421 116 421 155 374 c 128,-1,22
 194 327 194 327 271 327 c 0,23,14
 347 327 347 327 399.5 374 c 128,-1,15
217 614 m 1,24,-1
 325 614 l 2,25,26
 367 614 367 614 388.5 598 c 128,-1,27
 410 582 410 582 406 552 c 0,28,29
 403 529 403 529 387.5 513.5 c 128,-1,30
 372 498 372 498 350 490 c 1,31,-1
 381 384 l 1,32,-1
 317 384 l 1,33,-1
 296 484 l 1,34,-1
 257 484 l 1,35,-1
 243 384 l 1,36,-1
 185 384 l 1,37,-1
 217 614 l 1,24,-1
311 525 m 2,38,39
 324 525 324 525 333 531 c 128,-1,40
 342 537 342 537 344 549 c 0,41,42
 346 560 346 560 338.5 566.5 c 128,-1,43
 331 573 331 573 315 573 c 2,44,-1
 270 573 l 1,45,-1
 263 525 l 1,46,-1
 311 525 l 2,38,39
EndSplineSet
EndChar

StartChar: macron
Encoding: 175 175 113
Width: 394
GlyphClass: 2
Flags: W
LayerCount: 2
Fore
SplineSet
412 622 m 1,0,-1
 56 622 l 1,1,-1
 70 718 l 1,2,-1
 426 718 l 1,3,-1
 412 622 l 1,0,-1
EndSplineSet
EndChar

StartChar: degree
Encoding: 176 176 114
Width: 470
GlyphClass: 2
Flags: W
LayerCount: 2
Fore
SplineSet
412.5 580 m 128,-1,1
 385 542 385 542 344 520.5 c 128,-1,2
 303 499 303 499 255 499 c 128,-1,3
 207 499 207 499 171.5 520.5 c 128,-1,4
 136 542 136 542 120 580 c 128,-1,5
 104 618 104 618 111 667 c 0,6,7
 118 715 118 715 144.5 753.5 c 128,-1,8
 171 792 171 792 212.5 814 c 128,-1,9
 254 836 254 836 302 836 c 0,10,11
 349 836 349 836 384.5 814 c 128,-1,12
 420 792 420 792 436.5 753.5 c 128,-1,13
 453 715 453 715 447 667 c 0,14,0
 440 618 440 618 412.5 580 c 128,-1,1
343.5 726 m 128,-1,16
 325 749 325 749 288 749 c 0,17,18
 253 749 253 749 228 726 c 128,-1,19
 203 703 203 703 198 668 c 0,20,21
 193 630 193 630 211 606.5 c 128,-1,22
 229 583 229 583 266 583 c 0,23,24
 302 583 302 583 326.5 606 c 128,-1,25
 351 629 351 629 357 666 c 0,26,15
 362 703 362 703 343.5 726 c 128,-1,16
EndSplineSet
EndChar

StartChar: plusminus
Encoding: 177 177 115
Width: 586
GlyphClass: 2
Flags: W
LayerCount: 2
Fore
SplineSet
553 505 m 1,0,-1
 538 395 l 1,1,-1
 355 395 l 1,2,-1
 329 212 l 1,3,-1
 220 212 l 1,4,-1
 246 395 l 1,5,-1
 62 395 l 1,6,-1
 77 504 l 1,7,-1
 261 504 l 1,8,-1
 287 688 l 1,9,-1
 396 688 l 1,10,-1
 370 505 l 1,11,-1
 553 505 l 1,0,-1
26 142 m 1,12,-1
 502 143 l 1,13,-1
 487 34 l 1,14,-1
 11 34 l 1,15,-1
 26 142 l 1,12,-1
EndSplineSet
EndChar

StartChar: uni00B2
Encoding: 178 178 116
Width: 386
GlyphClass: 2
Flags: W
LayerCount: 2
Fore
SplineSet
30 454 m 1,0,-1
 190 581 l 2,1,2
 256 632 256 632 277.5 656 c 128,-1,3
 299 680 299 680 302 706 c 0,4,5
 306 735 306 735 289 750.5 c 128,-1,6
 272 766 272 766 243 766 c 0,7,8
 213 766 213 766 188.5 750.5 c 128,-1,9
 164 735 164 735 148 700 c 1,10,-1
 60 705 l 1,11,12
 76 769 76 769 127 807 c 128,-1,13
 178 845 178 845 257 845 c 0,14,15
 333 845 333 845 372.5 808 c 128,-1,16
 412 771 412 771 403 707 c 0,17,18
 398 671 398 671 376.5 643 c 128,-1,19
 355 615 355 615 300 569 c 2,20,-1
 174 464 l 1,21,-1
 373 464 l 1,22,-1
 362 384 l 1,23,-1
 20 384 l 1,24,-1
 30 454 l 1,0,-1
EndSplineSet
EndChar

StartChar: uni00B3
Encoding: 179 179 117
Width: 401
GlyphClass: 2
Flags: W
LayerCount: 2
Fore
SplineSet
150 815 m 128,-1,1
 207 845 207 845 283 845 c 0,2,3
 332 845 332 845 370 830 c 128,-1,4
 408 815 408 815 427 787.5 c 128,-1,5
 446 760 446 760 441 726 c 0,6,7
 431 657 431 657 342 627 c 1,8,9
 381 616 381 616 406 587.5 c 128,-1,10
 431 559 431 559 425 515 c 0,11,12
 419 473 419 473 387.5 442 c 128,-1,13
 356 411 356 411 310 394.5 c 128,-1,14
 264 378 264 378 215 378 c 0,15,16
 129 378 129 378 84.5 406.5 c 128,-1,17
 40 435 40 435 42 507 c 1,18,-1
 132 512 l 1,19,20
 139 480 139 480 163 467 c 128,-1,21
 187 454 187 454 220 454 c 0,22,23
 261 454 261 454 288.5 471.5 c 128,-1,24
 316 489 316 489 320 515 c 0,25,26
 324 543 324 543 302.5 561.5 c 128,-1,27
 281 580 281 580 246 580 c 2,28,-1
 184 581 l 1,29,-1
 194 656 l 1,30,-1
 248 658 l 2,31,32
 284 659 284 659 309.5 676 c 128,-1,33
 335 693 335 693 338 719 c 0,34,35
 341 742 341 742 321 757 c 128,-1,36
 301 772 301 772 271 772 c 0,37,38
 233 772 233 772 205.5 759.5 c 128,-1,39
 178 747 178 747 164 713 c 1,40,-1
 77 718 l 1,41,0
 93 785 93 785 150 815 c 128,-1,1
EndSplineSet
EndChar

StartChar: acute
Encoding: 180 180 118
Width: 315
GlyphClass: 2
Flags: W
LayerCount: 2
Fore
SplineSet
342 636 m 1,0,-1
 67 567 l 1,1,-1
 55 631 l 1,2,-1
 323 734 l 1,3,-1
 342 636 l 1,0,-1
EndSplineSet
EndChar

StartChar: paragraph
Encoding: 182 182 119
Width: 611
GlyphClass: 2
Flags: W
LayerCount: 2
Fore
SplineSet
526 638 m 1,0,-1
 424 -83 l 1,1,-1
 332 -83 l 1,2,-1
 434 638 l 1,3,-1
 375 638 l 1,4,-1
 273 -83 l 1,5,-1
 181 -83 l 1,6,-1
 235 299 l 1,7,8
 147 306 147 306 96.5 361 c 128,-1,9
 46 416 46 416 60 509 c 0,10,11
 68 568 68 568 102.5 617 c 128,-1,12
 137 666 137 666 193.5 694.5 c 128,-1,13
 250 723 250 723 323 723 c 2,14,-1
 601 723 l 1,15,-1
 589 638 l 1,16,-1
 526 638 l 1,0,-1
EndSplineSet
EndChar

StartChar: periodcentered
Encoding: 183 183 120
Width: 265
GlyphClass: 2
Flags: W
LayerCount: 2
Fore
SplineSet
198 291 m 1,0,-1
 45 291 l 1,1,-1
 66 438 l 1,2,-1
 219 438 l 1,3,-1
 198 291 l 1,0,-1
EndSplineSet
EndChar

StartChar: cedilla
Encoding: 184 184 121
Width: 272
GlyphClass: 2
Flags: W
LayerCount: 2
Fore
SplineSet
142 -191 m 128,-1,1
 104 -213 104 -213 53 -213 c 0,2,3
 -19 -213 -19 -213 -59 -186 c 1,4,-1
 -32 -136 l 1,5,6
 4 -161 4 -161 42 -161 c 0,7,8
 65 -161 65 -161 79.5 -152.5 c 128,-1,9
 94 -144 94 -144 96 -130 c 0,10,11
 99 -110 99 -110 80.5 -100 c 128,-1,12
 62 -90 62 -90 16 -90 c 0,13,14
 3 -90 3 -90 10 -80 c 2,15,-1
 59 5 l 1,16,-1
 125 5 l 1,17,-1
 95 -53 l 1,18,19
 147 -54 147 -54 168.5 -77.5 c 128,-1,20
 190 -101 190 -101 185 -132 c 0,21,0
 180 -169 180 -169 142 -191 c 128,-1,1
EndSplineSet
EndChar

StartChar: uni00B9
Encoding: 185 185 122
Width: 303
GlyphClass: 2
Flags: W
LayerCount: 2
Fore
SplineSet
131 729 m 1,0,-1
 47 706 l 1,1,-1
 56 772 l 1,2,-1
 191 835 l 1,3,-1
 241 835 l 1,4,-1
 177 380 l 1,5,-1
 82 380 l 1,6,-1
 131 729 l 1,0,-1
EndSplineSet
EndChar

StartChar: ordmasculine
Encoding: 186 186 123
Width: 397
GlyphClass: 2
Flags: W
LayerCount: 2
Fore
SplineSet
368 686 m 128,-1,1
 407 639 407 639 396 564 c 0,2,3
 386 491 386 491 334 444.5 c 128,-1,4
 282 398 282 398 208 398 c 128,-1,5
 134 398 134 398 95.5 444.5 c 128,-1,6
 57 491 57 491 67 564 c 0,7,8
 78 639 78 639 130.5 686 c 128,-1,9
 183 733 183 733 255 733 c 0,10,0
 329 733 329 733 368 686 c 128,-1,1
168 566 m 128,-1,12
 154 463 154 463 217 463 c 0,13,14
 283 463 283 463 298 566 c 0,15,16
 312 669 312 669 246 669 c 0,17,11
 182 669 182 669 168 566 c 128,-1,12
EndSplineSet
EndChar

StartChar: guillemotright
Encoding: 187 187 124
Width: 496
GlyphClass: 2
Flags: W
LayerCount: 2
Fore
SplineSet
70 446 m 1,0,-1
 150 446 l 1,1,-1
 239 251 l 1,2,-1
 95 64 l 1,3,-1
 16 64 l 1,4,-1
 121 251 l 1,5,-1
 70 446 l 1,0,-1
261 446 m 1,6,-1
 342 446 l 1,7,-1
 430 251 l 1,8,-1
 287 64 l 1,9,-1
 207 64 l 1,10,-1
 313 251 l 1,11,-1
 261 446 l 1,6,-1
EndSplineSet
EndChar

StartChar: onequarter
Encoding: 188 188 125
Width: 973
GlyphClass: 2
Flags: W
LayerCount: 2
Fore
SplineSet
116 625 m 1,0,-1
 32 602 l 1,1,-1
 41 668 l 1,2,-1
 176 731 l 1,3,-1
 226 731 l 1,4,-1
 162 276 l 1,5,-1
 67 276 l 1,6,-1
 116 625 l 1,0,-1
177 -4 m 1,7,-1
 91 -3 l 1,8,-1
 681 731 l 1,9,-1
 767 731 l 1,10,-1
 177 -4 l 1,7,-1
883 455 m 1,11,-1
 844 181 l 1,12,-1
 912 181 l 1,13,-1
 901 99 l 1,14,-1
 833 99 l 1,15,-1
 819 0 l 1,16,-1
 723 0 l 1,17,-1
 738 99 l 1,18,-1
 533 99 l 1,19,-1
 545 179 l 1,20,-1
 788 455 l 1,21,-1
 883 455 l 1,11,-1
749 181 m 1,22,-1
 769 323 l 1,23,-1
 643 181 l 1,24,-1
 749 181 l 1,22,-1
EndSplineSet
EndChar

StartChar: onehalf
Encoding: 189 189 126
Width: 942
GlyphClass: 2
Flags: W
LayerCount: 2
Fore
SplineSet
116 625 m 1,0,-1
 32 602 l 1,1,-1
 41 668 l 1,2,-1
 176 731 l 1,3,-1
 226 731 l 1,4,-1
 162 276 l 1,5,-1
 67 276 l 1,6,-1
 116 625 l 1,0,-1
177 -4 m 1,7,-1
 91 -3 l 1,8,-1
 681 731 l 1,9,-1
 767 731 l 1,10,-1
 177 -4 l 1,7,-1
532 70 m 1,11,-1
 692 197 l 2,12,13
 737 232 737 232 760 252.5 c 128,-1,14
 783 273 783 273 792.5 288.5 c 128,-1,15
 802 304 802 304 805 322 c 0,16,17
 808 350 808 350 791 366 c 128,-1,18
 774 382 774 382 745 382 c 0,19,20
 715 382 715 382 689.5 366 c 128,-1,21
 664 350 664 350 649 316 c 1,22,-1
 562 321 l 1,23,24
 578 385 578 385 629 423 c 128,-1,25
 680 461 680 461 759 461 c 0,26,27
 808 461 808 461 843 444 c 128,-1,28
 878 427 878 427 894.5 396 c 128,-1,29
 911 365 911 365 905 323 c 0,30,31
 899 287 899 287 877.5 258.5 c 128,-1,32
 856 230 856 230 802 185 c 2,33,-1
 676 80 l 1,34,-1
 875 80 l 1,35,-1
 864 0 l 1,36,-1
 522 0 l 1,37,-1
 532 70 l 1,11,-1
EndSplineSet
EndChar

StartChar: threequarters
Encoding: 190 190 127
Width: 1071
GlyphClass: 2
Flags: W
LayerCount: 2
Fore
SplineSet
135 710 m 128,-1,1
 192 740 192 740 268 740 c 0,2,3
 317 740 317 740 355 725 c 128,-1,4
 393 710 393 710 412 682.5 c 128,-1,5
 431 655 431 655 426 621 c 0,6,7
 416 552 416 552 327 522 c 1,8,9
 366 511 366 511 391 482.5 c 128,-1,10
 416 454 416 454 410 410 c 0,11,12
 404 368 404 368 372.5 337 c 128,-1,13
 341 306 341 306 295 289.5 c 128,-1,14
 249 273 249 273 200 273 c 0,15,16
 114 273 114 273 69.5 301.5 c 128,-1,17
 25 330 25 330 27 402 c 1,18,-1
 117 407 l 1,19,20
 124 375 124 375 148 362 c 128,-1,21
 172 349 172 349 205 349 c 0,22,23
 246 349 246 349 273.5 366.5 c 128,-1,24
 301 384 301 384 305 410 c 0,25,26
 309 438 309 438 287.5 456.5 c 128,-1,27
 266 475 266 475 231 475 c 2,28,-1
 169 476 l 1,29,-1
 179 551 l 1,30,-1
 233 553 l 2,31,32
 269 554 269 554 294.5 571 c 128,-1,33
 320 588 320 588 323 614 c 0,34,35
 326 637 326 637 306 652 c 128,-1,36
 286 667 286 667 256 667 c 0,37,38
 218 667 218 667 190.5 654.5 c 128,-1,39
 163 642 163 642 149 608 c 1,40,-1
 62 613 l 1,41,0
 78 680 78 680 135 710 c 128,-1,1
275 -4 m 1,42,-1
 189 -3 l 1,43,-1
 779 731 l 1,44,-1
 865 731 l 1,45,-1
 275 -4 l 1,42,-1
981 455 m 1,46,-1
 942 181 l 1,47,-1
 1010 181 l 1,48,-1
 999 99 l 1,49,-1
 931 99 l 1,50,-1
 917 0 l 1,51,-1
 821 0 l 1,52,-1
 836 99 l 1,53,-1
 631 99 l 1,54,-1
 643 179 l 1,55,-1
 886 455 l 1,56,-1
 981 455 l 1,46,-1
847 181 m 1,57,-1
 867 323 l 1,58,-1
 741 181 l 1,59,-1
 847 181 l 1,57,-1
EndSplineSet
EndChar

StartChar: questiondown
Encoding: 191 191 128
Width: 541
GlyphClass: 2
Flags: W
LayerCount: 2
Fore
SplineSet
228 517 m 1,0,-1
 393 517 l 1,1,-1
 370 357 l 1,2,-1
 205 357 l 1,3,-1
 228 517 l 1,0,-1
364 -128 m 128,-1,5
 292 -171 292 -171 200 -171 c 0,6,7
 123 -171 123 -171 72 -148.5 c 128,-1,8
 21 -126 21 -126 -1 -87 c 128,-1,9
 -23 -48 -23 -48 -16 0 c 0,10,11
 -11 39 -11 39 8 68.5 c 128,-1,12
 27 98 27 98 50 118 c 128,-1,13
 73 138 73 138 110 163 c 0,14,15
 160 197 160 197 185.5 224.5 c 128,-1,16
 211 252 211 252 217 294 c 1,17,-1
 339 294 l 1,18,19
 333 251 333 251 314.5 218 c 128,-1,20
 296 185 296 185 273.5 162 c 128,-1,21
 251 139 251 139 216 112 c 0,22,23
 178 81 178 81 158.5 59 c 128,-1,24
 139 37 139 37 135 8 c 0,25,26
 131 -24 131 -24 154 -44.5 c 128,-1,27
 177 -65 177 -65 216 -65 c 0,28,29
 256 -65 256 -65 295 -39.5 c 128,-1,30
 334 -14 334 -14 356 26 c 1,31,-1
 479 -4 l 1,32,4
 436 -85 436 -85 364 -128 c 128,-1,5
EndSplineSet
EndChar

StartChar: Agrave
Encoding: 192 192 129
Width: 713
GlyphClass: 2
Flags: W
AnchorPoint: "Anchor-5" -46 0 basechar 0
AnchorPoint: "Anchor-4" -46 0 basechar 0
AnchorPoint: "Anchor-3" 321 723 basechar 0
AnchorPoint: "Anchor-2" 647 10 basechar 0
LayerCount: 2
Fore
SplineSet
334 723 m 1,0,-1
 492 723 l 1,1,-1
 648 0 l 1,2,-1
 498 0 l 1,3,-1
 463 165 l 1,4,-1
 206 165 l 1,5,-1
 124 0 l 1,6,-1
 -27 0 l 1,7,-1
 334 723 l 1,0,-1
447 296 m 1,8,-1
 392 578 l 1,9,-1
 259 296 l 1,10,-1
 447 296 l 1,8,-1
577 837 m 1,11,-1
 547 773 l 1,12,-1
 289 842 l 1,13,-1
 338 940 l 1,14,-1
 577 837 l 1,11,-1
EndSplineSet
EndChar

StartChar: Aacute
Encoding: 193 193 130
Width: 713
GlyphClass: 2
Flags: W
AnchorPoint: "Anchor-5" -46 0 basechar 0
AnchorPoint: "Anchor-4" -46 0 basechar 0
AnchorPoint: "Anchor-3" 321 723 basechar 0
AnchorPoint: "Anchor-2" 647 10 basechar 0
LayerCount: 2
Fore
SplineSet
334 723 m 1,0,-1
 492 723 l 1,1,-1
 648 0 l 1,2,-1
 498 0 l 1,3,-1
 463 165 l 1,4,-1
 206 165 l 1,5,-1
 124 0 l 1,6,-1
 -27 0 l 1,7,-1
 334 723 l 1,0,-1
447 296 m 1,8,-1
 392 578 l 1,9,-1
 259 296 l 1,10,-1
 447 296 l 1,8,-1
583 842 m 1,11,-1
 308 773 l 1,12,-1
 296 837 l 1,13,-1
 564 940 l 1,14,-1
 583 842 l 1,11,-1
EndSplineSet
EndChar

StartChar: Acircumflex
Encoding: 194 194 131
Width: 713
GlyphClass: 2
Flags: W
AnchorPoint: "Anchor-5" -46 0 basechar 0
AnchorPoint: "Anchor-4" -46 0 basechar 0
AnchorPoint: "Anchor-3" 321 723 basechar 0
AnchorPoint: "Anchor-2" 647 10 basechar 0
LayerCount: 2
Fore
SplineSet
334 723 m 1,0,-1
 492 723 l 1,1,-1
 648 0 l 1,2,-1
 498 0 l 1,3,-1
 463 165 l 1,4,-1
 206 165 l 1,5,-1
 124 0 l 1,6,-1
 -27 0 l 1,7,-1
 334 723 l 1,0,-1
447 296 m 1,8,-1
 392 578 l 1,9,-1
 259 296 l 1,10,-1
 447 296 l 1,8,-1
443 875 m 1,11,-1
 359 800 l 1,12,-1
 248 800 l 1,13,-1
 401 936 l 1,14,-1
 505 936 l 1,15,-1
 614 800 l 1,16,-1
 497 800 l 1,17,-1
 443 875 l 1,11,-1
EndSplineSet
EndChar

StartChar: Atilde
Encoding: 195 195 132
Width: 713
GlyphClass: 2
Flags: W
AnchorPoint: "Anchor-5" -46 0 basechar 0
AnchorPoint: "Anchor-4" -46 0 basechar 0
AnchorPoint: "Anchor-3" 321 723 basechar 0
AnchorPoint: "Anchor-2" 647 10 basechar 0
LayerCount: 2
Fore
SplineSet
334 723 m 1,0,-1
 492 723 l 1,1,-1
 648 0 l 1,2,-1
 498 0 l 1,3,-1
 463 165 l 1,4,-1
 206 165 l 1,5,-1
 124 0 l 1,6,-1
 -27 0 l 1,7,-1
 334 723 l 1,0,-1
447 296 m 1,8,-1
 392 578 l 1,9,-1
 259 296 l 1,10,-1
 447 296 l 1,8,-1
561 825 m 128,-1,12
 537 817 537 817 511 817 c 0,13,14
 492 817 492 817 478 820.5 c 128,-1,15
 464 824 464 824 438 832 c 0,16,17
 422 837 422 837 404.5 841.5 c 128,-1,18
 387 846 387 846 370 846 c 0,19,20
 350 846 350 846 336 841 c 128,-1,21
 322 836 322 836 302 823 c 0,22,23
 294 818 294 818 291 818 c 0,24,25
 285 818 285 818 284 829 c 2,26,-1
 276 872 l 2,27,28
 275 878 275 878 275 881 c 0,29,30
 276 887 276 887 285 895 c 0,31,32
 306 912 306 912 327.5 921.5 c 128,-1,33
 349 931 349 931 377 931 c 0,34,35
 397 931 397 931 415 926.5 c 128,-1,36
 433 922 433 922 458 914 c 0,37,38
 474 909 474 909 491 904.5 c 128,-1,39
 508 900 508 900 522 900 c 0,40,41
 541 900 541 900 557.5 906.5 c 128,-1,42
 574 913 574 913 593 924 c 0,43,44
 599 928 599 928 604 928 c 0,45,46
 611 928 611 928 613 918 c 2,47,-1
 617 867 l 2,48,49
 618 865 618 865 617 860 c 0,50,51
 616 852 616 852 604 844 c 0,52,11
 585 833 585 833 561 825 c 128,-1,12
EndSplineSet
EndChar

StartChar: Adieresis
Encoding: 196 196 133
Width: 713
GlyphClass: 2
Flags: W
AnchorPoint: "Anchor-5" -46 0 basechar 0
AnchorPoint: "Anchor-4" -46 0 basechar 0
AnchorPoint: "Anchor-3" 321 723 basechar 0
AnchorPoint: "Anchor-2" 647 10 basechar 0
LayerCount: 2
Fore
SplineSet
334 723 m 1,0,-1
 492 723 l 1,1,-1
 648 0 l 1,2,-1
 498 0 l 1,3,-1
 463 165 l 1,4,-1
 206 165 l 1,5,-1
 124 0 l 1,6,-1
 -27 0 l 1,7,-1
 334 723 l 1,0,-1
447 296 m 1,8,-1
 392 578 l 1,9,-1
 259 296 l 1,10,-1
 447 296 l 1,8,-1
401 802 m 1,11,-1
 268 802 l 1,12,-1
 286 929 l 1,13,-1
 419 929 l 1,14,-1
 401 802 l 1,11,-1
600 802 m 1,15,-1
 467 802 l 1,16,-1
 485 929 l 1,17,-1
 618 929 l 1,18,-1
 600 802 l 1,15,-1
EndSplineSet
EndChar

StartChar: Aring
Encoding: 197 197 134
Width: 713
GlyphClass: 2
Flags: W
AnchorPoint: "Anchor-5" -46 0 basechar 0
AnchorPoint: "Anchor-4" -46 0 basechar 0
AnchorPoint: "Anchor-3" 321 723 basechar 0
AnchorPoint: "Anchor-2" 647 10 basechar 0
LayerCount: 2
Fore
SplineSet
334 723 m 1,0,-1
 492 723 l 1,1,-1
 648 0 l 1,2,-1
 498 0 l 1,3,-1
 463 165 l 1,4,-1
 206 165 l 1,5,-1
 124 0 l 1,6,-1
 -27 0 l 1,7,-1
 334 723 l 1,0,-1
447 296 m 1,8,-1
 392 578 l 1,9,-1
 259 296 l 1,10,-1
 447 296 l 1,8,-1
512 804.5 m 128,-1,12
 476 773 476 773 430 773 c 128,-1,13
 384 773 384 773 357 805 c 128,-1,14
 330 837 330 837 336 884 c 0,15,16
 342 927 342 927 378.5 958 c 128,-1,17
 415 989 415 989 460 989 c 0,18,19
 506 989 506 989 533.5 958 c 128,-1,20
 561 927 561 927 555 882 c 0,21,11
 548 836 548 836 512 804.5 c 128,-1,12
484 916 m 128,-1,23
 472 930 472 930 451 930 c 128,-1,24
 430 930 430 930 413.5 916 c 128,-1,25
 397 902 397 902 394 881 c 0,26,27
 391 861 391 861 404 845.5 c 128,-1,28
 417 830 417 830 437 830 c 128,-1,29
 457 830 457 830 473.5 845.5 c 128,-1,30
 490 861 490 861 493 881 c 0,31,22
 496 902 496 902 484 916 c 128,-1,23
EndSplineSet
EndChar

StartChar: AE
Encoding: 198 198 135
Width: 1071
GlyphClass: 2
Flags: W
AnchorPoint: "Anchor-5" -46 0 basechar 0
AnchorPoint: "Anchor-4" -46 0 basechar 0
AnchorPoint: "Anchor-3" 643 723 basechar 0
AnchorPoint: "Anchor-2" -46 0 basechar 0
LayerCount: 2
Fore
SplineSet
968 0 m 1,0,-1
 443 0 l 1,1,-1
 466 166 l 1,2,-1
 234 166 l 1,3,-1
 124 0 l 1,4,-1
 -27 0 l 1,5,-1
 461 723 l 1,6,-1
 1060 723 l 1,7,-1
 1041 598 l 1,8,-1
 699 598 l 1,9,-1
 675 426 l 1,10,-1
 906 426 l 1,11,-1
 888 302 l 1,12,-1
 657 302 l 1,13,-1
 633 126 l 1,14,-1
 986 126 l 1,15,-1
 968 0 l 1,0,-1
531 625 m 1,16,-1
 310 296 l 1,17,-1
 485 296 l 1,18,-1
 531 625 l 1,16,-1
EndSplineSet
EndChar

StartChar: Ccedilla
Encoding: 199 199 136
Width: 711
GlyphClass: 2
Flags: W
AnchorPoint: "Anchor-5" -46 0 basechar 0
AnchorPoint: "Anchor-4" 327 0 basechar 0
AnchorPoint: "Anchor-3" 327 723 basechar 0
AnchorPoint: "Anchor-2" -46 0 basechar 0
LayerCount: 2
Fore
SplineSet
569.5 701.5 m 128,-1,1
 630 670 630 670 662 614 c 128,-1,2
 694 558 694 558 691 487 c 1,3,-1
 533 485 l 1,4,5
 530 543 530 543 498.5 576 c 128,-1,6
 467 609 467 609 406 609 c 0,7,8
 248 609 248 609 213 365 c 0,9,10
 195 238 195 238 228.5 176 c 128,-1,11
 262 114 262 114 339 114 c 0,12,13
 394 114 394 114 436.5 150.5 c 128,-1,14
 479 187 479 187 499 246 c 1,15,-1
 656 243 l 1,16,17
 625 129 625 129 545.5 59.5 c 128,-1,18
 466 -10 466 -10 326 -10 c 0,19,20
 226 -10 226 -10 158 37.5 c 128,-1,21
 90 85 90 85 61.5 170.5 c 128,-1,22
 33 256 33 256 49 368 c 0,23,24
 65 479 65 479 116 561.5 c 128,-1,25
 167 644 167 644 247 688.5 c 128,-1,26
 327 733 327 733 428 733 c 0,27,0
 509 733 509 733 569.5 701.5 c 128,-1,1
382 -191 m 128,-1,29
 344 -213 344 -213 293 -213 c 0,30,31
 221 -213 221 -213 181 -186 c 1,32,-1
 208 -136 l 1,33,34
 244 -161 244 -161 282 -161 c 0,35,36
 305 -161 305 -161 319.5 -152.5 c 128,-1,37
 334 -144 334 -144 336 -130 c 0,38,39
 339 -110 339 -110 320.5 -100 c 128,-1,40
 302 -90 302 -90 256 -90 c 0,41,42
 243 -90 243 -90 250 -80 c 2,43,-1
 299 5 l 1,44,-1
 365 5 l 1,45,-1
 335 -53 l 1,46,47
 387 -54 387 -54 408.5 -77.5 c 128,-1,48
 430 -101 430 -101 425 -132 c 0,49,28
 420 -169 420 -169 382 -191 c 128,-1,29
EndSplineSet
EndChar

StartChar: Egrave
Encoding: 200 200 137
Width: 638
GlyphClass: 2
Flags: W
AnchorPoint: "Anchor-5" -46 0 basechar 0
AnchorPoint: "Anchor-4" 291 0 basechar 0
AnchorPoint: "Anchor-3" 285 723 basechar 0
AnchorPoint: "Anchor-2" 533 10 basechar 0
LayerCount: 2
Fore
SplineSet
133 723 m 1,0,-1
 634 723 l 1,1,-1
 615 596 l 1,2,-1
 267 596 l 1,3,-1
 243 426 l 1,4,-1
 544 426 l 1,5,-1
 526 302 l 1,6,-1
 224 302 l 1,7,-1
 200 128 l 1,8,-1
 554 128 l 1,9,-1
 536 0 l 1,10,-1
 31 0 l 1,11,-1
 133 723 l 1,0,-1
541 837 m 1,12,-1
 511 773 l 1,13,-1
 253 842 l 1,14,-1
 302 940 l 1,15,-1
 541 837 l 1,12,-1
EndSplineSet
EndChar

StartChar: Eacute
Encoding: 201 201 138
Width: 638
GlyphClass: 2
Flags: W
AnchorPoint: "Anchor-5" -46 0 basechar 0
AnchorPoint: "Anchor-4" 291 0 basechar 0
AnchorPoint: "Anchor-3" 285 723 basechar 0
AnchorPoint: "Anchor-2" 533 10 basechar 0
LayerCount: 2
Fore
SplineSet
133 723 m 1,0,-1
 634 723 l 1,1,-1
 615 596 l 1,2,-1
 267 596 l 1,3,-1
 243 426 l 1,4,-1
 544 426 l 1,5,-1
 526 302 l 1,6,-1
 224 302 l 1,7,-1
 200 128 l 1,8,-1
 554 128 l 1,9,-1
 536 0 l 1,10,-1
 31 0 l 1,11,-1
 133 723 l 1,0,-1
547 842 m 1,12,-1
 272 773 l 1,13,-1
 260 837 l 1,14,-1
 528 940 l 1,15,-1
 547 842 l 1,12,-1
EndSplineSet
EndChar

StartChar: Ecircumflex
Encoding: 202 202 139
Width: 638
GlyphClass: 2
Flags: W
AnchorPoint: "Anchor-5" -46 0 basechar 0
AnchorPoint: "Anchor-4" 291 0 basechar 0
AnchorPoint: "Anchor-3" 285 723 basechar 0
AnchorPoint: "Anchor-2" 533 10 basechar 0
LayerCount: 2
Fore
SplineSet
133 723 m 1,0,-1
 634 723 l 1,1,-1
 615 596 l 1,2,-1
 267 596 l 1,3,-1
 243 426 l 1,4,-1
 544 426 l 1,5,-1
 526 302 l 1,6,-1
 224 302 l 1,7,-1
 200 128 l 1,8,-1
 554 128 l 1,9,-1
 536 0 l 1,10,-1
 31 0 l 1,11,-1
 133 723 l 1,0,-1
407 875 m 1,12,-1
 323 800 l 1,13,-1
 212 800 l 1,14,-1
 365 936 l 1,15,-1
 469 936 l 1,16,-1
 578 800 l 1,17,-1
 461 800 l 1,18,-1
 407 875 l 1,12,-1
EndSplineSet
EndChar

StartChar: Edieresis
Encoding: 203 203 140
Width: 638
GlyphClass: 2
Flags: W
AnchorPoint: "Anchor-5" -46 0 basechar 0
AnchorPoint: "Anchor-4" 291 0 basechar 0
AnchorPoint: "Anchor-3" 285 723 basechar 0
AnchorPoint: "Anchor-2" 533 10 basechar 0
LayerCount: 2
Fore
SplineSet
133 723 m 1,0,-1
 634 723 l 1,1,-1
 615 596 l 1,2,-1
 267 596 l 1,3,-1
 243 426 l 1,4,-1
 544 426 l 1,5,-1
 526 302 l 1,6,-1
 224 302 l 1,7,-1
 200 128 l 1,8,-1
 554 128 l 1,9,-1
 536 0 l 1,10,-1
 31 0 l 1,11,-1
 133 723 l 1,0,-1
365 802 m 1,12,-1
 232 802 l 1,13,-1
 250 929 l 1,14,-1
 383 929 l 1,15,-1
 365 802 l 1,12,-1
564 802 m 1,16,-1
 431 802 l 1,17,-1
 449 929 l 1,18,-1
 582 929 l 1,19,-1
 564 802 l 1,16,-1
EndSplineSet
EndChar

StartChar: Igrave
Encoding: 204 204 141
Width: 305
GlyphClass: 2
Flags: W
AnchorPoint: "Anchor-5" -46 0 basechar 0
AnchorPoint: "Anchor-4" 115 0 basechar 0
AnchorPoint: "Anchor-3" 108 723 basechar 0
AnchorPoint: "Anchor-2" 163 5 basechar 0
LayerCount: 2
Fore
SplineSet
284 723 m 1,0,-1
 182 0 l 1,1,-1
 31 0 l 1,2,-1
 133 723 l 1,3,-1
 284 723 l 1,0,-1
364 837 m 1,4,-1
 334 773 l 1,5,-1
 76 842 l 1,6,-1
 125 940 l 1,7,-1
 364 837 l 1,4,-1
EndSplineSet
EndChar

StartChar: Iacute
Encoding: 205 205 142
Width: 305
GlyphClass: 2
Flags: W
AnchorPoint: "Anchor-5" -46 0 basechar 0
AnchorPoint: "Anchor-4" 115 0 basechar 0
AnchorPoint: "Anchor-3" 108 723 basechar 0
AnchorPoint: "Anchor-2" 163 5 basechar 0
LayerCount: 2
Fore
SplineSet
284 723 m 1,0,-1
 182 0 l 1,1,-1
 31 0 l 1,2,-1
 133 723 l 1,3,-1
 284 723 l 1,0,-1
370 842 m 1,4,-1
 95 773 l 1,5,-1
 83 837 l 1,6,-1
 351 940 l 1,7,-1
 370 842 l 1,4,-1
EndSplineSet
EndChar

StartChar: Icircumflex
Encoding: 206 206 143
Width: 305
GlyphClass: 2
Flags: W
AnchorPoint: "Anchor-5" -46 0 basechar 0
AnchorPoint: "Anchor-4" 115 0 basechar 0
AnchorPoint: "Anchor-3" 108 723 basechar 0
AnchorPoint: "Anchor-2" 163 5 basechar 0
LayerCount: 2
Fore
SplineSet
284 723 m 1,0,-1
 182 0 l 1,1,-1
 31 0 l 1,2,-1
 133 723 l 1,3,-1
 284 723 l 1,0,-1
230 875 m 1,4,-1
 146 800 l 1,5,-1
 35 800 l 1,6,-1
 188 936 l 1,7,-1
 292 936 l 1,8,-1
 401 800 l 1,9,-1
 284 800 l 1,10,-1
 230 875 l 1,4,-1
EndSplineSet
EndChar

StartChar: Idieresis
Encoding: 207 207 144
Width: 305
GlyphClass: 2
Flags: W
AnchorPoint: "Anchor-5" -46 0 basechar 0
AnchorPoint: "Anchor-4" 115 0 basechar 0
AnchorPoint: "Anchor-3" 108 723 basechar 0
AnchorPoint: "Anchor-2" 163 5 basechar 0
LayerCount: 2
Fore
SplineSet
284 723 m 1,0,-1
 182 0 l 1,1,-1
 31 0 l 1,2,-1
 133 723 l 1,3,-1
 284 723 l 1,0,-1
188 802 m 1,4,-1
 55 802 l 1,5,-1
 73 929 l 1,6,-1
 206 929 l 1,7,-1
 188 802 l 1,4,-1
387 802 m 1,8,-1
 254 802 l 1,9,-1
 272 929 l 1,10,-1
 405 929 l 1,11,-1
 387 802 l 1,8,-1
EndSplineSet
EndChar

StartChar: Eth
Encoding: 208 208 145
Width: 739
GlyphClass: 2
Flags: W
AnchorPoint: "Anchor-5" -46 0 basechar 0
AnchorPoint: "Anchor-4" -46 0 basechar 0
AnchorPoint: "Anchor-3" 334 723 basechar 0
AnchorPoint: "Anchor-2" -46 0 basechar 0
LayerCount: 2
Fore
SplineSet
647.5 624.5 m 128,-1,1
 726 532 726 532 702 365 c 0,2,3
 678 192 678 192 569.5 96 c 128,-1,4
 461 0 461 0 271 0 c 2,5,-1
 55 0 l 1,6,-1
 97 302 l 1,7,-1
 49 302 l 2,8,9
 37 302 37 302 33 306.5 c 128,-1,10
 29 311 29 311 30 322 c 2,11,-1
 40 394 l 2,12,13
 43 412 43 412 59 412 c 2,14,-1
 113 412 l 1,15,-1
 157 723 l 1,16,17
 316 723 316 723 377 722 c 0,18,0
 569 717 569 717 647.5 624.5 c 128,-1,1
458 181 m 128,-1,20
 527 240 527 240 544 366 c 0,21,22
 561 487 561 487 513 544.5 c 128,-1,23
 465 602 465 602 361 602 c 2,24,-1
 292 602 l 1,25,-1
 265 412 l 1,26,-1
 399 412 l 2,27,28
 413 412 413 412 411 396 c 2,29,-1
 401 325 l 2,30,31
 399 312 399 312 392 307 c 128,-1,32
 385 302 385 302 371 302 c 2,33,-1
 249 302 l 1,34,-1
 224 122 l 1,35,-1
 292 122 l 2,36,19
 389 122 389 122 458 181 c 128,-1,20
EndSplineSet
EndChar

StartChar: Ntilde
Encoding: 209 209 146
Width: 780
GlyphClass: 2
Flags: W
AnchorPoint: "Anchor-5" -46 0 basechar 0
AnchorPoint: "Anchor-4" 337 0 basechar 0
AnchorPoint: "Anchor-3" 348 723 basechar 0
AnchorPoint: "Anchor-2" -46 0 basechar 0
LayerCount: 2
Fore
SplineSet
759 723 m 1,0,-1
 657 0 l 1,1,-1
 521 0 l 1,2,-1
 251 491 l 1,3,-1
 182 0 l 1,4,-1
 31 0 l 1,5,-1
 133 723 l 1,6,-1
 283 723 l 1,7,-1
 541 252 l 1,8,-1
 608 723 l 1,9,-1
 759 723 l 1,0,-1
588 825 m 128,-1,11
 564 817 564 817 538 817 c 0,12,13
 519 817 519 817 505 820.5 c 128,-1,14
 491 824 491 824 465 832 c 0,15,16
 449 837 449 837 431.5 841.5 c 128,-1,17
 414 846 414 846 397 846 c 0,18,19
 377 846 377 846 363 841 c 128,-1,20
 349 836 349 836 329 823 c 0,21,22
 321 818 321 818 318 818 c 0,23,24
 312 818 312 818 311 829 c 2,25,-1
 303 872 l 2,26,27
 302 878 302 878 302 881 c 0,28,29
 303 887 303 887 312 895 c 0,30,31
 333 912 333 912 354.5 921.5 c 128,-1,32
 376 931 376 931 404 931 c 0,33,34
 424 931 424 931 442 926.5 c 128,-1,35
 460 922 460 922 485 914 c 0,36,37
 501 909 501 909 518 904.5 c 128,-1,38
 535 900 535 900 549 900 c 0,39,40
 568 900 568 900 584.5 906.5 c 128,-1,41
 601 913 601 913 620 924 c 0,42,43
 626 928 626 928 631 928 c 0,44,45
 638 928 638 928 640 918 c 2,46,-1
 644 867 l 2,47,48
 645 865 645 865 644 860 c 0,49,50
 643 852 643 852 631 844 c 0,51,10
 612 833 612 833 588 825 c 128,-1,11
EndSplineSet
EndChar

StartChar: Ograve
Encoding: 210 210 147
Width: 754
GlyphClass: 2
Flags: W
AnchorPoint: "Anchor-5" -46 0 basechar 0
AnchorPoint: "Anchor-4" 333 0 basechar 0
AnchorPoint: "Anchor-3" 332 723 basechar 0
AnchorPoint: "Anchor-2" 416 10 basechar 0
LayerCount: 2
Fore
SplineSet
158.5 34.5 m 128,-1,1
 89 79 89 79 60 162 c 128,-1,2
 31 245 31 245 47 359 c 0,3,4
 63 474 63 474 116.5 558.5 c 128,-1,5
 170 643 170 643 252 688 c 128,-1,6
 334 733 334 733 435 733 c 0,7,8
 535 733 535 733 604 688 c 128,-1,9
 673 643 673 643 702.5 558.5 c 128,-1,10
 732 474 732 474 716 360 c 0,11,12
 700 247 700 247 647.5 163.5 c 128,-1,13
 595 80 595 80 513.5 35 c 128,-1,14
 432 -10 432 -10 331 -10 c 0,15,0
 228 -10 228 -10 158.5 34.5 c 128,-1,1
551 358 m 0,16,17
 569 487 569 487 534 548 c 128,-1,18
 499 609 499 609 418 609 c 128,-1,19
 337 609 337 609 283.5 548 c 128,-1,20
 230 487 230 487 212 358 c 0,21,22
 194 232 194 232 230.5 173 c 128,-1,23
 267 114 267 114 348 114 c 0,24,25
 517 114 517 114 551 358 c 0,16,17
588 837 m 1,26,-1
 558 773 l 1,27,-1
 300 842 l 1,28,-1
 349 940 l 1,29,-1
 588 837 l 1,26,-1
EndSplineSet
EndChar

StartChar: Oacute
Encoding: 211 211 148
Width: 754
GlyphClass: 2
Flags: W
AnchorPoint: "Anchor-5" -46 0 basechar 0
AnchorPoint: "Anchor-4" 333 0 basechar 0
AnchorPoint: "Anchor-3" 332 723 basechar 0
AnchorPoint: "Anchor-2" 416 10 basechar 0
LayerCount: 2
Fore
SplineSet
158.5 34.5 m 128,-1,1
 89 79 89 79 60 162 c 128,-1,2
 31 245 31 245 47 359 c 0,3,4
 63 474 63 474 116.5 558.5 c 128,-1,5
 170 643 170 643 252 688 c 128,-1,6
 334 733 334 733 435 733 c 0,7,8
 535 733 535 733 604 688 c 128,-1,9
 673 643 673 643 702.5 558.5 c 128,-1,10
 732 474 732 474 716 360 c 0,11,12
 700 247 700 247 647.5 163.5 c 128,-1,13
 595 80 595 80 513.5 35 c 128,-1,14
 432 -10 432 -10 331 -10 c 0,15,0
 228 -10 228 -10 158.5 34.5 c 128,-1,1
551 358 m 0,16,17
 569 487 569 487 534 548 c 128,-1,18
 499 609 499 609 418 609 c 128,-1,19
 337 609 337 609 283.5 548 c 128,-1,20
 230 487 230 487 212 358 c 0,21,22
 194 232 194 232 230.5 173 c 128,-1,23
 267 114 267 114 348 114 c 0,24,25
 517 114 517 114 551 358 c 0,16,17
594 842 m 1,26,-1
 319 773 l 1,27,-1
 307 837 l 1,28,-1
 575 940 l 1,29,-1
 594 842 l 1,26,-1
EndSplineSet
EndChar

StartChar: Ocircumflex
Encoding: 212 212 149
Width: 754
GlyphClass: 2
Flags: W
AnchorPoint: "Anchor-5" -46 0 basechar 0
AnchorPoint: "Anchor-4" 333 0 basechar 0
AnchorPoint: "Anchor-3" 332 723 basechar 0
AnchorPoint: "Anchor-2" 416 10 basechar 0
LayerCount: 2
Fore
SplineSet
158.5 34.5 m 128,-1,1
 89 79 89 79 60 162 c 128,-1,2
 31 245 31 245 47 359 c 0,3,4
 63 474 63 474 116.5 558.5 c 128,-1,5
 170 643 170 643 252 688 c 128,-1,6
 334 733 334 733 435 733 c 0,7,8
 535 733 535 733 604 688 c 128,-1,9
 673 643 673 643 702.5 558.5 c 128,-1,10
 732 474 732 474 716 360 c 0,11,12
 700 247 700 247 647.5 163.5 c 128,-1,13
 595 80 595 80 513.5 35 c 128,-1,14
 432 -10 432 -10 331 -10 c 0,15,0
 228 -10 228 -10 158.5 34.5 c 128,-1,1
551 358 m 0,16,17
 569 487 569 487 534 548 c 128,-1,18
 499 609 499 609 418 609 c 128,-1,19
 337 609 337 609 283.5 548 c 128,-1,20
 230 487 230 487 212 358 c 0,21,22
 194 232 194 232 230.5 173 c 128,-1,23
 267 114 267 114 348 114 c 0,24,25
 517 114 517 114 551 358 c 0,16,17
454 875 m 1,26,-1
 370 800 l 1,27,-1
 259 800 l 1,28,-1
 412 936 l 1,29,-1
 516 936 l 1,30,-1
 625 800 l 1,31,-1
 508 800 l 1,32,-1
 454 875 l 1,26,-1
EndSplineSet
EndChar

StartChar: Otilde
Encoding: 213 213 150
Width: 754
GlyphClass: 2
Flags: W
AnchorPoint: "Anchor-5" -46 0 basechar 0
AnchorPoint: "Anchor-4" 333 0 basechar 0
AnchorPoint: "Anchor-3" 332 723 basechar 0
AnchorPoint: "Anchor-2" 416 10 basechar 0
LayerCount: 2
Fore
SplineSet
158.5 34.5 m 128,-1,1
 89 79 89 79 60 162 c 128,-1,2
 31 245 31 245 47 359 c 0,3,4
 63 474 63 474 116.5 558.5 c 128,-1,5
 170 643 170 643 252 688 c 128,-1,6
 334 733 334 733 435 733 c 0,7,8
 535 733 535 733 604 688 c 128,-1,9
 673 643 673 643 702.5 558.5 c 128,-1,10
 732 474 732 474 716 360 c 0,11,12
 700 247 700 247 647.5 163.5 c 128,-1,13
 595 80 595 80 513.5 35 c 128,-1,14
 432 -10 432 -10 331 -10 c 0,15,0
 228 -10 228 -10 158.5 34.5 c 128,-1,1
551 358 m 0,16,17
 569 487 569 487 534 548 c 128,-1,18
 499 609 499 609 418 609 c 128,-1,19
 337 609 337 609 283.5 548 c 128,-1,20
 230 487 230 487 212 358 c 0,21,22
 194 232 194 232 230.5 173 c 128,-1,23
 267 114 267 114 348 114 c 0,24,25
 517 114 517 114 551 358 c 0,16,17
572 825 m 128,-1,27
 548 817 548 817 522 817 c 0,28,29
 503 817 503 817 489 820.5 c 128,-1,30
 475 824 475 824 449 832 c 0,31,32
 433 837 433 837 415.5 841.5 c 128,-1,33
 398 846 398 846 381 846 c 0,34,35
 361 846 361 846 347 841 c 128,-1,36
 333 836 333 836 313 823 c 0,37,38
 305 818 305 818 302 818 c 0,39,40
 296 818 296 818 295 829 c 2,41,-1
 287 872 l 2,42,43
 286 878 286 878 286 881 c 0,44,45
 287 887 287 887 296 895 c 0,46,47
 317 912 317 912 338.5 921.5 c 128,-1,48
 360 931 360 931 388 931 c 0,49,50
 408 931 408 931 426 926.5 c 128,-1,51
 444 922 444 922 469 914 c 0,52,53
 485 909 485 909 502 904.5 c 128,-1,54
 519 900 519 900 533 900 c 0,55,56
 552 900 552 900 568.5 906.5 c 128,-1,57
 585 913 585 913 604 924 c 0,58,59
 610 928 610 928 615 928 c 0,60,61
 622 928 622 928 624 918 c 2,62,-1
 628 867 l 2,63,64
 629 865 629 865 628 860 c 0,65,66
 627 852 627 852 615 844 c 0,67,26
 596 833 596 833 572 825 c 128,-1,27
EndSplineSet
EndChar

StartChar: Odieresis
Encoding: 214 214 151
Width: 754
GlyphClass: 2
Flags: W
AnchorPoint: "Anchor-5" -46 0 basechar 0
AnchorPoint: "Anchor-4" 333 0 basechar 0
AnchorPoint: "Anchor-3" 332 723 basechar 0
AnchorPoint: "Anchor-2" 416 10 basechar 0
LayerCount: 2
Fore
SplineSet
158.5 34.5 m 128,-1,1
 89 79 89 79 60 162 c 128,-1,2
 31 245 31 245 47 359 c 0,3,4
 63 474 63 474 116.5 558.5 c 128,-1,5
 170 643 170 643 252 688 c 128,-1,6
 334 733 334 733 435 733 c 0,7,8
 535 733 535 733 604 688 c 128,-1,9
 673 643 673 643 702.5 558.5 c 128,-1,10
 732 474 732 474 716 360 c 0,11,12
 700 247 700 247 647.5 163.5 c 128,-1,13
 595 80 595 80 513.5 35 c 128,-1,14
 432 -10 432 -10 331 -10 c 0,15,0
 228 -10 228 -10 158.5 34.5 c 128,-1,1
551 358 m 0,16,17
 569 487 569 487 534 548 c 128,-1,18
 499 609 499 609 418 609 c 128,-1,19
 337 609 337 609 283.5 548 c 128,-1,20
 230 487 230 487 212 358 c 0,21,22
 194 232 194 232 230.5 173 c 128,-1,23
 267 114 267 114 348 114 c 0,24,25
 517 114 517 114 551 358 c 0,16,17
412 802 m 1,26,-1
 279 802 l 1,27,-1
 297 929 l 1,28,-1
 430 929 l 1,29,-1
 412 802 l 1,26,-1
611 802 m 1,30,-1
 478 802 l 1,31,-1
 496 929 l 1,32,-1
 629 929 l 1,33,-1
 611 802 l 1,30,-1
EndSplineSet
EndChar

StartChar: multiply
Encoding: 215 215 152
Width: 580
GlyphClass: 2
Flags: W
LayerCount: 2
Fore
SplineSet
369 363 m 1,0,-1
 502 210 l 1,1,-1
 413 132 l 1,2,-1
 281 286 l 1,3,-1
 106 132 l 1,4,-1
 40 210 l 1,5,-1
 214 363 l 1,6,-1
 82 518 l 1,7,-1
 170 595 l 1,8,-1
 302 441 l 1,9,-1
 479 596 l 1,10,-1
 546 518 l 1,11,-1
 369 363 l 1,0,-1
EndSplineSet
EndChar

StartChar: Oslash
Encoding: 216 216 153
Width: 762
GlyphClass: 2
Flags: W
AnchorPoint: "Anchor-5" -46 0 basechar 0
AnchorPoint: "Anchor-4" -46 0 basechar 0
AnchorPoint: "Anchor-3" 332 723 basechar 0
AnchorPoint: "Anchor-2" -46 0 basechar 0
LayerCount: 2
Fore
SplineSet
790 669 m 0,0,1
 789 663 789 663 782 658 c 2,2,-1
 694 579 l 1,3,4
 734 489 734 489 717 360 c 0,5,6
 701 247 701 247 648.5 163.5 c 128,-1,7
 596 80 596 80 514.5 35 c 128,-1,8
 433 -10 433 -10 331 -10 c 0,9,10
 196 -10 196 -10 121 66 c 1,11,-1
 52 4 l 2,12,13
 42 -6 42 -6 33 -6 c 0,14,15
 25 -6 25 -6 17 4 c 2,16,-1
 -11 36 l 2,17,18
 -20 46 -20 46 -19 53 c 128,-1,19
 -18 60 -18 60 -11 66 c 2,20,-1
 70 139 l 1,21,22
 30 229 30 229 47 359 c 0,23,24
 63 474 63 474 116.5 558.5 c 128,-1,25
 170 643 170 643 252 688 c 128,-1,26
 334 733 334 733 435 733 c 0,27,28
 571 733 571 733 646 653 c 1,29,-1
 722 721 l 2,30,31
 731 729 731 729 738 729 c 0,32,33
 744 729 744 729 748 725 c 2,34,-1
 786 680 l 2,35,36
 791 676 791 676 790 669 c 0,0,1
228 275 m 1,37,-1
 526 549 l 1,38,39
 513 582 513 582 486 597.5 c 128,-1,40
 459 613 459 613 418 613 c 0,41,42
 338 613 338 613 292.5 552 c 128,-1,43
 247 491 247 491 228 358 c 0,44,45
 221 307 221 307 228 275 c 1,37,-1
536 442 m 1,46,-1
 239 169 l 1,47,48
 267 111 267 111 349 111 c 0,49,50
 429 111 429 111 473 169 c 128,-1,51
 517 227 517 227 535 358 c 0,52,53
 542 404 542 404 536 442 c 1,46,-1
EndSplineSet
EndChar

StartChar: Ugrave
Encoding: 217 217 154
Width: 737
GlyphClass: 2
Flags: W
AnchorPoint: "Anchor-5" -46 0 basechar 0
AnchorPoint: "Anchor-4" -46 0 basechar 0
AnchorPoint: "Anchor-3" 310 723 basechar 0
AnchorPoint: "Anchor-2" 399 11 basechar 0
LayerCount: 2
Fore
SplineSet
554.5 64.5 m 128,-1,1
 475 -10 475 -10 322 -10 c 0,2,3
 168 -10 168 -10 109.5 65 c 128,-1,4
 51 140 51 140 71 282 c 2,5,-1
 133 723 l 1,6,-1
 287 723 l 1,7,-1
 223 272 l 2,8,9
 212 194 212 194 244 156 c 128,-1,10
 276 118 276 118 340 118 c 0,11,12
 403 118 403 118 446 156 c 128,-1,13
 489 194 489 194 500 272 c 2,14,-1
 564 723 l 1,15,-1
 716 723 l 1,16,-1
 653 278 l 2,17,0
 634 139 634 139 554.5 64.5 c 128,-1,1
566 837 m 1,18,-1
 536 773 l 1,19,-1
 278 842 l 1,20,-1
 327 940 l 1,21,-1
 566 837 l 1,18,-1
EndSplineSet
EndChar

StartChar: Uacute
Encoding: 218 218 155
Width: 737
GlyphClass: 2
Flags: W
AnchorPoint: "Anchor-5" -46 0 basechar 0
AnchorPoint: "Anchor-4" -46 0 basechar 0
AnchorPoint: "Anchor-3" 310 723 basechar 0
AnchorPoint: "Anchor-2" 399 11 basechar 0
LayerCount: 2
Fore
SplineSet
554.5 64.5 m 128,-1,1
 475 -10 475 -10 322 -10 c 0,2,3
 168 -10 168 -10 109.5 65 c 128,-1,4
 51 140 51 140 71 282 c 2,5,-1
 133 723 l 1,6,-1
 287 723 l 1,7,-1
 223 272 l 2,8,9
 212 194 212 194 244 156 c 128,-1,10
 276 118 276 118 340 118 c 0,11,12
 403 118 403 118 446 156 c 128,-1,13
 489 194 489 194 500 272 c 2,14,-1
 564 723 l 1,15,-1
 716 723 l 1,16,-1
 653 278 l 2,17,0
 634 139 634 139 554.5 64.5 c 128,-1,1
572 842 m 1,18,-1
 297 773 l 1,19,-1
 285 837 l 1,20,-1
 553 940 l 1,21,-1
 572 842 l 1,18,-1
EndSplineSet
EndChar

StartChar: Ucircumflex
Encoding: 219 219 156
Width: 737
GlyphClass: 2
Flags: W
AnchorPoint: "Anchor-5" -46 0 basechar 0
AnchorPoint: "Anchor-4" -46 0 basechar 0
AnchorPoint: "Anchor-3" 310 723 basechar 0
AnchorPoint: "Anchor-2" 399 11 basechar 0
LayerCount: 2
Fore
SplineSet
554.5 64.5 m 128,-1,1
 475 -10 475 -10 322 -10 c 0,2,3
 168 -10 168 -10 109.5 65 c 128,-1,4
 51 140 51 140 71 282 c 2,5,-1
 133 723 l 1,6,-1
 287 723 l 1,7,-1
 223 272 l 2,8,9
 212 194 212 194 244 156 c 128,-1,10
 276 118 276 118 340 118 c 0,11,12
 403 118 403 118 446 156 c 128,-1,13
 489 194 489 194 500 272 c 2,14,-1
 564 723 l 1,15,-1
 716 723 l 1,16,-1
 653 278 l 2,17,0
 634 139 634 139 554.5 64.5 c 128,-1,1
432 875 m 1,18,-1
 348 800 l 1,19,-1
 237 800 l 1,20,-1
 390 936 l 1,21,-1
 494 936 l 1,22,-1
 603 800 l 1,23,-1
 486 800 l 1,24,-1
 432 875 l 1,18,-1
EndSplineSet
EndChar

StartChar: Udieresis
Encoding: 220 220 157
Width: 737
GlyphClass: 2
Flags: W
AnchorPoint: "Anchor-5" -46 0 basechar 0
AnchorPoint: "Anchor-4" -46 0 basechar 0
AnchorPoint: "Anchor-3" 310 723 basechar 0
AnchorPoint: "Anchor-2" 399 11 basechar 0
LayerCount: 2
Fore
SplineSet
554.5 64.5 m 128,-1,1
 475 -10 475 -10 322 -10 c 0,2,3
 168 -10 168 -10 109.5 65 c 128,-1,4
 51 140 51 140 71 282 c 2,5,-1
 133 723 l 1,6,-1
 287 723 l 1,7,-1
 223 272 l 2,8,9
 212 194 212 194 244 156 c 128,-1,10
 276 118 276 118 340 118 c 0,11,12
 403 118 403 118 446 156 c 128,-1,13
 489 194 489 194 500 272 c 2,14,-1
 564 723 l 1,15,-1
 716 723 l 1,16,-1
 653 278 l 2,17,0
 634 139 634 139 554.5 64.5 c 128,-1,1
390 802 m 1,18,-1
 257 802 l 1,19,-1
 275 929 l 1,20,-1
 408 929 l 1,21,-1
 390 802 l 1,18,-1
589 802 m 1,22,-1
 456 802 l 1,23,-1
 474 929 l 1,24,-1
 607 929 l 1,25,-1
 589 802 l 1,22,-1
EndSplineSet
EndChar

StartChar: Yacute
Encoding: 221 221 158
Width: 662
GlyphClass: 2
Flags: W
AnchorPoint: "Anchor-5" -46 0 basechar 0
AnchorPoint: "Anchor-4" -46 0 basechar 0
AnchorPoint: "Anchor-3" 301 723 basechar 0
AnchorPoint: "Anchor-2" -46 0 basechar 0
LayerCount: 2
Fore
SplineSet
403 304 m 1,0,-1
 360 0 l 1,1,-1
 209 0 l 1,2,-1
 252 304 l 1,3,-1
 60 723 l 1,4,-1
 223 723 l 1,5,-1
 346 434 l 1,6,-1
 549 723 l 1,7,-1
 714 723 l 1,8,-1
 403 304 l 1,0,-1
563 842 m 1,9,-1
 288 773 l 1,10,-1
 276 837 l 1,11,-1
 544 940 l 1,12,-1
 563 842 l 1,9,-1
EndSplineSet
EndChar

StartChar: Thorn
Encoding: 222 222 159
Width: 708
GlyphClass: 2
Flags: W
LayerCount: 2
Fore
SplineSet
590 206.5 m 128,-1,1
 510 149 510 149 390 149 c 2,2,-1
 224 149 l 1,3,-1
 203 0 l 1,4,-1
 31 0 l 1,5,-1
 133 723 l 1,6,-1
 305 723 l 1,7,-1
 285 585 l 1,8,-1
 431 585 l 2,9,10
 556 585 556 585 628 529.5 c 128,-1,11
 700 474 700 474 685 368 c 0,12,0
 670 264 670 264 590 206.5 c 128,-1,1
487 438.5 m 128,-1,14
 458 462 458 462 404 462 c 2,15,-1
 268 462 l 1,16,-1
 241 272 l 1,17,-1
 383 272 l 2,18,19
 435 272 435 272 469.5 298 c 128,-1,20
 504 324 504 324 510 370 c 0,21,13
 516 415 516 415 487 438.5 c 128,-1,14
EndSplineSet
EndChar

StartChar: germandbls
Encoding: 223 223 160
Width: 643
GlyphClass: 2
Flags: W
LayerCount: 2
Fore
SplineSet
536 683 m 128,-1,1
 583 643 583 643 574 574 c 0,2,3
 567 523 567 523 531 490.5 c 128,-1,4
 495 458 495 458 422 428 c 0,5,6
 407 421 407 421 400.5 415.5 c 128,-1,7
 394 410 394 410 392 402 c 0,8,9
 391 394 391 394 396 390 c 128,-1,10
 401 386 401 386 416 380 c 0,11,12
 480 351 480 351 515.5 329 c 128,-1,13
 551 307 551 307 573.5 268 c 128,-1,14
 596 229 596 229 588 169 c 0,15,16
 576 83 576 83 512 36.5 c 128,-1,17
 448 -10 448 -10 350 -10 c 0,18,19
 271 -10 271 -10 221 23 c 1,20,-1
 278 116 l 1,21,22
 299 102 299 102 315.5 94.5 c 128,-1,23
 332 87 332 87 358 87 c 0,24,25
 395 87 395 87 420.5 104 c 128,-1,26
 446 121 446 121 451 153 c 0,27,28
 455 184 455 184 435.5 200 c 128,-1,29
 416 216 416 216 367 236 c 0,30,31
 320 257 320 257 295.5 287.5 c 128,-1,32
 271 318 271 318 278 367 c 0,33,34
 283 402 283 402 303 428 c 128,-1,35
 323 454 323 454 357 478 c 0,36,37
 365 484 365 484 387.5 500 c 128,-1,38
 410 516 410 516 422 532 c 128,-1,39
 434 548 434 548 437 566 c 0,40,41
 441 592 441 592 422.5 609 c 128,-1,42
 404 626 404 626 368 626 c 0,43,44
 322 626 322 626 292 598 c 128,-1,45
 262 570 262 570 255 522 c 2,46,-1
 182 0 l 1,47,-1
 33 0 l 1,48,-1
 88 389 l 1,49,-1
 29 389 l 1,50,-1
 43 493 l 1,51,-1
 101 493 l 1,52,53
 118 593 118 593 189.5 658 c 128,-1,54
 261 723 261 723 389 723 c 0,55,0
 489 723 489 723 536 683 c 128,-1,1
EndSplineSet
EndChar

StartChar: agrave
Encoding: 224 224 161
Width: 573
GlyphClass: 2
Flags: W
AnchorPoint: "Anchor-5" -46 0 basechar 0
AnchorPoint: "Anchor-4" -46 0 basechar 0
AnchorPoint: "Anchor-3" 241 517 basechar 0
AnchorPoint: "Anchor-2" 439 11 basechar 0
LayerCount: 2
Fore
SplineSet
496 0 m 1,0,-1
 345 0 l 1,1,-1
 496 0 l 1,0,-1
345 0 m 1,2,-1
 352 49 l 1,3,4
 313 17 313 17 276 3.5 c 128,-1,5
 239 -10 239 -10 201 -10 c 0,6,7
 106 -10 106 -10 56 58.5 c 128,-1,8
 6 127 6 127 25 262 c 0,9,10
 37 349 37 349 73 408.5 c 128,-1,11
 109 468 109 468 160 497.5 c 128,-1,12
 211 527 211 527 269 527 c 0,13,14
 351 527 351 527 411 467 c 1,15,-1
 418 517 l 1,16,-1
 569 517 l 1,17,-1
 496 0 l 1,18,-1
 345 0 l 1,2,-1
328.5 124.5 m 128,-1,20
 357 158 357 158 376 218 c 1,21,-1
 386 290 l 2,22,23
 395 352 395 352 374 388.5 c 128,-1,24
 353 425 353 425 309 425 c 0,25,26
 262 425 262 425 225.5 384 c 128,-1,27
 189 343 189 343 178 264 c 128,-1,28
 167 185 167 185 191.5 138 c 128,-1,29
 216 91 216 91 264 91 c 0,30,19
 300 91 300 91 328.5 124.5 c 128,-1,20
468 631 m 1,31,-1
 438 567 l 1,32,-1
 180 636 l 1,33,-1
 229 734 l 1,34,-1
 468 631 l 1,31,-1
EndSplineSet
EndChar

StartChar: aacute
Encoding: 225 225 162
Width: 573
GlyphClass: 2
Flags: W
AnchorPoint: "Anchor-5" -46 0 basechar 0
AnchorPoint: "Anchor-4" -46 0 basechar 0
AnchorPoint: "Anchor-3" 241 517 basechar 0
AnchorPoint: "Anchor-2" 439 11 basechar 0
LayerCount: 2
Fore
SplineSet
496 0 m 1,0,-1
 345 0 l 1,1,-1
 496 0 l 1,0,-1
345 0 m 1,2,-1
 352 49 l 1,3,4
 313 17 313 17 276 3.5 c 128,-1,5
 239 -10 239 -10 201 -10 c 0,6,7
 106 -10 106 -10 56 58.5 c 128,-1,8
 6 127 6 127 25 262 c 0,9,10
 37 349 37 349 73 408.5 c 128,-1,11
 109 468 109 468 160 497.5 c 128,-1,12
 211 527 211 527 269 527 c 0,13,14
 351 527 351 527 411 467 c 1,15,-1
 418 517 l 1,16,-1
 569 517 l 1,17,-1
 496 0 l 1,18,-1
 345 0 l 1,2,-1
328.5 124.5 m 128,-1,20
 357 158 357 158 376 218 c 1,21,-1
 386 290 l 2,22,23
 395 352 395 352 374 388.5 c 128,-1,24
 353 425 353 425 309 425 c 0,25,26
 262 425 262 425 225.5 384 c 128,-1,27
 189 343 189 343 178 264 c 128,-1,28
 167 185 167 185 191.5 138 c 128,-1,29
 216 91 216 91 264 91 c 0,30,19
 300 91 300 91 328.5 124.5 c 128,-1,20
474 636 m 1,31,-1
 199 567 l 1,32,-1
 187 631 l 1,33,-1
 455 734 l 1,34,-1
 474 636 l 1,31,-1
EndSplineSet
EndChar

StartChar: acircumflex
Encoding: 226 226 163
Width: 573
GlyphClass: 2
Flags: W
AnchorPoint: "Anchor-5" -46 0 basechar 0
AnchorPoint: "Anchor-4" -46 0 basechar 0
AnchorPoint: "Anchor-3" 241 517 basechar 0
AnchorPoint: "Anchor-2" 439 11 basechar 0
LayerCount: 2
Fore
SplineSet
496 0 m 1,0,-1
 345 0 l 1,1,-1
 496 0 l 1,0,-1
345 0 m 1,2,-1
 352 49 l 1,3,4
 313 17 313 17 276 3.5 c 128,-1,5
 239 -10 239 -10 201 -10 c 0,6,7
 106 -10 106 -10 56 58.5 c 128,-1,8
 6 127 6 127 25 262 c 0,9,10
 37 349 37 349 73 408.5 c 128,-1,11
 109 468 109 468 160 497.5 c 128,-1,12
 211 527 211 527 269 527 c 0,13,14
 351 527 351 527 411 467 c 1,15,-1
 418 517 l 1,16,-1
 569 517 l 1,17,-1
 496 0 l 1,18,-1
 345 0 l 1,2,-1
328.5 124.5 m 128,-1,20
 357 158 357 158 376 218 c 1,21,-1
 386 290 l 2,22,23
 395 352 395 352 374 388.5 c 128,-1,24
 353 425 353 425 309 425 c 0,25,26
 262 425 262 425 225.5 384 c 128,-1,27
 189 343 189 343 178 264 c 128,-1,28
 167 185 167 185 191.5 138 c 128,-1,29
 216 91 216 91 264 91 c 0,30,19
 300 91 300 91 328.5 124.5 c 128,-1,20
334 669 m 1,31,-1
 250 594 l 1,32,-1
 139 594 l 1,33,-1
 292 730 l 1,34,-1
 396 730 l 1,35,-1
 505 594 l 1,36,-1
 388 594 l 1,37,-1
 334 669 l 1,31,-1
EndSplineSet
EndChar

StartChar: atilde
Encoding: 227 227 164
Width: 573
GlyphClass: 2
Flags: W
AnchorPoint: "Anchor-5" -46 0 basechar 0
AnchorPoint: "Anchor-4" -46 0 basechar 0
AnchorPoint: "Anchor-3" 241 517 basechar 0
AnchorPoint: "Anchor-2" 439 11 basechar 0
LayerCount: 2
Fore
SplineSet
496 0 m 1,0,-1
 345 0 l 1,1,-1
 496 0 l 1,0,-1
345 0 m 1,2,-1
 352 49 l 1,3,4
 313 17 313 17 276 3.5 c 128,-1,5
 239 -10 239 -10 201 -10 c 0,6,7
 106 -10 106 -10 56 58.5 c 128,-1,8
 6 127 6 127 25 262 c 0,9,10
 37 349 37 349 73 408.5 c 128,-1,11
 109 468 109 468 160 497.5 c 128,-1,12
 211 527 211 527 269 527 c 0,13,14
 351 527 351 527 411 467 c 1,15,-1
 418 517 l 1,16,-1
 569 517 l 1,17,-1
 496 0 l 1,18,-1
 345 0 l 1,2,-1
328.5 124.5 m 128,-1,20
 357 158 357 158 376 218 c 1,21,-1
 386 290 l 2,22,23
 395 352 395 352 374 388.5 c 128,-1,24
 353 425 353 425 309 425 c 0,25,26
 262 425 262 425 225.5 384 c 128,-1,27
 189 343 189 343 178 264 c 128,-1,28
 167 185 167 185 191.5 138 c 128,-1,29
 216 91 216 91 264 91 c 0,30,19
 300 91 300 91 328.5 124.5 c 128,-1,20
452 619 m 128,-1,32
 428 611 428 611 402 611 c 0,33,34
 383 611 383 611 369 614.5 c 128,-1,35
 355 618 355 618 329 626 c 0,36,37
 313 631 313 631 295.5 635.5 c 128,-1,38
 278 640 278 640 261 640 c 0,39,40
 241 640 241 640 227 635 c 128,-1,41
 213 630 213 630 193 617 c 0,42,43
 185 612 185 612 182 612 c 0,44,45
 176 612 176 612 175 623 c 2,46,-1
 167 666 l 2,47,48
 166 672 166 672 166 675 c 0,49,50
 167 681 167 681 176 689 c 0,51,52
 197 706 197 706 218.5 715.5 c 128,-1,53
 240 725 240 725 268 725 c 0,54,55
 288 725 288 725 306 720.5 c 128,-1,56
 324 716 324 716 349 708 c 0,57,58
 365 703 365 703 382 698.5 c 128,-1,59
 399 694 399 694 413 694 c 0,60,61
 432 694 432 694 448.5 700.5 c 128,-1,62
 465 707 465 707 484 718 c 0,63,64
 490 722 490 722 495 722 c 0,65,66
 502 722 502 722 504 712 c 2,67,-1
 508 661 l 2,68,69
 509 659 509 659 508 654 c 0,70,71
 507 646 507 646 495 638 c 0,72,31
 476 627 476 627 452 619 c 128,-1,32
EndSplineSet
EndChar

StartChar: adieresis
Encoding: 228 228 165
Width: 573
GlyphClass: 2
Flags: W
AnchorPoint: "Anchor-5" -46 0 basechar 0
AnchorPoint: "Anchor-4" -46 0 basechar 0
AnchorPoint: "Anchor-3" 241 517 basechar 0
AnchorPoint: "Anchor-2" 439 11 basechar 0
LayerCount: 2
Fore
SplineSet
496 0 m 1,0,-1
 345 0 l 1,1,-1
 496 0 l 1,0,-1
345 0 m 1,2,-1
 352 49 l 1,3,4
 313 17 313 17 276 3.5 c 128,-1,5
 239 -10 239 -10 201 -10 c 0,6,7
 106 -10 106 -10 56 58.5 c 128,-1,8
 6 127 6 127 25 262 c 0,9,10
 37 349 37 349 73 408.5 c 128,-1,11
 109 468 109 468 160 497.5 c 128,-1,12
 211 527 211 527 269 527 c 0,13,14
 351 527 351 527 411 467 c 1,15,-1
 418 517 l 1,16,-1
 569 517 l 1,17,-1
 496 0 l 1,18,-1
 345 0 l 1,2,-1
328.5 124.5 m 128,-1,20
 357 158 357 158 376 218 c 1,21,-1
 386 290 l 2,22,23
 395 352 395 352 374 388.5 c 128,-1,24
 353 425 353 425 309 425 c 0,25,26
 262 425 262 425 225.5 384 c 128,-1,27
 189 343 189 343 178 264 c 128,-1,28
 167 185 167 185 191.5 138 c 128,-1,29
 216 91 216 91 264 91 c 0,30,19
 300 91 300 91 328.5 124.5 c 128,-1,20
292 596 m 1,31,-1
 159 596 l 1,32,-1
 177 723 l 1,33,-1
 310 723 l 1,34,-1
 292 596 l 1,31,-1
491 596 m 1,35,-1
 358 596 l 1,36,-1
 376 723 l 1,37,-1
 509 723 l 1,38,-1
 491 596 l 1,35,-1
EndSplineSet
EndChar

StartChar: aring
Encoding: 229 229 166
Width: 573
GlyphClass: 2
Flags: W
AnchorPoint: "Anchor-5" -46 0 basechar 0
AnchorPoint: "Anchor-4" -46 0 basechar 0
AnchorPoint: "Anchor-3" 241 517 basechar 0
AnchorPoint: "Anchor-2" 439 11 basechar 0
LayerCount: 2
Fore
SplineSet
496 0 m 1,0,-1
 345 0 l 1,1,-1
 496 0 l 1,0,-1
345 0 m 1,2,-1
 352 49 l 1,3,4
 313 17 313 17 276 3.5 c 128,-1,5
 239 -10 239 -10 201 -10 c 0,6,7
 106 -10 106 -10 56 58.5 c 128,-1,8
 6 127 6 127 25 262 c 0,9,10
 37 349 37 349 73 408.5 c 128,-1,11
 109 468 109 468 160 497.5 c 128,-1,12
 211 527 211 527 269 527 c 0,13,14
 351 527 351 527 411 467 c 1,15,-1
 418 517 l 1,16,-1
 569 517 l 1,17,-1
 496 0 l 1,18,-1
 345 0 l 1,2,-1
328.5 124.5 m 128,-1,20
 357 158 357 158 376 218 c 1,21,-1
 386 290 l 2,22,23
 395 352 395 352 374 388.5 c 128,-1,24
 353 425 353 425 309 425 c 0,25,26
 262 425 262 425 225.5 384 c 128,-1,27
 189 343 189 343 178 264 c 128,-1,28
 167 185 167 185 191.5 138 c 128,-1,29
 216 91 216 91 264 91 c 0,30,19
 300 91 300 91 328.5 124.5 c 128,-1,20
403 598.5 m 128,-1,32
 367 567 367 567 321 567 c 128,-1,33
 275 567 275 567 248 599 c 128,-1,34
 221 631 221 631 227 678 c 0,35,36
 233 721 233 721 269.5 752 c 128,-1,37
 306 783 306 783 351 783 c 0,38,39
 397 783 397 783 424.5 752 c 128,-1,40
 452 721 452 721 446 676 c 0,41,31
 439 630 439 630 403 598.5 c 128,-1,32
375 710 m 128,-1,43
 363 724 363 724 342 724 c 128,-1,44
 321 724 321 724 304.5 710 c 128,-1,45
 288 696 288 696 285 675 c 0,46,47
 282 655 282 655 295 639.5 c 128,-1,48
 308 624 308 624 328 624 c 128,-1,49
 348 624 348 624 364.5 639.5 c 128,-1,50
 381 655 381 655 384 675 c 0,51,42
 387 696 387 696 375 710 c 128,-1,43
EndSplineSet
EndChar

StartChar: ae
Encoding: 230 230 167
Width: 912
GlyphClass: 2
Flags: W
AnchorPoint: "Anchor-5" -46 0 basechar 0
AnchorPoint: "Anchor-4" -46 0 basechar 0
AnchorPoint: "Anchor-3" 407 517 basechar 0
AnchorPoint: "Anchor-2" -46 0 basechar 0
LayerCount: 2
Fore
SplineSet
529 131.5 m 128,-1,1
 560 93 560 93 614 93 c 0,2,3
 653 93 653 93 684.5 110.5 c 128,-1,4
 716 128 716 128 756 165 c 1,5,-1
 843 124 l 1,6,7
 787 51 787 51 725.5 20.5 c 128,-1,8
 664 -10 664 -10 580 -10 c 0,9,10
 461 -10 461 -10 390 79 c 0,11,12
 387 84 387 84 382 79 c 0,13,14
 332 35 332 35 279 12.5 c 128,-1,15
 226 -10 226 -10 155 -10 c 0,16,17
 75 -10 75 -10 37 30 c 128,-1,18
 -1 70 -1 70 8 137 c 0,19,20
 19 215 19 215 93 262 c 128,-1,21
 167 309 167 309 301 317 c 2,22,-1
 366 321 l 1,23,-1
 371 354 l 2,24,25
 376 391 376 391 358 411.5 c 128,-1,26
 340 432 340 432 299 432 c 0,27,28
 266 432 266 432 235.5 415.5 c 128,-1,29
 205 399 205 399 182 362 c 1,30,-1
 57 391 l 1,31,32
 98 460 98 460 158.5 493.5 c 128,-1,33
 219 527 219 527 317 527 c 0,34,35
 446 526 446 526 487 466 c 1,36,37
 522 496 522 496 564.5 511.5 c 128,-1,38
 607 527 607 527 653 527 c 0,39,40
 727 527 727 527 779.5 491.5 c 128,-1,41
 832 456 832 456 855 389 c 128,-1,42
 878 322 878 322 865 230 c 1,43,-1
 506 230 l 1,44,0
 498 170 498 170 529 131.5 c 128,-1,1
564 401.5 m 128,-1,46
 528 369 528 369 521 313 c 1,47,-1
 729 312 l 1,48,49
 733 340 733 340 725.5 368.5 c 128,-1,50
 718 397 718 397 697.5 415.5 c 128,-1,51
 677 434 677 434 646 434 c 0,52,45
 600 434 600 434 564 401.5 c 128,-1,46
301 238 m 2,53,54
 245 233 245 233 204 209.5 c 128,-1,55
 163 186 163 186 158 147 c 0,56,57
 154 119 154 119 171.5 101 c 128,-1,58
 189 83 189 83 224 83 c 0,59,60
 268 83 268 83 303.5 105 c 128,-1,61
 339 127 339 127 344 161 c 2,62,-1
 355 241 l 1,63,-1
 301 238 l 2,53,54
EndSplineSet
EndChar

StartChar: ccedilla
Encoding: 231 231 168
Width: 536
GlyphClass: 2
Flags: W
AnchorPoint: "Anchor-5" -46 0 basechar 0
AnchorPoint: "Anchor-4" 238 0 basechar 0
AnchorPoint: "Anchor-3" 238 517 basechar 0
AnchorPoint: "Anchor-2" -46 0 basechar 0
LayerCount: 2
Fore
SplineSet
453 473 m 128,-1,1
 501 419 501 419 501 337 c 1,2,-1
 378 331 l 1,3,4
 366 371 366 371 350 392 c 128,-1,5
 334 413 334 413 299 413 c 0,6,7
 247 413 247 413 211 372 c 128,-1,8
 175 331 175 331 164 258 c 0,9,10
 154 184 154 184 179.5 140.5 c 128,-1,11
 205 97 205 97 257 97 c 0,12,13
 293 97 293 97 316.5 120.5 c 128,-1,14
 340 144 340 144 360 181 c 1,15,-1
 479 175 l 1,16,17
 458 95 458 95 393 42.5 c 128,-1,18
 328 -10 328 -10 238 -10 c 0,19,20
 166 -10 166 -10 113 23.5 c 128,-1,21
 60 57 60 57 36.5 117.5 c 128,-1,22
 13 178 13 178 24 256 c 0,23,24
 35 335 35 335 75.5 396.5 c 128,-1,25
 116 458 116 458 178 492.5 c 128,-1,26
 240 527 240 527 313 527 c 0,27,0
 405 527 405 527 453 473 c 128,-1,1
293 -191 m 128,-1,29
 255 -213 255 -213 204 -213 c 0,30,31
 132 -213 132 -213 92 -186 c 1,32,-1
 119 -136 l 1,33,34
 155 -161 155 -161 193 -161 c 0,35,36
 216 -161 216 -161 230.5 -152.5 c 128,-1,37
 245 -144 245 -144 247 -130 c 0,38,39
 250 -110 250 -110 231.5 -100 c 128,-1,40
 213 -90 213 -90 167 -90 c 0,41,42
 154 -90 154 -90 161 -80 c 2,43,-1
 210 5 l 1,44,-1
 276 5 l 1,45,-1
 246 -53 l 1,46,47
 298 -54 298 -54 319.5 -77.5 c 128,-1,48
 341 -101 341 -101 336 -132 c 0,49,28
 331 -169 331 -169 293 -191 c 128,-1,29
EndSplineSet
EndChar

StartChar: egrave
Encoding: 232 232 169
Width: 562
GlyphClass: 2
Flags: W
AnchorPoint: "Anchor-5" -46 0 basechar 0
AnchorPoint: "Anchor-4" 240 0 basechar 0
AnchorPoint: "Anchor-3" 240 517 basechar 0
AnchorPoint: "Anchor-2" 358 23 basechar 0
LayerCount: 2
Fore
SplineSet
184.5 132.5 m 128,-1,1
 209 99 209 99 259 99 c 0,2,3
 335 99 335 99 369 161 c 1,4,-1
 502 156 l 1,5,6
 485 106 485 106 445.5 68.5 c 128,-1,7
 406 31 406 31 354 10.5 c 128,-1,8
 302 -10 302 -10 247 -10 c 0,9,10
 170 -10 170 -10 115.5 22.5 c 128,-1,11
 61 55 61 55 36.5 114.5 c 128,-1,12
 12 174 12 174 24 253 c 0,13,14
 35 331 35 331 73.5 393 c 128,-1,15
 112 455 112 455 174.5 491 c 128,-1,16
 237 527 237 527 314 527 c 0,17,18
 430 527 430 527 482.5 455 c 128,-1,19
 535 383 535 383 518 264 c 2,20,-1
 512 224 l 1,21,-1
 168 224 l 1,22,0
 160 166 160 166 184.5 132.5 c 128,-1,1
385 313 m 1,23,24
 392 360 392 360 369.5 391 c 128,-1,25
 347 422 347 422 298 422 c 0,26,27
 252 422 252 422 219.5 389.5 c 128,-1,28
 187 357 187 357 181 313 c 1,29,-1
 385 313 l 1,23,24
467 631 m 1,30,-1
 437 567 l 1,31,-1
 179 636 l 1,32,-1
 228 734 l 1,33,-1
 467 631 l 1,30,-1
EndSplineSet
EndChar

StartChar: eacute
Encoding: 233 233 170
Width: 562
GlyphClass: 2
Flags: W
AnchorPoint: "Anchor-5" -46 0 basechar 0
AnchorPoint: "Anchor-4" 240 0 basechar 0
AnchorPoint: "Anchor-3" 240 517 basechar 0
AnchorPoint: "Anchor-2" 358 23 basechar 0
LayerCount: 2
Fore
SplineSet
184.5 132.5 m 128,-1,1
 209 99 209 99 259 99 c 0,2,3
 335 99 335 99 369 161 c 1,4,-1
 502 156 l 1,5,6
 485 106 485 106 445.5 68.5 c 128,-1,7
 406 31 406 31 354 10.5 c 128,-1,8
 302 -10 302 -10 247 -10 c 0,9,10
 170 -10 170 -10 115.5 22.5 c 128,-1,11
 61 55 61 55 36.5 114.5 c 128,-1,12
 12 174 12 174 24 253 c 0,13,14
 35 331 35 331 73.5 393 c 128,-1,15
 112 455 112 455 174.5 491 c 128,-1,16
 237 527 237 527 314 527 c 0,17,18
 430 527 430 527 482.5 455 c 128,-1,19
 535 383 535 383 518 264 c 2,20,-1
 512 224 l 1,21,-1
 168 224 l 1,22,0
 160 166 160 166 184.5 132.5 c 128,-1,1
385 313 m 1,23,24
 392 360 392 360 369.5 391 c 128,-1,25
 347 422 347 422 298 422 c 0,26,27
 252 422 252 422 219.5 389.5 c 128,-1,28
 187 357 187 357 181 313 c 1,29,-1
 385 313 l 1,23,24
473 636 m 1,30,-1
 198 567 l 1,31,-1
 186 631 l 1,32,-1
 454 734 l 1,33,-1
 473 636 l 1,30,-1
EndSplineSet
EndChar

StartChar: ecircumflex
Encoding: 234 234 171
Width: 562
GlyphClass: 2
Flags: W
AnchorPoint: "Anchor-5" -46 0 basechar 0
AnchorPoint: "Anchor-4" 240 0 basechar 0
AnchorPoint: "Anchor-3" 240 517 basechar 0
AnchorPoint: "Anchor-2" 358 23 basechar 0
LayerCount: 2
Fore
SplineSet
184.5 132.5 m 128,-1,1
 209 99 209 99 259 99 c 0,2,3
 335 99 335 99 369 161 c 1,4,-1
 502 156 l 1,5,6
 485 106 485 106 445.5 68.5 c 128,-1,7
 406 31 406 31 354 10.5 c 128,-1,8
 302 -10 302 -10 247 -10 c 0,9,10
 170 -10 170 -10 115.5 22.5 c 128,-1,11
 61 55 61 55 36.5 114.5 c 128,-1,12
 12 174 12 174 24 253 c 0,13,14
 35 331 35 331 73.5 393 c 128,-1,15
 112 455 112 455 174.5 491 c 128,-1,16
 237 527 237 527 314 527 c 0,17,18
 430 527 430 527 482.5 455 c 128,-1,19
 535 383 535 383 518 264 c 2,20,-1
 512 224 l 1,21,-1
 168 224 l 1,22,0
 160 166 160 166 184.5 132.5 c 128,-1,1
385 313 m 1,23,24
 392 360 392 360 369.5 391 c 128,-1,25
 347 422 347 422 298 422 c 0,26,27
 252 422 252 422 219.5 389.5 c 128,-1,28
 187 357 187 357 181 313 c 1,29,-1
 385 313 l 1,23,24
333 669 m 1,30,-1
 249 594 l 1,31,-1
 138 594 l 1,32,-1
 291 730 l 1,33,-1
 395 730 l 1,34,-1
 504 594 l 1,35,-1
 387 594 l 1,36,-1
 333 669 l 1,30,-1
EndSplineSet
EndChar

StartChar: edieresis
Encoding: 235 235 172
Width: 562
GlyphClass: 2
Flags: W
AnchorPoint: "Anchor-5" -46 0 basechar 0
AnchorPoint: "Anchor-4" 240 0 basechar 0
AnchorPoint: "Anchor-3" 240 517 basechar 0
AnchorPoint: "Anchor-2" 358 23 basechar 0
LayerCount: 2
Fore
SplineSet
184.5 132.5 m 128,-1,1
 209 99 209 99 259 99 c 0,2,3
 335 99 335 99 369 161 c 1,4,-1
 502 156 l 1,5,6
 485 106 485 106 445.5 68.5 c 128,-1,7
 406 31 406 31 354 10.5 c 128,-1,8
 302 -10 302 -10 247 -10 c 0,9,10
 170 -10 170 -10 115.5 22.5 c 128,-1,11
 61 55 61 55 36.5 114.5 c 128,-1,12
 12 174 12 174 24 253 c 0,13,14
 35 331 35 331 73.5 393 c 128,-1,15
 112 455 112 455 174.5 491 c 128,-1,16
 237 527 237 527 314 527 c 0,17,18
 430 527 430 527 482.5 455 c 128,-1,19
 535 383 535 383 518 264 c 2,20,-1
 512 224 l 1,21,-1
 168 224 l 1,22,0
 160 166 160 166 184.5 132.5 c 128,-1,1
385 313 m 1,23,24
 392 360 392 360 369.5 391 c 128,-1,25
 347 422 347 422 298 422 c 0,26,27
 252 422 252 422 219.5 389.5 c 128,-1,28
 187 357 187 357 181 313 c 1,29,-1
 385 313 l 1,23,24
291 596 m 1,30,-1
 158 596 l 1,31,-1
 176 723 l 1,32,-1
 309 723 l 1,33,-1
 291 596 l 1,30,-1
490 596 m 1,34,-1
 357 596 l 1,35,-1
 375 723 l 1,36,-1
 508 723 l 1,37,-1
 490 596 l 1,34,-1
EndSplineSet
EndChar

StartChar: igrave
Encoding: 236 236 173
Width: 282
GlyphClass: 2
Flags: W
AnchorPoint: "Anchor-5" -46 0 basechar 0
AnchorPoint: "Anchor-4" -46 0 basechar 0
AnchorPoint: "Anchor-3" 98 517 basechar 0
AnchorPoint: "Anchor-2" 148 10 basechar 0
LayerCount: 2
Fore
SplineSet
171 0 m 1,0,-1
 20 0 l 1,1,-1
 93 517 l 1,2,-1
 244 517 l 1,3,-1
 171 0 l 1,0,-1
325 631 m 1,4,-1
 295 567 l 1,5,-1
 37 636 l 1,6,-1
 86 734 l 1,7,-1
 325 631 l 1,4,-1
EndSplineSet
EndChar

StartChar: iacute
Encoding: 237 237 174
Width: 282
GlyphClass: 2
Flags: W
AnchorPoint: "Anchor-5" -46 0 basechar 0
AnchorPoint: "Anchor-4" -46 0 basechar 0
AnchorPoint: "Anchor-3" 98 517 basechar 0
AnchorPoint: "Anchor-2" 148 10 basechar 0
LayerCount: 2
Fore
SplineSet
171 0 m 1,0,-1
 20 0 l 1,1,-1
 93 517 l 1,2,-1
 244 517 l 1,3,-1
 171 0 l 1,0,-1
331 636 m 1,4,-1
 56 567 l 1,5,-1
 44 631 l 1,6,-1
 312 734 l 1,7,-1
 331 636 l 1,4,-1
EndSplineSet
EndChar

StartChar: icircumflex
Encoding: 238 238 175
Width: 282
GlyphClass: 2
Flags: W
AnchorPoint: "Anchor-5" -46 0 basechar 0
AnchorPoint: "Anchor-4" -46 0 basechar 0
AnchorPoint: "Anchor-3" 98 517 basechar 0
AnchorPoint: "Anchor-2" 148 10 basechar 0
LayerCount: 2
Fore
SplineSet
171 0 m 1,0,-1
 20 0 l 1,1,-1
 93 517 l 1,2,-1
 244 517 l 1,3,-1
 171 0 l 1,0,-1
191 669 m 1,4,-1
 107 594 l 1,5,-1
 -4 594 l 1,6,-1
 149 730 l 1,7,-1
 253 730 l 1,8,-1
 362 594 l 1,9,-1
 245 594 l 1,10,-1
 191 669 l 1,4,-1
EndSplineSet
EndChar

StartChar: idieresis
Encoding: 239 239 176
Width: 282
GlyphClass: 2
Flags: W
AnchorPoint: "Anchor-5" -46 0 basechar 0
AnchorPoint: "Anchor-4" -46 0 basechar 0
AnchorPoint: "Anchor-3" 98 517 basechar 0
AnchorPoint: "Anchor-2" 148 10 basechar 0
LayerCount: 2
Fore
SplineSet
171 0 m 1,0,-1
 20 0 l 1,1,-1
 93 517 l 1,2,-1
 244 517 l 1,3,-1
 171 0 l 1,0,-1
149 596 m 1,4,-1
 16 596 l 1,5,-1
 34 723 l 1,6,-1
 167 723 l 1,7,-1
 149 596 l 1,4,-1
348 596 m 1,8,-1
 215 596 l 1,9,-1
 233 723 l 1,10,-1
 366 723 l 1,11,-1
 348 596 l 1,8,-1
EndSplineSet
EndChar

StartChar: eth
Encoding: 240 240 177
Width: 593
GlyphClass: 2
Flags: W
LayerCount: 2
Fore
SplineSet
496.5 121 m 128,-1,1
 455 58 455 58 391 24 c 128,-1,2
 327 -10 327 -10 248 -10 c 0,3,4
 172 -10 172 -10 117 23 c 128,-1,5
 62 56 62 56 37 114.5 c 128,-1,6
 12 173 12 173 23 246 c 0,7,8
 34 321 34 321 76 380.5 c 128,-1,9
 118 440 118 440 182 473.5 c 128,-1,10
 246 507 246 507 319 507 c 0,11,12
 350 507 350 507 365 492 c 1,13,14
 340 550 340 550 287 591 c 1,15,-1
 151 521 l 1,16,-1
 129 567 l 1,17,-1
 240 624 l 1,18,19
 195 649 195 649 145 668 c 1,20,-1
 236 734 l 1,21,22
 305 714 305 714 357 685 c 1,23,-1
 456 736 l 1,24,-1
 476 689 l 1,25,-1
 407 652 l 1,26,27
 494 585 494 585 530 485.5 c 128,-1,28
 566 386 566 386 550 268 c 0,29,0
 538 184 538 184 496.5 121 c 128,-1,1
349.5 132 m 128,-1,31
 383 174 383 174 394 249 c 0,32,33
 405 325 405 325 383 367.5 c 128,-1,34
 361 410 361 410 309 410 c 128,-1,35
 257 410 257 410 222 367.5 c 128,-1,36
 187 325 187 325 176 249 c 0,37,38
 165 174 165 174 188.5 132 c 128,-1,39
 212 90 212 90 264 90 c 128,-1,30
 316 90 316 90 349.5 132 c 128,-1,31
EndSplineSet
EndChar

StartChar: ntilde
Encoding: 241 241 178
Width: 610
GlyphClass: 2
Flags: W
AnchorPoint: "Anchor-5" -46 0 basechar 0
AnchorPoint: "Anchor-4" 259 0 basechar 0
AnchorPoint: "Anchor-3" 262 517 basechar 0
AnchorPoint: "Anchor-2" -46 0 basechar 0
LayerCount: 2
Fore
SplineSet
93 517 m 1,0,-1
 241 517 l 1,1,-1
 231 451 l 1,2,3
 264 485 264 485 299 503 c 128,-1,4
 334 521 334 521 390 521 c 0,5,6
 438 521 438 521 476.5 499 c 128,-1,7
 515 477 515 477 534.5 437 c 128,-1,8
 554 397 554 397 546 345 c 2,9,-1
 498 0 l 1,10,-1
 347 0 l 1,11,-1
 393 326 l 2,12,13
 398 362 398 362 377.5 382.5 c 128,-1,14
 357 403 357 403 321 403 c 0,15,16
 283 403 283 403 252.5 384.5 c 128,-1,17
 222 366 222 366 218 333 c 2,18,-1
 171 0 l 1,19,-1
 20 0 l 1,20,-1
 93 517 l 1,0,-1
473 619 m 128,-1,22
 449 611 449 611 423 611 c 0,23,24
 404 611 404 611 390 614.5 c 128,-1,25
 376 618 376 618 350 626 c 0,26,27
 334 631 334 631 316.5 635.5 c 128,-1,28
 299 640 299 640 282 640 c 0,29,30
 262 640 262 640 248 635 c 128,-1,31
 234 630 234 630 214 617 c 0,32,33
 206 612 206 612 203 612 c 0,34,35
 197 612 197 612 196 623 c 2,36,-1
 188 666 l 2,37,38
 187 672 187 672 187 675 c 0,39,40
 188 681 188 681 197 689 c 0,41,42
 218 706 218 706 239.5 715.5 c 128,-1,43
 261 725 261 725 289 725 c 0,44,45
 309 725 309 725 327 720.5 c 128,-1,46
 345 716 345 716 370 708 c 0,47,48
 386 703 386 703 403 698.5 c 128,-1,49
 420 694 420 694 434 694 c 0,50,51
 453 694 453 694 469.5 700.5 c 128,-1,52
 486 707 486 707 505 718 c 0,53,54
 511 722 511 722 516 722 c 0,55,56
 523 722 523 722 525 712 c 2,57,-1
 529 661 l 2,58,59
 530 659 530 659 529 654 c 0,60,61
 528 646 528 646 516 638 c 0,62,21
 497 627 497 627 473 619 c 128,-1,22
EndSplineSet
EndChar

StartChar: ograve
Encoding: 242 242 179
Width: 571
GlyphClass: 2
Flags: W
AnchorPoint: "Anchor-5" -46 0 basechar 0
AnchorPoint: "Anchor-4" 237 0 basechar 0
AnchorPoint: "Anchor-3" 240 517 basechar 0
AnchorPoint: "Anchor-2" 312 10 basechar 0
LayerCount: 2
Fore
SplineSet
109.5 23.5 m 128,-1,1
 57 57 57 57 35 117 c 128,-1,2
 13 177 13 177 24 255 c 0,3,4
 35 335 35 335 75.5 397 c 128,-1,5
 116 459 116 459 177.5 493 c 128,-1,6
 239 527 239 527 314 527 c 0,7,8
 390 527 390 527 442 492.5 c 128,-1,9
 494 458 494 458 516 396.5 c 128,-1,10
 538 335 538 335 527 256 c 0,11,12
 516 178 516 178 477 117.5 c 128,-1,13
 438 57 438 57 376.5 23.5 c 128,-1,14
 315 -10 315 -10 238 -10 c 0,15,0
 162 -10 162 -10 109.5 23.5 c 128,-1,1
339.5 147.5 m 128,-1,17
 370 193 370 193 380 261 c 0,18,19
 389 328 389 328 370.5 372 c 128,-1,20
 352 416 352 416 298 416 c 0,21,22
 243 416 243 416 212.5 372 c 128,-1,23
 182 328 182 328 173 261 c 128,-1,24
 164 194 164 194 181.5 148 c 128,-1,25
 199 102 199 102 254 102 c 128,-1,16
 309 102 309 102 339.5 147.5 c 128,-1,17
467 631 m 1,26,-1
 437 567 l 1,27,-1
 179 636 l 1,28,-1
 228 734 l 1,29,-1
 467 631 l 1,26,-1
EndSplineSet
EndChar

StartChar: oacute
Encoding: 243 243 180
Width: 571
GlyphClass: 2
Flags: W
AnchorPoint: "Anchor-5" -46 0 basechar 0
AnchorPoint: "Anchor-4" 237 0 basechar 0
AnchorPoint: "Anchor-3" 240 517 basechar 0
AnchorPoint: "Anchor-2" 312 10 basechar 0
LayerCount: 2
Fore
SplineSet
109.5 23.5 m 128,-1,1
 57 57 57 57 35 117 c 128,-1,2
 13 177 13 177 24 255 c 0,3,4
 35 335 35 335 75.5 397 c 128,-1,5
 116 459 116 459 177.5 493 c 128,-1,6
 239 527 239 527 314 527 c 0,7,8
 390 527 390 527 442 492.5 c 128,-1,9
 494 458 494 458 516 396.5 c 128,-1,10
 538 335 538 335 527 256 c 0,11,12
 516 178 516 178 477 117.5 c 128,-1,13
 438 57 438 57 376.5 23.5 c 128,-1,14
 315 -10 315 -10 238 -10 c 0,15,0
 162 -10 162 -10 109.5 23.5 c 128,-1,1
339.5 147.5 m 128,-1,17
 370 193 370 193 380 261 c 0,18,19
 389 328 389 328 370.5 372 c 128,-1,20
 352 416 352 416 298 416 c 0,21,22
 243 416 243 416 212.5 372 c 128,-1,23
 182 328 182 328 173 261 c 128,-1,24
 164 194 164 194 181.5 148 c 128,-1,25
 199 102 199 102 254 102 c 128,-1,16
 309 102 309 102 339.5 147.5 c 128,-1,17
473 636 m 1,26,-1
 198 567 l 1,27,-1
 186 631 l 1,28,-1
 454 734 l 1,29,-1
 473 636 l 1,26,-1
EndSplineSet
EndChar

StartChar: ocircumflex
Encoding: 244 244 181
Width: 571
GlyphClass: 2
Flags: W
AnchorPoint: "Anchor-5" -46 0 basechar 0
AnchorPoint: "Anchor-4" 237 0 basechar 0
AnchorPoint: "Anchor-3" 240 517 basechar 0
AnchorPoint: "Anchor-2" 312 10 basechar 0
LayerCount: 2
Fore
SplineSet
109.5 23.5 m 128,-1,1
 57 57 57 57 35 117 c 128,-1,2
 13 177 13 177 24 255 c 0,3,4
 35 335 35 335 75.5 397 c 128,-1,5
 116 459 116 459 177.5 493 c 128,-1,6
 239 527 239 527 314 527 c 0,7,8
 390 527 390 527 442 492.5 c 128,-1,9
 494 458 494 458 516 396.5 c 128,-1,10
 538 335 538 335 527 256 c 0,11,12
 516 178 516 178 477 117.5 c 128,-1,13
 438 57 438 57 376.5 23.5 c 128,-1,14
 315 -10 315 -10 238 -10 c 0,15,0
 162 -10 162 -10 109.5 23.5 c 128,-1,1
339.5 147.5 m 128,-1,17
 370 193 370 193 380 261 c 0,18,19
 389 328 389 328 370.5 372 c 128,-1,20
 352 416 352 416 298 416 c 0,21,22
 243 416 243 416 212.5 372 c 128,-1,23
 182 328 182 328 173 261 c 128,-1,24
 164 194 164 194 181.5 148 c 128,-1,25
 199 102 199 102 254 102 c 128,-1,16
 309 102 309 102 339.5 147.5 c 128,-1,17
333 669 m 1,26,-1
 249 594 l 1,27,-1
 138 594 l 1,28,-1
 291 730 l 1,29,-1
 395 730 l 1,30,-1
 504 594 l 1,31,-1
 387 594 l 1,32,-1
 333 669 l 1,26,-1
EndSplineSet
EndChar

StartChar: otilde
Encoding: 245 245 182
Width: 571
GlyphClass: 2
Flags: W
AnchorPoint: "Anchor-5" -46 0 basechar 0
AnchorPoint: "Anchor-4" 237 0 basechar 0
AnchorPoint: "Anchor-3" 240 517 basechar 0
AnchorPoint: "Anchor-2" 312 10 basechar 0
LayerCount: 2
Fore
SplineSet
109.5 23.5 m 128,-1,1
 57 57 57 57 35 117 c 128,-1,2
 13 177 13 177 24 255 c 0,3,4
 35 335 35 335 75.5 397 c 128,-1,5
 116 459 116 459 177.5 493 c 128,-1,6
 239 527 239 527 314 527 c 0,7,8
 390 527 390 527 442 492.5 c 128,-1,9
 494 458 494 458 516 396.5 c 128,-1,10
 538 335 538 335 527 256 c 0,11,12
 516 178 516 178 477 117.5 c 128,-1,13
 438 57 438 57 376.5 23.5 c 128,-1,14
 315 -10 315 -10 238 -10 c 0,15,0
 162 -10 162 -10 109.5 23.5 c 128,-1,1
339.5 147.5 m 128,-1,17
 370 193 370 193 380 261 c 0,18,19
 389 328 389 328 370.5 372 c 128,-1,20
 352 416 352 416 298 416 c 0,21,22
 243 416 243 416 212.5 372 c 128,-1,23
 182 328 182 328 173 261 c 128,-1,24
 164 194 164 194 181.5 148 c 128,-1,25
 199 102 199 102 254 102 c 128,-1,16
 309 102 309 102 339.5 147.5 c 128,-1,17
451 619 m 128,-1,27
 427 611 427 611 401 611 c 0,28,29
 382 611 382 611 368 614.5 c 128,-1,30
 354 618 354 618 328 626 c 0,31,32
 312 631 312 631 294.5 635.5 c 128,-1,33
 277 640 277 640 260 640 c 0,34,35
 240 640 240 640 226 635 c 128,-1,36
 212 630 212 630 192 617 c 0,37,38
 184 612 184 612 181 612 c 0,39,40
 175 612 175 612 174 623 c 2,41,-1
 166 666 l 2,42,43
 165 672 165 672 165 675 c 0,44,45
 166 681 166 681 175 689 c 0,46,47
 196 706 196 706 217.5 715.5 c 128,-1,48
 239 725 239 725 267 725 c 0,49,50
 287 725 287 725 305 720.5 c 128,-1,51
 323 716 323 716 348 708 c 0,52,53
 364 703 364 703 381 698.5 c 128,-1,54
 398 694 398 694 412 694 c 0,55,56
 431 694 431 694 447.5 700.5 c 128,-1,57
 464 707 464 707 483 718 c 0,58,59
 489 722 489 722 494 722 c 0,60,61
 501 722 501 722 503 712 c 2,62,-1
 507 661 l 2,63,64
 508 659 508 659 507 654 c 0,65,66
 506 646 506 646 494 638 c 0,67,26
 475 627 475 627 451 619 c 128,-1,27
EndSplineSet
EndChar

StartChar: odieresis
Encoding: 246 246 183
Width: 571
GlyphClass: 2
Flags: W
AnchorPoint: "Anchor-5" -46 0 basechar 0
AnchorPoint: "Anchor-4" 237 0 basechar 0
AnchorPoint: "Anchor-3" 240 517 basechar 0
AnchorPoint: "Anchor-2" 312 10 basechar 0
LayerCount: 2
Fore
SplineSet
109.5 23.5 m 128,-1,1
 57 57 57 57 35 117 c 128,-1,2
 13 177 13 177 24 255 c 0,3,4
 35 335 35 335 75.5 397 c 128,-1,5
 116 459 116 459 177.5 493 c 128,-1,6
 239 527 239 527 314 527 c 0,7,8
 390 527 390 527 442 492.5 c 128,-1,9
 494 458 494 458 516 396.5 c 128,-1,10
 538 335 538 335 527 256 c 0,11,12
 516 178 516 178 477 117.5 c 128,-1,13
 438 57 438 57 376.5 23.5 c 128,-1,14
 315 -10 315 -10 238 -10 c 0,15,0
 162 -10 162 -10 109.5 23.5 c 128,-1,1
339.5 147.5 m 128,-1,17
 370 193 370 193 380 261 c 0,18,19
 389 328 389 328 370.5 372 c 128,-1,20
 352 416 352 416 298 416 c 0,21,22
 243 416 243 416 212.5 372 c 128,-1,23
 182 328 182 328 173 261 c 128,-1,24
 164 194 164 194 181.5 148 c 128,-1,25
 199 102 199 102 254 102 c 128,-1,16
 309 102 309 102 339.5 147.5 c 128,-1,17
291 596 m 1,26,-1
 158 596 l 1,27,-1
 176 723 l 1,28,-1
 309 723 l 1,29,-1
 291 596 l 1,26,-1
490 596 m 1,30,-1
 357 596 l 1,31,-1
 375 723 l 1,32,-1
 508 723 l 1,33,-1
 490 596 l 1,30,-1
EndSplineSet
EndChar

StartChar: divide
Encoding: 247 247 184
Width: 588
GlyphClass: 2
Flags: W
LayerCount: 2
Fore
SplineSet
392 488 m 1,0,-1
 236 488 l 1,1,-1
 257 638 l 1,2,-1
 413 638 l 1,3,-1
 392 488 l 1,0,-1
525 309 m 1,4,-1
 49 309 l 1,5,-1
 65 418 l 1,6,-1
 541 419 l 1,7,-1
 525 309 l 1,4,-1
336 90 m 1,8,-1
 180 90 l 1,9,-1
 201 240 l 1,10,-1
 357 240 l 1,11,-1
 336 90 l 1,8,-1
EndSplineSet
EndChar

StartChar: oslash
Encoding: 248 248 185
Width: 598
GlyphClass: 2
Flags: W
AnchorPoint: "Anchor-5" -46 0 basechar 0
AnchorPoint: "Anchor-4" 246 0 basechar 0
AnchorPoint: "Anchor-3" 249 517 basechar 0
AnchorPoint: "Anchor-2" 321 10 basechar 0
LayerCount: 2
Fore
SplineSet
520 410 m 1,0,1
 549 345 549 345 536 256 c 0,2,3
 525 178 525 178 486 117.5 c 128,-1,4
 447 57 447 57 385.5 23.5 c 128,-1,5
 324 -10 324 -10 247 -10 c 0,6,7
 144 -10 144 -10 87 49 c 1,8,-1
 19 -8 l 1,9,-1
 -23 45 l 1,10,-1
 49 105 l 1,11,12
 21 168 21 168 33 255 c 0,13,14
 44 335 44 335 84.5 397 c 128,-1,15
 125 459 125 459 186.5 493 c 128,-1,16
 248 527 248 527 323 527 c 0,17,18
 425 527 425 527 483 466 c 1,19,-1
 552 523 l 1,20,-1
 592 471 l 1,21,-1
 520 410 l 1,0,1
179 212 m 1,22,-1
 377 378 l 1,23,24
 356 416 356 416 307 416 c 0,25,26
 252 416 252 416 221.5 372 c 128,-1,27
 191 328 191 328 182 261 c 0,28,29
 178 233 178 233 179 212 c 1,22,-1
392 304 m 1,30,-1
 195 139 l 1,31,32
 219 102 219 102 263 102 c 0,33,34
 318 102 318 102 348.5 147.5 c 128,-1,35
 379 193 379 193 389 261 c 0,36,37
 392 283 392 283 392 304 c 1,30,-1
EndSplineSet
EndChar

StartChar: ugrave
Encoding: 249 249 186
Width: 610
GlyphClass: 2
Flags: W
AnchorPoint: "Anchor-5" -46 0 basechar 0
AnchorPoint: "Anchor-4" 259 0 basechar 0
AnchorPoint: "Anchor-3" 255 517 basechar 0
AnchorPoint: "Anchor-2" 473 10 basechar 0
LayerCount: 2
Fore
SplineSet
124 10 m 128,-1,1
 82 29 82 29 58.5 67 c 128,-1,2
 35 105 35 105 42 159 c 2,3,-1
 93 518 l 1,4,-1
 244 518 l 1,5,-1
 196 178 l 2,6,7
 191 140 191 140 212.5 119.5 c 128,-1,8
 234 99 234 99 271 99 c 0,9,10
 309 99 309 99 337 121 c 128,-1,11
 365 143 365 143 371 181 c 2,12,-1
 419 518 l 1,13,-1
 571 518 l 1,14,-1
 495 0 l 1,15,-1
 382 0 l 1,16,-1
 382 73 l 1,17,18
 356 35 356 35 306.5 12.5 c 128,-1,19
 257 -10 257 -10 211 -10 c 0,20,0
 166 -9 166 -9 124 10 c 128,-1,1
482 631 m 1,21,-1
 452 567 l 1,22,-1
 194 636 l 1,23,-1
 243 734 l 1,24,-1
 482 631 l 1,21,-1
EndSplineSet
EndChar

StartChar: uacute
Encoding: 250 250 187
Width: 610
GlyphClass: 2
Flags: W
AnchorPoint: "Anchor-5" -46 0 basechar 0
AnchorPoint: "Anchor-4" 259 0 basechar 0
AnchorPoint: "Anchor-3" 255 517 basechar 0
AnchorPoint: "Anchor-2" 473 10 basechar 0
LayerCount: 2
Fore
SplineSet
124 10 m 128,-1,1
 82 29 82 29 58.5 67 c 128,-1,2
 35 105 35 105 42 159 c 2,3,-1
 93 518 l 1,4,-1
 244 518 l 1,5,-1
 196 178 l 2,6,7
 191 140 191 140 212.5 119.5 c 128,-1,8
 234 99 234 99 271 99 c 0,9,10
 309 99 309 99 337 121 c 128,-1,11
 365 143 365 143 371 181 c 2,12,-1
 419 518 l 1,13,-1
 571 518 l 1,14,-1
 495 0 l 1,15,-1
 382 0 l 1,16,-1
 382 73 l 1,17,18
 356 35 356 35 306.5 12.5 c 128,-1,19
 257 -10 257 -10 211 -10 c 0,20,0
 166 -9 166 -9 124 10 c 128,-1,1
488 636 m 1,21,-1
 213 567 l 1,22,-1
 201 631 l 1,23,-1
 469 734 l 1,24,-1
 488 636 l 1,21,-1
EndSplineSet
EndChar

StartChar: ucircumflex
Encoding: 251 251 188
Width: 610
GlyphClass: 2
Flags: W
AnchorPoint: "Anchor-5" -46 0 basechar 0
AnchorPoint: "Anchor-4" 259 0 basechar 0
AnchorPoint: "Anchor-3" 255 517 basechar 0
AnchorPoint: "Anchor-2" 473 10 basechar 0
LayerCount: 2
Fore
SplineSet
124 10 m 128,-1,1
 82 29 82 29 58.5 67 c 128,-1,2
 35 105 35 105 42 159 c 2,3,-1
 93 518 l 1,4,-1
 244 518 l 1,5,-1
 196 178 l 2,6,7
 191 140 191 140 212.5 119.5 c 128,-1,8
 234 99 234 99 271 99 c 0,9,10
 309 99 309 99 337 121 c 128,-1,11
 365 143 365 143 371 181 c 2,12,-1
 419 518 l 1,13,-1
 571 518 l 1,14,-1
 495 0 l 1,15,-1
 382 0 l 1,16,-1
 382 73 l 1,17,18
 356 35 356 35 306.5 12.5 c 128,-1,19
 257 -10 257 -10 211 -10 c 0,20,0
 166 -9 166 -9 124 10 c 128,-1,1
348 669 m 1,21,-1
 264 594 l 1,22,-1
 153 594 l 1,23,-1
 306 730 l 1,24,-1
 410 730 l 1,25,-1
 519 594 l 1,26,-1
 402 594 l 1,27,-1
 348 669 l 1,21,-1
EndSplineSet
EndChar

StartChar: udieresis
Encoding: 252 252 189
Width: 610
GlyphClass: 2
Flags: W
AnchorPoint: "Anchor-5" -46 0 basechar 0
AnchorPoint: "Anchor-4" 259 0 basechar 0
AnchorPoint: "Anchor-3" 255 517 basechar 0
AnchorPoint: "Anchor-2" 473 10 basechar 0
LayerCount: 2
Fore
SplineSet
124 10 m 128,-1,1
 82 29 82 29 58.5 67 c 128,-1,2
 35 105 35 105 42 159 c 2,3,-1
 93 518 l 1,4,-1
 244 518 l 1,5,-1
 196 178 l 2,6,7
 191 140 191 140 212.5 119.5 c 128,-1,8
 234 99 234 99 271 99 c 0,9,10
 309 99 309 99 337 121 c 128,-1,11
 365 143 365 143 371 181 c 2,12,-1
 419 518 l 1,13,-1
 571 518 l 1,14,-1
 495 0 l 1,15,-1
 382 0 l 1,16,-1
 382 73 l 1,17,18
 356 35 356 35 306.5 12.5 c 128,-1,19
 257 -10 257 -10 211 -10 c 0,20,0
 166 -9 166 -9 124 10 c 128,-1,1
306 596 m 1,21,-1
 173 596 l 1,22,-1
 191 723 l 1,23,-1
 324 723 l 1,24,-1
 306 596 l 1,21,-1
505 596 m 1,25,-1
 372 596 l 1,26,-1
 390 723 l 1,27,-1
 523 723 l 1,28,-1
 505 596 l 1,25,-1
EndSplineSet
EndChar

StartChar: yacute
Encoding: 253 253 190
Width: 572
GlyphClass: 2
Flags: W
AnchorPoint: "Anchor-5" -46 0 basechar 0
AnchorPoint: "Anchor-4" -46 0 basechar 0
AnchorPoint: "Anchor-3" 258 517 basechar 0
AnchorPoint: "Anchor-2" -46 0 basechar 0
LayerCount: 2
Fore
SplineSet
26.5 -161 m 128,-1,1
 5 -157 5 -157 -5 -153 c 128,-1,2
 -15 -149 -15 -149 -17 -147 c 2,3,-1
 -3 -51 l 1,4,-1
 48 -53 l 2,5,6
 106 -57 106 -57 128.5 -41.5 c 128,-1,7
 151 -26 151 -26 161 -4 c 2,8,-1
 174 22 l 1,9,-1
 43 517 l 1,10,-1
 192 517 l 1,11,-1
 266 185 l 1,12,-1
 437 517 l 1,13,-1
 584 517 l 1,14,-1
 302 0 l 2,15,16
 250 -95 250 -95 198 -130 c 128,-1,17
 146 -165 146 -165 80 -165 c 0,18,0
 48 -165 48 -165 26.5 -161 c 128,-1,1
491 636 m 1,19,-1
 216 567 l 1,20,-1
 204 631 l 1,21,-1
 472 734 l 1,22,-1
 491 636 l 1,19,-1
EndSplineSet
EndChar

StartChar: thorn
Encoding: 254 254 191
Width: 607
GlyphClass: 2
Flags: W
LayerCount: 2
Fore
SplineSet
235 452 m 1,0,1
 272 487 272 487 310 507 c 128,-1,2
 348 527 348 527 401 527 c 0,3,4
 490 527 490 527 536 459.5 c 128,-1,5
 582 392 582 392 564 262 c 0,6,7
 545 127 545 127 478.5 58.5 c 128,-1,8
 412 -10 412 -10 318 -10 c 0,9,10
 241 -10 241 -10 195 40 c 0,11,12
 185 48 185 48 182 48 c 0,13,14
 178 48 178 48 176 34 c 2,15,-1
 148 -161 l 1,16,-1
 -3 -161 l 1,17,-1
 122 723 l 1,18,-1
 273 723 l 1,19,-1
 235 452 l 1,0,1
275 85 m 0,20,21
 386 85 386 85 411 265 c 0,22,23
 424 354 424 354 401 393 c 128,-1,24
 378 432 378 432 326 432 c 0,25,26
 287 432 287 432 256 408 c 128,-1,27
 225 384 225 384 221 354 c 2,28,-1
 190 134 l 1,29,30
 224 85 224 85 275 85 c 0,20,21
EndSplineSet
EndChar

StartChar: ydieresis
Encoding: 255 255 192
Width: 572
GlyphClass: 2
Flags: W
AnchorPoint: "Anchor-5" -46 0 basechar 0
AnchorPoint: "Anchor-4" -46 0 basechar 0
AnchorPoint: "Anchor-3" 258 517 basechar 0
AnchorPoint: "Anchor-2" -46 0 basechar 0
LayerCount: 2
Fore
SplineSet
26.5 -161 m 128,-1,1
 5 -157 5 -157 -5 -153 c 128,-1,2
 -15 -149 -15 -149 -17 -147 c 2,3,-1
 -3 -51 l 1,4,-1
 48 -53 l 2,5,6
 106 -57 106 -57 128.5 -41.5 c 128,-1,7
 151 -26 151 -26 161 -4 c 2,8,-1
 174 22 l 1,9,-1
 43 517 l 1,10,-1
 192 517 l 1,11,-1
 266 185 l 1,12,-1
 437 517 l 1,13,-1
 584 517 l 1,14,-1
 302 0 l 2,15,16
 250 -95 250 -95 198 -130 c 128,-1,17
 146 -165 146 -165 80 -165 c 0,18,0
 48 -165 48 -165 26.5 -161 c 128,-1,1
309 596 m 1,19,-1
 176 596 l 1,20,-1
 194 723 l 1,21,-1
 327 723 l 1,22,-1
 309 596 l 1,19,-1
508 596 m 1,23,-1
 375 596 l 1,24,-1
 393 723 l 1,25,-1
 526 723 l 1,26,-1
 508 596 l 1,23,-1
EndSplineSet
EndChar

StartChar: Amacron
Encoding: 256 256 193
Width: 713
GlyphClass: 2
Flags: W
AnchorPoint: "Anchor-5" -46 0 basechar 0
AnchorPoint: "Anchor-4" -46 0 basechar 0
AnchorPoint: "Anchor-3" 321 723 basechar 0
AnchorPoint: "Anchor-2" 647 10 basechar 0
LayerCount: 2
Fore
SplineSet
334 723 m 1,0,-1
 492 723 l 1,1,-1
 648 0 l 1,2,-1
 498 0 l 1,3,-1
 463 165 l 1,4,-1
 206 165 l 1,5,-1
 124 0 l 1,6,-1
 -27 0 l 1,7,-1
 334 723 l 1,0,-1
447 296 m 1,8,-1
 392 578 l 1,9,-1
 259 296 l 1,10,-1
 447 296 l 1,8,-1
615 828 m 1,11,-1
 259 828 l 1,12,-1
 273 924 l 1,13,-1
 629 924 l 1,14,-1
 615 828 l 1,11,-1
EndSplineSet
EndChar

StartChar: amacron
Encoding: 257 257 194
Width: 573
GlyphClass: 2
Flags: W
AnchorPoint: "Anchor-5" -46 0 basechar 0
AnchorPoint: "Anchor-4" -46 0 basechar 0
AnchorPoint: "Anchor-3" 241 517 basechar 0
AnchorPoint: "Anchor-2" 439 11 basechar 0
LayerCount: 2
Fore
SplineSet
496 0 m 1,0,-1
 345 0 l 1,1,-1
 496 0 l 1,0,-1
345 0 m 1,2,-1
 352 49 l 1,3,4
 313 17 313 17 276 3.5 c 128,-1,5
 239 -10 239 -10 201 -10 c 0,6,7
 106 -10 106 -10 56 58.5 c 128,-1,8
 6 127 6 127 25 262 c 0,9,10
 37 349 37 349 73 408.5 c 128,-1,11
 109 468 109 468 160 497.5 c 128,-1,12
 211 527 211 527 269 527 c 0,13,14
 351 527 351 527 411 467 c 1,15,-1
 418 517 l 1,16,-1
 569 517 l 1,17,-1
 496 0 l 1,18,-1
 345 0 l 1,2,-1
328.5 124.5 m 128,-1,20
 357 158 357 158 376 218 c 1,21,-1
 386 290 l 2,22,23
 395 352 395 352 374 388.5 c 128,-1,24
 353 425 353 425 309 425 c 0,25,26
 262 425 262 425 225.5 384 c 128,-1,27
 189 343 189 343 178 264 c 128,-1,28
 167 185 167 185 191.5 138 c 128,-1,29
 216 91 216 91 264 91 c 0,30,19
 300 91 300 91 328.5 124.5 c 128,-1,20
506 622 m 1,31,-1
 150 622 l 1,32,-1
 164 718 l 1,33,-1
 520 718 l 1,34,-1
 506 622 l 1,31,-1
EndSplineSet
EndChar

StartChar: Abreve
Encoding: 258 258 195
Width: 713
GlyphClass: 2
Flags: W
AnchorPoint: "Anchor-5" -46 0 basechar 0
AnchorPoint: "Anchor-4" -46 0 basechar 0
AnchorPoint: "Anchor-3" 321 723 basechar 0
AnchorPoint: "Anchor-2" 647 10 basechar 0
LayerCount: 2
Fore
SplineSet
334 723 m 1,0,-1
 492 723 l 1,1,-1
 648 0 l 1,2,-1
 498 0 l 1,3,-1
 463 165 l 1,4,-1
 206 165 l 1,5,-1
 124 0 l 1,6,-1
 -27 0 l 1,7,-1
 334 723 l 1,0,-1
447 296 m 1,8,-1
 392 578 l 1,9,-1
 259 296 l 1,10,-1
 447 296 l 1,8,-1
550.5 834.5 m 128,-1,12
 498 800 498 800 434 800 c 0,13,14
 369 800 369 800 326 833.5 c 128,-1,15
 283 867 283 867 275 929 c 1,16,-1
 364 929 l 1,17,18
 374 906 374 906 395 890 c 128,-1,19
 416 874 416 874 445 874 c 0,20,21
 471 874 471 874 497.5 890 c 128,-1,22
 524 906 524 906 540 929 c 1,23,-1
 630 929 l 1,24,11
 603 869 603 869 550.5 834.5 c 128,-1,12
EndSplineSet
EndChar

StartChar: abreve
Encoding: 259 259 196
Width: 573
GlyphClass: 2
Flags: W
AnchorPoint: "Anchor-5" -46 0 basechar 0
AnchorPoint: "Anchor-4" -46 0 basechar 0
AnchorPoint: "Anchor-3" 241 517 basechar 0
AnchorPoint: "Anchor-2" 439 11 basechar 0
LayerCount: 2
Fore
SplineSet
496 0 m 1,0,-1
 345 0 l 1,1,-1
 496 0 l 1,0,-1
345 0 m 1,2,-1
 352 49 l 1,3,4
 313 17 313 17 276 3.5 c 128,-1,5
 239 -10 239 -10 201 -10 c 0,6,7
 106 -10 106 -10 56 58.5 c 128,-1,8
 6 127 6 127 25 262 c 0,9,10
 37 349 37 349 73 408.5 c 128,-1,11
 109 468 109 468 160 497.5 c 128,-1,12
 211 527 211 527 269 527 c 0,13,14
 351 527 351 527 411 467 c 1,15,-1
 418 517 l 1,16,-1
 569 517 l 1,17,-1
 496 0 l 1,18,-1
 345 0 l 1,2,-1
328.5 124.5 m 128,-1,20
 357 158 357 158 376 218 c 1,21,-1
 386 290 l 2,22,23
 395 352 395 352 374 388.5 c 128,-1,24
 353 425 353 425 309 425 c 0,25,26
 262 425 262 425 225.5 384 c 128,-1,27
 189 343 189 343 178 264 c 128,-1,28
 167 185 167 185 191.5 138 c 128,-1,29
 216 91 216 91 264 91 c 0,30,19
 300 91 300 91 328.5 124.5 c 128,-1,20
441.5 628.5 m 128,-1,32
 389 594 389 594 325 594 c 0,33,34
 260 594 260 594 217 627.5 c 128,-1,35
 174 661 174 661 166 723 c 1,36,-1
 255 723 l 1,37,38
 265 700 265 700 286 684 c 128,-1,39
 307 668 307 668 336 668 c 0,40,41
 362 668 362 668 388.5 684 c 128,-1,42
 415 700 415 700 431 723 c 1,43,-1
 521 723 l 1,44,31
 494 663 494 663 441.5 628.5 c 128,-1,32
EndSplineSet
EndChar

StartChar: Aogonek
Encoding: 260 260 197
Width: 713
GlyphClass: 2
Flags: W
AnchorPoint: "Anchor-5" -46 0 basechar 0
AnchorPoint: "Anchor-4" -46 0 basechar 0
AnchorPoint: "Anchor-3" 321 723 basechar 0
AnchorPoint: "Anchor-2" 647 10 basechar 0
LayerCount: 2
Fore
SplineSet
334 723 m 1,0,-1
 492 723 l 1,1,-1
 648 0 l 1,2,-1
 498 0 l 1,3,-1
 463 165 l 1,4,-1
 206 165 l 1,5,-1
 124 0 l 1,6,-1
 -27 0 l 1,7,-1
 334 723 l 1,0,-1
447 296 m 1,8,-1
 392 578 l 1,9,-1
 259 296 l 1,10,-1
 447 296 l 1,8,-1
479.5 -34.5 m 128,-1,12
 503 -12 503 -12 561 6 c 1,13,-1
 666 4 l 1,14,15
 611 -15 611 -15 588 -31.5 c 128,-1,16
 565 -48 565 -48 563 -68 c 0,17,18
 559 -100 559 -100 594 -100 c 0,19,20
 619 -100 619 -100 653 -85 c 0,21,22
 659 -82 659 -82 663 -82 c 0,23,24
 669 -82 669 -82 667 -94 c 2,25,-1
 661 -136 l 2,26,27
 660 -146 660 -146 650 -150 c 0,28,29
 636 -157 636 -157 608 -163 c 128,-1,30
 580 -169 580 -169 550 -169 c 0,31,32
 498 -169 498 -169 472 -148 c 128,-1,33
 446 -127 446 -127 452 -87 c 0,34,11
 456 -57 456 -57 479.5 -34.5 c 128,-1,12
EndSplineSet
EndChar

StartChar: aogonek
Encoding: 261 261 198
Width: 573
GlyphClass: 2
Flags: W
AnchorPoint: "Anchor-5" -46 0 basechar 0
AnchorPoint: "Anchor-4" -46 0 basechar 0
AnchorPoint: "Anchor-3" 241 517 basechar 0
AnchorPoint: "Anchor-2" 439 11 basechar 0
LayerCount: 2
Fore
SplineSet
496 0 m 1,0,-1
 345 0 l 1,1,-1
 496 0 l 1,0,-1
345 0 m 1,2,-1
 352 49 l 1,3,4
 313 17 313 17 276 3.5 c 128,-1,5
 239 -10 239 -10 201 -10 c 0,6,7
 106 -10 106 -10 56 58.5 c 128,-1,8
 6 127 6 127 25 262 c 0,9,10
 37 349 37 349 73 408.5 c 128,-1,11
 109 468 109 468 160 497.5 c 128,-1,12
 211 527 211 527 269 527 c 0,13,14
 351 527 351 527 411 467 c 1,15,-1
 418 517 l 1,16,-1
 569 517 l 1,17,-1
 496 0 l 1,18,-1
 345 0 l 1,2,-1
328.5 124.5 m 128,-1,20
 357 158 357 158 376 218 c 1,21,-1
 386 290 l 2,22,23
 395 352 395 352 374 388.5 c 128,-1,24
 353 425 353 425 309 425 c 0,25,26
 262 425 262 425 225.5 384 c 128,-1,27
 189 343 189 343 178 264 c 128,-1,28
 167 185 167 185 191.5 138 c 128,-1,29
 216 91 216 91 264 91 c 0,30,19
 300 91 300 91 328.5 124.5 c 128,-1,20
271.5 -33.5 m 128,-1,32
 295 -11 295 -11 353 7 c 1,33,-1
 458 5 l 1,34,35
 403 -14 403 -14 380 -30.5 c 128,-1,36
 357 -47 357 -47 355 -67 c 0,37,38
 351 -99 351 -99 386 -99 c 0,39,40
 411 -99 411 -99 445 -84 c 0,41,42
 451 -81 451 -81 455 -81 c 0,43,44
 461 -81 461 -81 459 -93 c 2,45,-1
 453 -135 l 2,46,47
 452 -145 452 -145 442 -149 c 0,48,49
 428 -156 428 -156 400 -162 c 128,-1,50
 372 -168 372 -168 342 -168 c 0,51,52
 290 -168 290 -168 264 -147 c 128,-1,53
 238 -126 238 -126 244 -86 c 0,54,31
 248 -56 248 -56 271.5 -33.5 c 128,-1,32
EndSplineSet
EndChar

StartChar: Cacute
Encoding: 262 262 199
Width: 711
GlyphClass: 2
Flags: W
AnchorPoint: "Anchor-5" -46 0 basechar 0
AnchorPoint: "Anchor-4" 327 0 basechar 0
AnchorPoint: "Anchor-3" 327 723 basechar 0
AnchorPoint: "Anchor-2" -46 0 basechar 0
LayerCount: 2
Fore
SplineSet
569.5 701.5 m 128,-1,1
 630 670 630 670 662 614 c 128,-1,2
 694 558 694 558 691 487 c 1,3,-1
 533 485 l 1,4,5
 530 543 530 543 498.5 576 c 128,-1,6
 467 609 467 609 406 609 c 0,7,8
 248 609 248 609 213 365 c 0,9,10
 195 238 195 238 228.5 176 c 128,-1,11
 262 114 262 114 339 114 c 0,12,13
 394 114 394 114 436.5 150.5 c 128,-1,14
 479 187 479 187 499 246 c 1,15,-1
 656 243 l 1,16,17
 625 129 625 129 545.5 59.5 c 128,-1,18
 466 -10 466 -10 326 -10 c 0,19,20
 226 -10 226 -10 158 37.5 c 128,-1,21
 90 85 90 85 61.5 170.5 c 128,-1,22
 33 256 33 256 49 368 c 0,23,24
 65 479 65 479 116 561.5 c 128,-1,25
 167 644 167 644 247 688.5 c 128,-1,26
 327 733 327 733 428 733 c 0,27,0
 509 733 509 733 569.5 701.5 c 128,-1,1
589 842 m 1,28,-1
 314 773 l 1,29,-1
 302 837 l 1,30,-1
 570 940 l 1,31,-1
 589 842 l 1,28,-1
EndSplineSet
EndChar

StartChar: cacute
Encoding: 263 263 200
Width: 536
GlyphClass: 2
Flags: W
AnchorPoint: "Anchor-5" -46 0 basechar 0
AnchorPoint: "Anchor-4" 238 0 basechar 0
AnchorPoint: "Anchor-3" 238 517 basechar 0
AnchorPoint: "Anchor-2" -46 0 basechar 0
LayerCount: 2
Fore
SplineSet
453 473 m 128,-1,1
 501 419 501 419 501 337 c 1,2,-1
 378 331 l 1,3,4
 366 371 366 371 350 392 c 128,-1,5
 334 413 334 413 299 413 c 0,6,7
 247 413 247 413 211 372 c 128,-1,8
 175 331 175 331 164 258 c 0,9,10
 154 184 154 184 179.5 140.5 c 128,-1,11
 205 97 205 97 257 97 c 0,12,13
 293 97 293 97 316.5 120.5 c 128,-1,14
 340 144 340 144 360 181 c 1,15,-1
 479 175 l 1,16,17
 458 95 458 95 393 42.5 c 128,-1,18
 328 -10 328 -10 238 -10 c 0,19,20
 166 -10 166 -10 113 23.5 c 128,-1,21
 60 57 60 57 36.5 117.5 c 128,-1,22
 13 178 13 178 24 256 c 0,23,24
 35 335 35 335 75.5 396.5 c 128,-1,25
 116 458 116 458 178 492.5 c 128,-1,26
 240 527 240 527 313 527 c 0,27,0
 405 527 405 527 453 473 c 128,-1,1
471 636 m 1,28,-1
 196 567 l 1,29,-1
 184 631 l 1,30,-1
 452 734 l 1,31,-1
 471 636 l 1,28,-1
EndSplineSet
EndChar

StartChar: Ccircumflex
Encoding: 264 264 201
Width: 711
GlyphClass: 2
Flags: W
AnchorPoint: "Anchor-5" -46 0 basechar 0
AnchorPoint: "Anchor-4" 327 0 basechar 0
AnchorPoint: "Anchor-3" 327 723 basechar 0
AnchorPoint: "Anchor-2" -46 0 basechar 0
LayerCount: 2
Fore
SplineSet
569.5 701.5 m 128,-1,1
 630 670 630 670 662 614 c 128,-1,2
 694 558 694 558 691 487 c 1,3,-1
 533 485 l 1,4,5
 530 543 530 543 498.5 576 c 128,-1,6
 467 609 467 609 406 609 c 0,7,8
 248 609 248 609 213 365 c 0,9,10
 195 238 195 238 228.5 176 c 128,-1,11
 262 114 262 114 339 114 c 0,12,13
 394 114 394 114 436.5 150.5 c 128,-1,14
 479 187 479 187 499 246 c 1,15,-1
 656 243 l 1,16,17
 625 129 625 129 545.5 59.5 c 128,-1,18
 466 -10 466 -10 326 -10 c 0,19,20
 226 -10 226 -10 158 37.5 c 128,-1,21
 90 85 90 85 61.5 170.5 c 128,-1,22
 33 256 33 256 49 368 c 0,23,24
 65 479 65 479 116 561.5 c 128,-1,25
 167 644 167 644 247 688.5 c 128,-1,26
 327 733 327 733 428 733 c 0,27,0
 509 733 509 733 569.5 701.5 c 128,-1,1
449 875 m 1,28,-1
 365 800 l 1,29,-1
 254 800 l 1,30,-1
 407 936 l 1,31,-1
 511 936 l 1,32,-1
 620 800 l 1,33,-1
 503 800 l 1,34,-1
 449 875 l 1,28,-1
EndSplineSet
EndChar

StartChar: ccircumflex
Encoding: 265 265 202
Width: 536
GlyphClass: 2
Flags: W
AnchorPoint: "Anchor-5" -46 0 basechar 0
AnchorPoint: "Anchor-4" 238 0 basechar 0
AnchorPoint: "Anchor-3" 238 517 basechar 0
AnchorPoint: "Anchor-2" -46 0 basechar 0
LayerCount: 2
Fore
SplineSet
453 473 m 128,-1,1
 501 419 501 419 501 337 c 1,2,-1
 378 331 l 1,3,4
 366 371 366 371 350 392 c 128,-1,5
 334 413 334 413 299 413 c 0,6,7
 247 413 247 413 211 372 c 128,-1,8
 175 331 175 331 164 258 c 0,9,10
 154 184 154 184 179.5 140.5 c 128,-1,11
 205 97 205 97 257 97 c 0,12,13
 293 97 293 97 316.5 120.5 c 128,-1,14
 340 144 340 144 360 181 c 1,15,-1
 479 175 l 1,16,17
 458 95 458 95 393 42.5 c 128,-1,18
 328 -10 328 -10 238 -10 c 0,19,20
 166 -10 166 -10 113 23.5 c 128,-1,21
 60 57 60 57 36.5 117.5 c 128,-1,22
 13 178 13 178 24 256 c 0,23,24
 35 335 35 335 75.5 396.5 c 128,-1,25
 116 458 116 458 178 492.5 c 128,-1,26
 240 527 240 527 313 527 c 0,27,0
 405 527 405 527 453 473 c 128,-1,1
331 669 m 1,28,-1
 247 594 l 1,29,-1
 136 594 l 1,30,-1
 289 730 l 1,31,-1
 393 730 l 1,32,-1
 502 594 l 1,33,-1
 385 594 l 1,34,-1
 331 669 l 1,28,-1
EndSplineSet
EndChar

StartChar: Cdotaccent
Encoding: 266 266 203
Width: 711
GlyphClass: 2
Flags: W
AnchorPoint: "Anchor-5" -46 0 basechar 0
AnchorPoint: "Anchor-4" 327 0 basechar 0
AnchorPoint: "Anchor-3" 327 723 basechar 0
AnchorPoint: "Anchor-2" -46 0 basechar 0
LayerCount: 2
Fore
SplineSet
569.5 701.5 m 128,-1,1
 630 670 630 670 662 614 c 128,-1,2
 694 558 694 558 691 487 c 1,3,-1
 533 485 l 1,4,5
 530 543 530 543 498.5 576 c 128,-1,6
 467 609 467 609 406 609 c 0,7,8
 248 609 248 609 213 365 c 0,9,10
 195 238 195 238 228.5 176 c 128,-1,11
 262 114 262 114 339 114 c 0,12,13
 394 114 394 114 436.5 150.5 c 128,-1,14
 479 187 479 187 499 246 c 1,15,-1
 656 243 l 1,16,17
 625 129 625 129 545.5 59.5 c 128,-1,18
 466 -10 466 -10 326 -10 c 0,19,20
 226 -10 226 -10 158 37.5 c 128,-1,21
 90 85 90 85 61.5 170.5 c 128,-1,22
 33 256 33 256 49 368 c 0,23,24
 65 479 65 479 116 561.5 c 128,-1,25
 167 644 167 644 247 688.5 c 128,-1,26
 327 733 327 733 428 733 c 0,27,0
 509 733 509 733 569.5 701.5 c 128,-1,1
515 785 m 1,28,-1
 361 785 l 1,29,-1
 382 929 l 1,30,-1
 536 929 l 1,31,-1
 515 785 l 1,28,-1
EndSplineSet
EndChar

StartChar: cdotaccent
Encoding: 267 267 204
Width: 536
GlyphClass: 2
Flags: W
AnchorPoint: "Anchor-5" -46 0 basechar 0
AnchorPoint: "Anchor-4" 238 0 basechar 0
AnchorPoint: "Anchor-3" 238 517 basechar 0
AnchorPoint: "Anchor-2" -46 0 basechar 0
LayerCount: 2
Fore
SplineSet
453 473 m 128,-1,1
 501 419 501 419 501 337 c 1,2,-1
 378 331 l 1,3,4
 366 371 366 371 350 392 c 128,-1,5
 334 413 334 413 299 413 c 0,6,7
 247 413 247 413 211 372 c 128,-1,8
 175 331 175 331 164 258 c 0,9,10
 154 184 154 184 179.5 140.5 c 128,-1,11
 205 97 205 97 257 97 c 0,12,13
 293 97 293 97 316.5 120.5 c 128,-1,14
 340 144 340 144 360 181 c 1,15,-1
 479 175 l 1,16,17
 458 95 458 95 393 42.5 c 128,-1,18
 328 -10 328 -10 238 -10 c 0,19,20
 166 -10 166 -10 113 23.5 c 128,-1,21
 60 57 60 57 36.5 117.5 c 128,-1,22
 13 178 13 178 24 256 c 0,23,24
 35 335 35 335 75.5 396.5 c 128,-1,25
 116 458 116 458 178 492.5 c 128,-1,26
 240 527 240 527 313 527 c 0,27,0
 405 527 405 527 453 473 c 128,-1,1
397 579 m 1,28,-1
 243 579 l 1,29,-1
 264 723 l 1,30,-1
 418 723 l 1,31,-1
 397 579 l 1,28,-1
EndSplineSet
EndChar

StartChar: Ccaron
Encoding: 268 268 205
Width: 711
GlyphClass: 2
Flags: W
AnchorPoint: "Anchor-5" -46 0 basechar 0
AnchorPoint: "Anchor-4" 327 0 basechar 0
AnchorPoint: "Anchor-3" 327 723 basechar 0
AnchorPoint: "Anchor-2" -46 0 basechar 0
LayerCount: 2
Fore
SplineSet
569.5 701.5 m 128,-1,1
 630 670 630 670 662 614 c 128,-1,2
 694 558 694 558 691 487 c 1,3,-1
 533 485 l 1,4,5
 530 543 530 543 498.5 576 c 128,-1,6
 467 609 467 609 406 609 c 0,7,8
 248 609 248 609 213 365 c 0,9,10
 195 238 195 238 228.5 176 c 128,-1,11
 262 114 262 114 339 114 c 0,12,13
 394 114 394 114 436.5 150.5 c 128,-1,14
 479 187 479 187 499 246 c 1,15,-1
 656 243 l 1,16,17
 625 129 625 129 545.5 59.5 c 128,-1,18
 466 -10 466 -10 326 -10 c 0,19,20
 226 -10 226 -10 158 37.5 c 128,-1,21
 90 85 90 85 61.5 170.5 c 128,-1,22
 33 256 33 256 49 368 c 0,23,24
 65 479 65 479 116 561.5 c 128,-1,25
 167 644 167 644 247 688.5 c 128,-1,26
 327 733 327 733 428 733 c 0,27,0
 509 733 509 733 569.5 701.5 c 128,-1,1
639 930 m 1,28,-1
 490 792 l 1,29,-1
 385 792 l 1,30,-1
 273 930 l 1,31,-1
 384 930 l 1,32,-1
 446 854 l 1,33,-1
 522 930 l 1,34,-1
 639 930 l 1,28,-1
EndSplineSet
EndChar

StartChar: ccaron
Encoding: 269 269 206
Width: 536
GlyphClass: 2
Flags: W
AnchorPoint: "Anchor-5" -46 0 basechar 0
AnchorPoint: "Anchor-4" 238 0 basechar 0
AnchorPoint: "Anchor-3" 238 517 basechar 0
AnchorPoint: "Anchor-2" -46 0 basechar 0
LayerCount: 2
Fore
SplineSet
453 473 m 128,-1,1
 501 419 501 419 501 337 c 1,2,-1
 378 331 l 1,3,4
 366 371 366 371 350 392 c 128,-1,5
 334 413 334 413 299 413 c 0,6,7
 247 413 247 413 211 372 c 128,-1,8
 175 331 175 331 164 258 c 0,9,10
 154 184 154 184 179.5 140.5 c 128,-1,11
 205 97 205 97 257 97 c 0,12,13
 293 97 293 97 316.5 120.5 c 128,-1,14
 340 144 340 144 360 181 c 1,15,-1
 479 175 l 1,16,17
 458 95 458 95 393 42.5 c 128,-1,18
 328 -10 328 -10 238 -10 c 0,19,20
 166 -10 166 -10 113 23.5 c 128,-1,21
 60 57 60 57 36.5 117.5 c 128,-1,22
 13 178 13 178 24 256 c 0,23,24
 35 335 35 335 75.5 396.5 c 128,-1,25
 116 458 116 458 178 492.5 c 128,-1,26
 240 527 240 527 313 527 c 0,27,0
 405 527 405 527 453 473 c 128,-1,1
521 724 m 1,28,-1
 372 586 l 1,29,-1
 267 586 l 1,30,-1
 155 724 l 1,31,-1
 266 724 l 1,32,-1
 328 648 l 1,33,-1
 404 724 l 1,34,-1
 521 724 l 1,28,-1
EndSplineSet
EndChar

StartChar: Dcaron
Encoding: 270 270 207
Width: 715
GlyphClass: 2
Flags: W
AnchorPoint: "Anchor-5" -46 0 basechar 0
AnchorPoint: "Anchor-4" -46 0 basechar 0
AnchorPoint: "Anchor-3" 310 723 basechar 0
AnchorPoint: "Anchor-2" -46 0 basechar 0
LayerCount: 2
Fore
SplineSet
353 722 m 0,0,1
 544 717 544 717 623 624.5 c 128,-1,2
 702 532 702 532 678 365 c 0,3,4
 654 192 654 192 545.5 96 c 128,-1,5
 437 0 437 0 247 0 c 2,6,-1
 31 0 l 1,7,-1
 133 723 l 1,8,9
 291 723 291 723 353 722 c 0,0,1
200 122 m 1,10,-1
 268 122 l 2,11,12
 365 122 365 122 434 181 c 128,-1,13
 503 240 503 240 520 366 c 0,14,15
 537 487 537 487 489 544.5 c 128,-1,16
 441 602 441 602 337 602 c 2,17,-1
 268 602 l 1,18,-1
 200 122 l 1,10,-1
622 930 m 1,19,-1
 473 792 l 1,20,-1
 368 792 l 1,21,-1
 256 930 l 1,22,-1
 367 930 l 1,23,-1
 429 854 l 1,24,-1
 505 930 l 1,25,-1
 622 930 l 1,19,-1
EndSplineSet
EndChar

StartChar: dcaron
Encoding: 271 271 208
Width: 605
GlyphClass: 2
Flags: W
AnchorPoint: "Anchor-5" 537 575 basechar 0
AnchorPoint: "Anchor-4" 247 0 basechar 0
AnchorPoint: "Anchor-3" -46 0 basechar 0
AnchorPoint: "Anchor-2" -46 0 basechar 0
LayerCount: 2
Fore
SplineSet
55 61 m 128,-1,1
 7 132 7 132 24 258 c 0,2,3
 41 382 41 382 106.5 454.5 c 128,-1,4
 172 527 172 527 269 527 c 0,5,6
 313 527 313 527 349 510.5 c 128,-1,7
 385 494 385 494 407 459 c 1,8,-1
 446 743 l 1,9,-1
 597 743 l 1,10,-1
 493 0 l 1,11,-1
 384 0 l 1,12,-1
 383 71 l 1,13,14
 358 39 358 39 312 14.5 c 128,-1,15
 266 -10 266 -10 206 -10 c 0,16,0
 103 -10 103 -10 55 61 c 128,-1,1
332 131.5 m 128,-1,18
 365 165 365 165 373 218 c 2,19,-1
 387 321 l 1,20,21
 382 418 382 418 302 418 c 0,22,23
 253 418 253 418 218 380.5 c 128,-1,24
 183 343 183 343 172 261 c 0,25,26
 160 177 160 177 184 137.5 c 128,-1,27
 208 98 208 98 256 98 c 0,28,17
 299 98 299 98 332 131.5 c 128,-1,18
498 359 m 128,-1,30
 496 363 496 363 498 367 c 2,31,-1
 539 440 l 1,32,-1
 542 450 l 2,33,34
 543 457 543 457 535 458 c 2,35,-1
 525 460 l 2,36,37
 517 461 517 461 514 463.5 c 128,-1,38
 511 466 511 466 512 473 c 2,39,-1
 525 563 l 2,40,41
 527 575 527 575 538 575 c 2,42,-1
 618 575 l 2,43,44
 629 575 629 575 627 565 c 2,45,-1
 612 460 l 2,46,47
 612 457 612 457 610.5 455 c 128,-1,48
 609 453 609 453 609 452 c 2,49,-1
 561 367 l 2,50,51
 558 360 558 360 552.5 357.5 c 128,-1,52
 547 355 547 355 535 355 c 2,53,-1
 505 355 l 2,54,29
 500 355 500 355 498 359 c 128,-1,30
EndSplineSet
EndChar

StartChar: Dcroat
Encoding: 272 272 209
Width: 739
GlyphClass: 2
Flags: W
AnchorPoint: "Anchor-5" -46 0 basechar 0
AnchorPoint: "Anchor-4" -46 0 basechar 0
AnchorPoint: "Anchor-3" 334 723 basechar 0
AnchorPoint: "Anchor-2" -46 0 basechar 0
LayerCount: 2
Fore
SplineSet
647.5 624.5 m 128,-1,1
 726 532 726 532 702 365 c 0,2,3
 678 192 678 192 569.5 96 c 128,-1,4
 461 0 461 0 271 0 c 2,5,-1
 55 0 l 1,6,-1
 97 302 l 1,7,-1
 49 302 l 2,8,9
 37 302 37 302 33 306.5 c 128,-1,10
 29 311 29 311 30 322 c 2,11,-1
 40 394 l 2,12,13
 43 412 43 412 59 412 c 2,14,-1
 113 412 l 1,15,-1
 157 723 l 1,16,17
 316 723 316 723 377 722 c 0,18,0
 569 717 569 717 647.5 624.5 c 128,-1,1
458 181 m 128,-1,20
 527 240 527 240 544 366 c 0,21,22
 561 487 561 487 513 544.5 c 128,-1,23
 465 602 465 602 361 602 c 2,24,-1
 292 602 l 1,25,-1
 265 412 l 1,26,-1
 399 412 l 2,27,28
 413 412 413 412 411 396 c 2,29,-1
 401 325 l 2,30,31
 399 312 399 312 392 307 c 128,-1,32
 385 302 385 302 371 302 c 2,33,-1
 249 302 l 1,34,-1
 224 122 l 1,35,-1
 292 122 l 2,36,19
 389 122 389 122 458 181 c 128,-1,20
EndSplineSet
EndChar

StartChar: dcroat
Encoding: 273 273 210
Width: 611
GlyphClass: 2
Flags: W
AnchorPoint: "Anchor-5" 537 575 basechar 0
AnchorPoint: "Anchor-4" 247 0 basechar 0
AnchorPoint: "Anchor-3" -46 0 basechar 0
AnchorPoint: "Anchor-2" -46 0 basechar 0
LayerCount: 2
Fore
SplineSet
618 579 m 1,0,-1
 574 579 l 1,1,-1
 493 0 l 1,2,-1
 384 0 l 1,3,-1
 383 71 l 1,4,5
 358 39 358 39 312 14.5 c 128,-1,6
 266 -10 266 -10 206 -10 c 0,7,8
 103 -10 103 -10 55 61 c 128,-1,9
 7 132 7 132 24 258 c 0,10,11
 41 382 41 382 106.5 454.5 c 128,-1,12
 172 527 172 527 269 527 c 0,13,14
 313 527 313 527 349 510.5 c 128,-1,15
 385 494 385 494 407 459 c 1,16,-1
 423 579 l 1,17,-1
 279 579 l 1,18,-1
 291 663 l 1,19,-1
 435 663 l 1,20,-1
 446 743 l 1,21,-1
 597 743 l 1,22,-1
 586 663 l 1,23,-1
 630 663 l 1,24,-1
 618 579 l 1,0,-1
387 321 m 1,25,26
 382 418 382 418 302 418 c 0,27,28
 253 418 253 418 218 380.5 c 128,-1,29
 183 343 183 343 172 261 c 0,30,31
 160 177 160 177 184 137.5 c 128,-1,32
 208 98 208 98 256 98 c 0,33,34
 299 98 299 98 332 131.5 c 128,-1,35
 365 165 365 165 373 218 c 2,36,-1
 387 321 l 1,25,26
EndSplineSet
EndChar

StartChar: Emacron
Encoding: 274 274 211
Width: 638
GlyphClass: 2
Flags: W
AnchorPoint: "Anchor-5" -46 0 basechar 0
AnchorPoint: "Anchor-4" 291 0 basechar 0
AnchorPoint: "Anchor-3" 285 723 basechar 0
AnchorPoint: "Anchor-2" 533 10 basechar 0
LayerCount: 2
Fore
SplineSet
133 723 m 1,0,-1
 634 723 l 1,1,-1
 615 596 l 1,2,-1
 267 596 l 1,3,-1
 243 426 l 1,4,-1
 544 426 l 1,5,-1
 526 302 l 1,6,-1
 224 302 l 1,7,-1
 200 128 l 1,8,-1
 554 128 l 1,9,-1
 536 0 l 1,10,-1
 31 0 l 1,11,-1
 133 723 l 1,0,-1
579 828 m 1,12,-1
 223 828 l 1,13,-1
 237 924 l 1,14,-1
 593 924 l 1,15,-1
 579 828 l 1,12,-1
EndSplineSet
EndChar

StartChar: emacron
Encoding: 275 275 212
Width: 562
GlyphClass: 2
Flags: W
AnchorPoint: "Anchor-5" -46 0 basechar 0
AnchorPoint: "Anchor-4" 240 0 basechar 0
AnchorPoint: "Anchor-3" 240 517 basechar 0
AnchorPoint: "Anchor-2" 358 23 basechar 0
LayerCount: 2
Fore
SplineSet
184.5 132.5 m 128,-1,1
 209 99 209 99 259 99 c 0,2,3
 335 99 335 99 369 161 c 1,4,-1
 502 156 l 1,5,6
 485 106 485 106 445.5 68.5 c 128,-1,7
 406 31 406 31 354 10.5 c 128,-1,8
 302 -10 302 -10 247 -10 c 0,9,10
 170 -10 170 -10 115.5 22.5 c 128,-1,11
 61 55 61 55 36.5 114.5 c 128,-1,12
 12 174 12 174 24 253 c 0,13,14
 35 331 35 331 73.5 393 c 128,-1,15
 112 455 112 455 174.5 491 c 128,-1,16
 237 527 237 527 314 527 c 0,17,18
 430 527 430 527 482.5 455 c 128,-1,19
 535 383 535 383 518 264 c 2,20,-1
 512 224 l 1,21,-1
 168 224 l 1,22,0
 160 166 160 166 184.5 132.5 c 128,-1,1
385 313 m 1,23,24
 392 360 392 360 369.5 391 c 128,-1,25
 347 422 347 422 298 422 c 0,26,27
 252 422 252 422 219.5 389.5 c 128,-1,28
 187 357 187 357 181 313 c 1,29,-1
 385 313 l 1,23,24
505 622 m 1,30,-1
 149 622 l 1,31,-1
 163 718 l 1,32,-1
 519 718 l 1,33,-1
 505 622 l 1,30,-1
EndSplineSet
EndChar

StartChar: Ebreve
Encoding: 276 276 213
Width: 638
GlyphClass: 2
Flags: W
AnchorPoint: "Anchor-5" -46 0 basechar 0
AnchorPoint: "Anchor-4" 291 0 basechar 0
AnchorPoint: "Anchor-3" 285 723 basechar 0
AnchorPoint: "Anchor-2" 533 10 basechar 0
LayerCount: 2
Fore
SplineSet
133 723 m 1,0,-1
 634 723 l 1,1,-1
 615 596 l 1,2,-1
 267 596 l 1,3,-1
 243 426 l 1,4,-1
 544 426 l 1,5,-1
 526 302 l 1,6,-1
 224 302 l 1,7,-1
 200 128 l 1,8,-1
 554 128 l 1,9,-1
 536 0 l 1,10,-1
 31 0 l 1,11,-1
 133 723 l 1,0,-1
514.5 834.5 m 128,-1,13
 462 800 462 800 398 800 c 0,14,15
 333 800 333 800 290 833.5 c 128,-1,16
 247 867 247 867 239 929 c 1,17,-1
 328 929 l 1,18,19
 338 906 338 906 359 890 c 128,-1,20
 380 874 380 874 409 874 c 0,21,22
 435 874 435 874 461.5 890 c 128,-1,23
 488 906 488 906 504 929 c 1,24,-1
 594 929 l 1,25,12
 567 869 567 869 514.5 834.5 c 128,-1,13
EndSplineSet
EndChar

StartChar: ebreve
Encoding: 277 277 214
Width: 562
GlyphClass: 2
Flags: W
AnchorPoint: "Anchor-5" -46 0 basechar 0
AnchorPoint: "Anchor-4" 240 0 basechar 0
AnchorPoint: "Anchor-3" 240 517 basechar 0
AnchorPoint: "Anchor-2" 358 23 basechar 0
LayerCount: 2
Fore
SplineSet
184.5 132.5 m 128,-1,1
 209 99 209 99 259 99 c 0,2,3
 335 99 335 99 369 161 c 1,4,-1
 502 156 l 1,5,6
 485 106 485 106 445.5 68.5 c 128,-1,7
 406 31 406 31 354 10.5 c 128,-1,8
 302 -10 302 -10 247 -10 c 0,9,10
 170 -10 170 -10 115.5 22.5 c 128,-1,11
 61 55 61 55 36.5 114.5 c 128,-1,12
 12 174 12 174 24 253 c 0,13,14
 35 331 35 331 73.5 393 c 128,-1,15
 112 455 112 455 174.5 491 c 128,-1,16
 237 527 237 527 314 527 c 0,17,18
 430 527 430 527 482.5 455 c 128,-1,19
 535 383 535 383 518 264 c 2,20,-1
 512 224 l 1,21,-1
 168 224 l 1,22,0
 160 166 160 166 184.5 132.5 c 128,-1,1
385 313 m 1,23,24
 392 360 392 360 369.5 391 c 128,-1,25
 347 422 347 422 298 422 c 0,26,27
 252 422 252 422 219.5 389.5 c 128,-1,28
 187 357 187 357 181 313 c 1,29,-1
 385 313 l 1,23,24
440.5 628.5 m 128,-1,31
 388 594 388 594 324 594 c 0,32,33
 259 594 259 594 216 627.5 c 128,-1,34
 173 661 173 661 165 723 c 1,35,-1
 254 723 l 1,36,37
 264 700 264 700 285 684 c 128,-1,38
 306 668 306 668 335 668 c 0,39,40
 361 668 361 668 387.5 684 c 128,-1,41
 414 700 414 700 430 723 c 1,42,-1
 520 723 l 1,43,30
 493 663 493 663 440.5 628.5 c 128,-1,31
EndSplineSet
EndChar

StartChar: Edotaccent
Encoding: 278 278 215
Width: 638
GlyphClass: 2
Flags: W
AnchorPoint: "Anchor-5" -46 0 basechar 0
AnchorPoint: "Anchor-4" 291 0 basechar 0
AnchorPoint: "Anchor-3" 285 723 basechar 0
AnchorPoint: "Anchor-2" 533 10 basechar 0
LayerCount: 2
Fore
SplineSet
133 723 m 1,0,-1
 634 723 l 1,1,-1
 615 596 l 1,2,-1
 267 596 l 1,3,-1
 243 426 l 1,4,-1
 544 426 l 1,5,-1
 526 302 l 1,6,-1
 224 302 l 1,7,-1
 200 128 l 1,8,-1
 554 128 l 1,9,-1
 536 0 l 1,10,-1
 31 0 l 1,11,-1
 133 723 l 1,0,-1
473 785 m 1,12,-1
 319 785 l 1,13,-1
 340 929 l 1,14,-1
 494 929 l 1,15,-1
 473 785 l 1,12,-1
EndSplineSet
EndChar

StartChar: edotaccent
Encoding: 279 279 216
Width: 562
GlyphClass: 2
Flags: W
AnchorPoint: "Anchor-5" -46 0 basechar 0
AnchorPoint: "Anchor-4" 240 0 basechar 0
AnchorPoint: "Anchor-3" 240 517 basechar 0
AnchorPoint: "Anchor-2" 358 23 basechar 0
LayerCount: 2
Fore
SplineSet
184.5 132.5 m 128,-1,1
 209 99 209 99 259 99 c 0,2,3
 335 99 335 99 369 161 c 1,4,-1
 502 156 l 1,5,6
 485 106 485 106 445.5 68.5 c 128,-1,7
 406 31 406 31 354 10.5 c 128,-1,8
 302 -10 302 -10 247 -10 c 0,9,10
 170 -10 170 -10 115.5 22.5 c 128,-1,11
 61 55 61 55 36.5 114.5 c 128,-1,12
 12 174 12 174 24 253 c 0,13,14
 35 331 35 331 73.5 393 c 128,-1,15
 112 455 112 455 174.5 491 c 128,-1,16
 237 527 237 527 314 527 c 0,17,18
 430 527 430 527 482.5 455 c 128,-1,19
 535 383 535 383 518 264 c 2,20,-1
 512 224 l 1,21,-1
 168 224 l 1,22,0
 160 166 160 166 184.5 132.5 c 128,-1,1
385 313 m 1,23,24
 392 360 392 360 369.5 391 c 128,-1,25
 347 422 347 422 298 422 c 0,26,27
 252 422 252 422 219.5 389.5 c 128,-1,28
 187 357 187 357 181 313 c 1,29,-1
 385 313 l 1,23,24
399 579 m 1,30,-1
 245 579 l 1,31,-1
 266 723 l 1,32,-1
 420 723 l 1,33,-1
 399 579 l 1,30,-1
EndSplineSet
EndChar

StartChar: Eogonek
Encoding: 280 280 217
Width: 638
GlyphClass: 2
Flags: W
AnchorPoint: "Anchor-5" -46 0 basechar 0
AnchorPoint: "Anchor-4" 291 0 basechar 0
AnchorPoint: "Anchor-3" 285 723 basechar 0
AnchorPoint: "Anchor-2" 533 10 basechar 0
LayerCount: 2
Fore
SplineSet
133 723 m 1,0,-1
 634 723 l 1,1,-1
 615 596 l 1,2,-1
 267 596 l 1,3,-1
 243 426 l 1,4,-1
 544 426 l 1,5,-1
 526 302 l 1,6,-1
 224 302 l 1,7,-1
 200 128 l 1,8,-1
 554 128 l 1,9,-1
 536 0 l 1,10,-1
 31 0 l 1,11,-1
 133 723 l 1,0,-1
365.5 -34.5 m 128,-1,13
 389 -12 389 -12 447 6 c 1,14,-1
 552 4 l 1,15,16
 497 -15 497 -15 474 -31.5 c 128,-1,17
 451 -48 451 -48 449 -68 c 0,18,19
 445 -100 445 -100 480 -100 c 0,20,21
 505 -100 505 -100 539 -85 c 0,22,23
 545 -82 545 -82 549 -82 c 0,24,25
 555 -82 555 -82 553 -94 c 2,26,-1
 547 -136 l 2,27,28
 546 -146 546 -146 536 -150 c 0,29,30
 522 -157 522 -157 494 -163 c 128,-1,31
 466 -169 466 -169 436 -169 c 0,32,33
 384 -169 384 -169 358 -148 c 128,-1,34
 332 -127 332 -127 338 -87 c 0,35,12
 342 -57 342 -57 365.5 -34.5 c 128,-1,13
EndSplineSet
EndChar

StartChar: eogonek
Encoding: 281 281 218
Width: 562
GlyphClass: 2
Flags: W
AnchorPoint: "Anchor-5" -46 0 basechar 0
AnchorPoint: "Anchor-4" 240 0 basechar 0
AnchorPoint: "Anchor-3" 240 517 basechar 0
AnchorPoint: "Anchor-2" 358 23 basechar 0
LayerCount: 2
Fore
SplineSet
184.5 132.5 m 128,-1,1
 209 99 209 99 259 99 c 0,2,3
 335 99 335 99 369 161 c 1,4,-1
 502 156 l 1,5,6
 485 106 485 106 445.5 68.5 c 128,-1,7
 406 31 406 31 354 10.5 c 128,-1,8
 302 -10 302 -10 247 -10 c 0,9,10
 170 -10 170 -10 115.5 22.5 c 128,-1,11
 61 55 61 55 36.5 114.5 c 128,-1,12
 12 174 12 174 24 253 c 0,13,14
 35 331 35 331 73.5 393 c 128,-1,15
 112 455 112 455 174.5 491 c 128,-1,16
 237 527 237 527 314 527 c 0,17,18
 430 527 430 527 482.5 455 c 128,-1,19
 535 383 535 383 518 264 c 2,20,-1
 512 224 l 1,21,-1
 168 224 l 1,22,0
 160 166 160 166 184.5 132.5 c 128,-1,1
385 313 m 1,23,24
 392 360 392 360 369.5 391 c 128,-1,25
 347 422 347 422 298 422 c 0,26,27
 252 422 252 422 219.5 389.5 c 128,-1,28
 187 357 187 357 181 313 c 1,29,-1
 385 313 l 1,23,24
192.5 -21.5 m 128,-1,31
 216 1 216 1 274 19 c 1,32,-1
 379 17 l 1,33,34
 324 -2 324 -2 301 -18.5 c 128,-1,35
 278 -35 278 -35 276 -55 c 0,36,37
 272 -87 272 -87 307 -87 c 0,38,39
 332 -87 332 -87 366 -72 c 0,40,41
 372 -69 372 -69 376 -69 c 0,42,43
 382 -69 382 -69 380 -81 c 2,44,-1
 374 -123 l 2,45,46
 373 -133 373 -133 363 -137 c 0,47,48
 349 -144 349 -144 321 -150 c 128,-1,49
 293 -156 293 -156 263 -156 c 0,50,51
 211 -156 211 -156 185 -135 c 128,-1,52
 159 -114 159 -114 165 -74 c 0,53,30
 169 -44 169 -44 192.5 -21.5 c 128,-1,31
EndSplineSet
EndChar

StartChar: Ecaron
Encoding: 282 282 219
Width: 638
GlyphClass: 2
Flags: W
AnchorPoint: "Anchor-5" -46 0 basechar 0
AnchorPoint: "Anchor-4" 291 0 basechar 0
AnchorPoint: "Anchor-3" 285 723 basechar 0
AnchorPoint: "Anchor-2" 533 10 basechar 0
LayerCount: 2
Fore
SplineSet
133 723 m 1,0,-1
 634 723 l 1,1,-1
 615 596 l 1,2,-1
 267 596 l 1,3,-1
 243 426 l 1,4,-1
 544 426 l 1,5,-1
 526 302 l 1,6,-1
 224 302 l 1,7,-1
 200 128 l 1,8,-1
 554 128 l 1,9,-1
 536 0 l 1,10,-1
 31 0 l 1,11,-1
 133 723 l 1,0,-1
597 930 m 1,12,-1
 448 792 l 1,13,-1
 343 792 l 1,14,-1
 231 930 l 1,15,-1
 342 930 l 1,16,-1
 404 854 l 1,17,-1
 480 930 l 1,18,-1
 597 930 l 1,12,-1
EndSplineSet
EndChar

StartChar: ecaron
Encoding: 283 283 220
Width: 562
GlyphClass: 2
Flags: W
AnchorPoint: "Anchor-5" -46 0 basechar 0
AnchorPoint: "Anchor-4" 240 0 basechar 0
AnchorPoint: "Anchor-3" 240 517 basechar 0
AnchorPoint: "Anchor-2" 358 23 basechar 0
LayerCount: 2
Fore
SplineSet
184.5 132.5 m 128,-1,1
 209 99 209 99 259 99 c 0,2,3
 335 99 335 99 369 161 c 1,4,-1
 502 156 l 1,5,6
 485 106 485 106 445.5 68.5 c 128,-1,7
 406 31 406 31 354 10.5 c 128,-1,8
 302 -10 302 -10 247 -10 c 0,9,10
 170 -10 170 -10 115.5 22.5 c 128,-1,11
 61 55 61 55 36.5 114.5 c 128,-1,12
 12 174 12 174 24 253 c 0,13,14
 35 331 35 331 73.5 393 c 128,-1,15
 112 455 112 455 174.5 491 c 128,-1,16
 237 527 237 527 314 527 c 0,17,18
 430 527 430 527 482.5 455 c 128,-1,19
 535 383 535 383 518 264 c 2,20,-1
 512 224 l 1,21,-1
 168 224 l 1,22,0
 160 166 160 166 184.5 132.5 c 128,-1,1
385 313 m 1,23,24
 392 360 392 360 369.5 391 c 128,-1,25
 347 422 347 422 298 422 c 0,26,27
 252 422 252 422 219.5 389.5 c 128,-1,28
 187 357 187 357 181 313 c 1,29,-1
 385 313 l 1,23,24
523 724 m 1,30,-1
 374 586 l 1,31,-1
 269 586 l 1,32,-1
 157 724 l 1,33,-1
 268 724 l 1,34,-1
 330 648 l 1,35,-1
 406 724 l 1,36,-1
 523 724 l 1,30,-1
EndSplineSet
EndChar

StartChar: Gcircumflex
Encoding: 284 284 221
Width: 753
GlyphClass: 2
Flags: W
AnchorPoint: "Anchor-5" -46 0 basechar 0
AnchorPoint: "Anchor-4" 327 0 basechar 0
AnchorPoint: "Anchor-3" 325 723 basechar 0
AnchorPoint: "Anchor-2" -46 0 basechar 0
LayerCount: 2
Fore
SplineSet
157.5 36 m 128,-1,1
 90 82 90 82 61 165.5 c 128,-1,2
 32 249 32 249 47 359 c 0,3,4
 63 472 63 472 117 556.5 c 128,-1,5
 171 641 171 641 253.5 687 c 128,-1,6
 336 733 336 733 435 733 c 0,7,8
 519 733 519 733 581 699 c 128,-1,9
 643 665 643 665 674 608.5 c 128,-1,10
 705 552 705 552 698 488 c 1,11,-1
 539 485 l 1,12,13
 535 538 535 538 502.5 572 c 128,-1,14
 470 606 470 606 414 606 c 0,15,16
 338 606 338 606 283.5 546.5 c 128,-1,17
 229 487 229 487 212 365 c 0,18,19
 194 235 194 235 234.5 178.5 c 128,-1,20
 275 122 275 122 352 122 c 0,21,22
 391 122 391 122 423.5 139 c 128,-1,23
 456 156 456 156 477 181.5 c 128,-1,24
 498 207 498 207 506 233 c 2,25,-1
 519 276 l 1,26,-1
 371 276 l 1,27,-1
 385 380 l 1,28,-1
 691 378 l 1,29,-1
 638 0 l 1,30,-1
 535 0 l 1,31,-1
 548 93 l 1,32,33
 507 47 507 47 454.5 18.5 c 128,-1,34
 402 -10 402 -10 323 -10 c 0,35,0
 225 -10 225 -10 157.5 36 c 128,-1,1
447 875 m 1,36,-1
 363 800 l 1,37,-1
 252 800 l 1,38,-1
 405 936 l 1,39,-1
 509 936 l 1,40,-1
 618 800 l 1,41,-1
 501 800 l 1,42,-1
 447 875 l 1,36,-1
EndSplineSet
EndChar

StartChar: gcircumflex
Encoding: 285 285 222
Width: 632
GlyphClass: 2
Flags: W
AnchorPoint: "Anchor-5" -46 0 basechar 0
AnchorPoint: "Anchor-4" -46 0 basechar 0
AnchorPoint: "Anchor-3" 264 517 basechar 0
AnchorPoint: "Anchor-2" -46 0 basechar 0
LayerCount: 2
Fore
SplineSet
33 -136.5 m 128,-1,1
 -35 -102 -35 -102 -27 -45 c 0,2,3
 -22 -6 -22 -6 9.5 15 c 128,-1,4
 41 36 41 36 62 43 c 2,5,-1
 86 51 l 2,6,7
 82 53 82 53 66 62.5 c 128,-1,8
 50 72 50 72 40 89 c 128,-1,9
 30 106 30 106 33 129 c 0,10,11
 37 158 37 158 68 181 c 128,-1,12
 99 204 99 204 152 213 c 1,13,14
 104 238 104 238 83 277.5 c 128,-1,15
 62 317 62 317 68 363 c 0,16,17
 79 439 79 439 155 482 c 128,-1,18
 231 525 231 525 338 525 c 0,19,20
 387 525 387 525 420 515 c 128,-1,21
 453 505 453 505 482 485 c 1,22,23
 544 507 544 507 645 546 c 1,24,-1
 628 431 l 1,25,-1
 537 417 l 1,26,27
 539 404 539 404 540 388 c 128,-1,28
 541 372 541 372 540 364 c 0,29,30
 534 319 534 319 501.5 279.5 c 128,-1,31
 469 240 469 240 412 216 c 128,-1,32
 355 192 355 192 280 192 c 2,33,-1
 228 194 l 1,34,35
 180 191 180 191 177 174 c 0,36,37
 175 163 175 163 195 159 c 128,-1,38
 215 155 215 155 264 152 c 0,39,40
 307 149 307 149 324 148 c 2,41,-1
 370 145 l 2,42,43
 464 139 464 139 506 99 c 128,-1,44
 548 59 548 59 540 -3 c 0,45,46
 529 -79 529 -79 450 -125 c 128,-1,47
 371 -171 371 -171 238 -171 c 0,48,0
 101 -171 101 -171 33 -136.5 c 128,-1,1
365.5 298 m 128,-1,50
 392 320 392 320 397 358 c 0,51,52
 402 397 402 397 382 421.5 c 128,-1,53
 362 446 362 446 321 446 c 128,-1,54
 280 446 280 446 252 421.5 c 128,-1,55
 224 397 224 397 218 358 c 0,56,57
 213 320 213 320 234 298 c 128,-1,58
 255 276 255 276 297 276 c 128,-1,49
 339 276 339 276 365.5 298 c 128,-1,50
361 -73.5 m 128,-1,60
 388 -60 388 -60 392 -32 c 0,61,62
 399 16 399 16 322 22 c 2,63,-1
 207 29 l 2,64,65
 173 31 173 31 149.5 14 c 128,-1,66
 126 -3 126 -3 122 -27 c 0,67,68
 118 -59 118 -59 155 -73 c 128,-1,69
 192 -87 192 -87 274 -87 c 0,70,59
 334 -87 334 -87 361 -73.5 c 128,-1,60
357 669 m 1,71,-1
 273 594 l 1,72,-1
 162 594 l 1,73,-1
 315 730 l 1,74,-1
 419 730 l 1,75,-1
 528 594 l 1,76,-1
 411 594 l 1,77,-1
 357 669 l 1,71,-1
EndSplineSet
EndChar

StartChar: Gbreve
Encoding: 286 286 223
Width: 753
GlyphClass: 2
Flags: W
AnchorPoint: "Anchor-5" -46 0 basechar 0
AnchorPoint: "Anchor-4" 327 0 basechar 0
AnchorPoint: "Anchor-3" 325 723 basechar 0
AnchorPoint: "Anchor-2" -46 0 basechar 0
LayerCount: 2
Fore
SplineSet
157.5 36 m 128,-1,1
 90 82 90 82 61 165.5 c 128,-1,2
 32 249 32 249 47 359 c 0,3,4
 63 472 63 472 117 556.5 c 128,-1,5
 171 641 171 641 253.5 687 c 128,-1,6
 336 733 336 733 435 733 c 0,7,8
 519 733 519 733 581 699 c 128,-1,9
 643 665 643 665 674 608.5 c 128,-1,10
 705 552 705 552 698 488 c 1,11,-1
 539 485 l 1,12,13
 535 538 535 538 502.5 572 c 128,-1,14
 470 606 470 606 414 606 c 0,15,16
 338 606 338 606 283.5 546.5 c 128,-1,17
 229 487 229 487 212 365 c 0,18,19
 194 235 194 235 234.5 178.5 c 128,-1,20
 275 122 275 122 352 122 c 0,21,22
 391 122 391 122 423.5 139 c 128,-1,23
 456 156 456 156 477 181.5 c 128,-1,24
 498 207 498 207 506 233 c 2,25,-1
 519 276 l 1,26,-1
 371 276 l 1,27,-1
 385 380 l 1,28,-1
 691 378 l 1,29,-1
 638 0 l 1,30,-1
 535 0 l 1,31,-1
 548 93 l 1,32,33
 507 47 507 47 454.5 18.5 c 128,-1,34
 402 -10 402 -10 323 -10 c 0,35,0
 225 -10 225 -10 157.5 36 c 128,-1,1
554.5 834.5 m 128,-1,37
 502 800 502 800 438 800 c 0,38,39
 373 800 373 800 330 833.5 c 128,-1,40
 287 867 287 867 279 929 c 1,41,-1
 368 929 l 1,42,43
 378 906 378 906 399 890 c 128,-1,44
 420 874 420 874 449 874 c 0,45,46
 475 874 475 874 501.5 890 c 128,-1,47
 528 906 528 906 544 929 c 1,48,-1
 634 929 l 1,49,36
 607 869 607 869 554.5 834.5 c 128,-1,37
EndSplineSet
EndChar

